<?xml version="1.0" encoding="UTF-8"?>
<svg width="36px" height="36px" viewBox="0 0 36 36" version="1.1" xmlns="http://www.w3.org/2000/svg" xmlns:xlink="http://www.w3.org/1999/xlink">
    <title>icon_waiting</title>
    <g id="Hydraswap" stroke="none" stroke-width="1" fill="none" fill-rule="evenodd">
        <g id="01-HydraSwap-Swap" transform="translate(-747.000000, -904.000000)">
            <g id="icon_waiting" transform="translate(747.000000, 904.000000)">
                <circle id="椭圆形" fill="#0D121C" cx="18" cy="18" r="18"></circle>
                <g id="沙漏" transform="translate(11.000000, 8.000000)" fill="#FFFFFF" fill-rule="nonzero">
                    <path d="M0.470588235,0 L0.470588235,4.7523204 L5.34558506,9.50773465 L0.470588235,14.2538673 L0.470588235,19 L13.4705882,19 L13.4705882,14.2538673 L8.59559141,9.50773465 L13.4705882,4.7523204 L13.4705882,0 L0.470588235,0 Z M11.8455978,14.839226 L11.8455978,17.4179475 L2.09557872,17.4179475 L2.09557872,14.8061836 L6.97057554,10.1326453 L11.8455978,14.839226 Z M6.97057554,8.88539814 L2.09557872,4.1551803 L2.09557872,1.57895861 L11.8455978,1.57895861 L11.8455978,4.16329859 L6.97057554,8.88539814 L6.97057554,8.88539814 Z" id="形状"></path>
                </g>
                <g id="疑问" fill="#FFFFFF" fill-rule="nonzero">
                    <path d="M18.0000209,36.0000419 C8.05887657,36.0000419 0,27.9411653 0,18.0000209 C0,8.05887657 8.05887657,0 18.0000209,0 C27.9411653,0 36.0000419,8.05887657 36.0000419,18.0000209 C36.0000419,27.9411653 27.9411653,36.0000419 18.0000209,36.0000419 Z M18.0000209,2.57143659 C9.47915556,2.57143659 2.57143659,9.47915556 2.57143659,18.0000209 C2.57143659,26.5208863 9.47915556,33.4286053 18.0000209,33.4286053 C26.5208863,33.4286053 33.4286053,26.5208863 33.4286053,18.0000209 C33.4286053,9.47915556 26.5208863,2.57143659 18.0000209,2.57143659 Z" id="形状"></path>
                </g>
            </g>
        </g>
    </g>
</svg>