<?xml version="1.0" encoding="UTF-8"?>
<svg width="160px" height="37px" viewBox="0 0 160 37" version="1.1" xmlns="http://www.w3.org/2000/svg" xmlns:xlink="http://www.w3.org/1999/xlink">
    <title>编组备份</title>
    <defs>
        <linearGradient x1="87.1452332%" y1="20.0519919%" x2="14.981842%" y2="84.0505229%" id="linearGradient-1">
            <stop stop-color="#2FE4C9" offset="0%"></stop>
            <stop stop-color="#39B5F1" offset="20.8031573%"></stop>
            <stop stop-color="#6C83E1" offset="58.4753118%"></stop>
            <stop stop-color="#CF489D" offset="100%"></stop>
        </linearGradient>
    </defs>
    <g id="Hydraswap" stroke="none" stroke-width="1" fill="none" fill-rule="evenodd">
        <g id="编组备份">
            <path d="M54.1680686,17.3043478 L54.1680686,12.2902535 L58.0541536,12.2902535 L58.0541536,17.3043478 L62.2222222,17.3043478 L62.2222222,4.36956522 L58.0541536,4.36956522 L58.0541536,8.76019068 L54.1680686,8.76019068 L54.1680686,4.36956522 L50,4.36956522 L50,17.3043478 L54.1680686,17.3043478 Z M66.1675774,21 C67.0773123,21 67.7346691,20.9403066 68.1396478,20.8209198 C68.5446266,20.701533 68.8909128,20.4991578 69.1785064,20.2137943 C69.3956689,20.0099632 69.5996256,19.7114962 69.7903764,19.3183933 C69.9662249,18.9560016 70.2106585,18.3102607 70.5236772,17.3811706 L70.555746,17.2857101 C70.5718986,17.2374915 70.5882286,17.1885402 70.6047359,17.1388564 L70.6047359,17.1388564 L73.7037037,7.69565217 L70.1205222,7.69565217 L68.4918033,13.4524251 L66.819065,7.69565217 L62.962963,7.69565217 L66.1675774,16.3875931 C66.2380085,16.5797768 66.2893645,16.7515773 66.3216454,16.9029947 C66.3539263,17.0544121 66.3700668,17.1912701 66.3700668,17.3135688 C66.3700668,17.5989323 66.2878972,17.8042194 66.123558,17.9294299 C65.9592188,18.0546404 65.6921676,18.1172457 65.3224044,18.1172457 L65.3224044,18.1172457 L64.2395264,18.1172457 L64.2395264,20.930115 C64.6034204,20.95341 64.9497065,20.9708813 65.2783849,20.9825288 C65.6070633,20.9941763 65.9034608,21 66.1675774,21 Z M78.2297708,17.673913 C78.8823427,17.673913 79.4711406,17.5492581 79.9961643,17.2999482 C80.5211881,17.0506384 80.9913365,16.6708075 81.4066096,16.1604555 L81.4066096,16.1604555 L81.4066096,17.3307453 L84.8148148,17.3307453 L84.8148148,4.36956522 L81.05956,4.36956522 L81.05956,8.78674948 C80.6739493,8.34679089 80.2453282,8.01828847 79.7736966,7.80124224 C79.3020651,7.584196 78.7755582,7.47567288 78.1941759,7.47567288 C76.9839516,7.47567288 75.9947119,7.9478951 75.2264568,8.89233954 C74.4582016,9.83678399 74.0740741,11.068668 74.0740741,12.5879917 C74.0740741,14.1190476 74.4567185,15.3494651 75.2220074,16.2792443 C75.9872963,17.2090235 76.9898841,17.673913 78.2297708,17.673913 Z M79.6212597,14.7173913 C79.1581223,14.7173913 78.7968194,14.5234247 78.5373509,14.1354914 C78.2778824,13.7475581 78.1481481,13.2038638 78.1481481,12.5044083 C78.1481481,11.7461751 78.2681175,11.1863169 78.5080561,10.8248336 C78.7479947,10.4633503 79.1190626,10.2826087 79.6212597,10.2826087 C80.1234568,10.2826087 80.4973146,10.4648198 80.7428332,10.8292419 C80.9883518,11.1936641 81.1111111,11.7520529 81.1111111,12.5044083 C81.1111111,13.197986 80.9785869,13.7402109 80.7135384,14.1310831 C80.4484899,14.5219552 80.084397,14.7173913 79.6212597,14.7173913 Z M90.7655594,17.3043478 L90.7655594,13.4643135 C90.7655594,12.7410784 90.9416762,12.2101319 91.2939099,11.8714742 C91.6461436,11.5328165 92.1974036,11.3634876 92.94769,11.3634876 C93.0622375,11.3634876 93.1825124,11.3677926 93.3085147,11.3764025 C93.434517,11.3850125 93.5662467,11.3950574 93.7037037,11.4065373 L93.7037037,11.4065373 L93.7037037,7.69565217 L93.3686522,7.69565217 C92.6011837,7.69565217 91.9869225,7.85206613 91.5258687,8.16489403 C91.0648148,8.47772194 90.7111493,8.97279362 90.4648721,9.65010909 L90.4648721,9.65010909 L90.4648721,7.9453405 L87.037037,7.9453405 L87.037037,17.3043478 L90.7655594,17.3043478 Z M98.1469544,17.673913 C98.839347,17.673913 99.4625004,17.5702867 100.016414,17.3630341 C100.570329,17.1557816 101.086738,16.8360204 101.565643,16.4037507 L101.565643,16.4037507 L101.799326,17.3275051 L105.555556,17.3275051 L105.555556,17.0521553 C105.422847,16.9633327 105.321873,16.8493438 105.252634,16.7101885 C105.183395,16.5710332 105.148775,16.412633 105.148775,16.2349879 L105.148775,16.2349879 L105.148775,10.8523419 C105.148775,10.1299185 105.059341,9.57477763 104.880473,9.1869192 C104.701605,8.79906077 104.390028,8.45117248 103.945743,8.14325434 C103.582237,7.89455122 103.073039,7.69618088 102.418151,7.54814331 C101.763263,7.40010574 101.049233,7.32608696 100.276062,7.32608696 C98.6316292,7.32608696 97.3853225,7.60291721 96.5371415,8.15657772 C95.6889605,8.71023823 95.2562151,9.52888599 95.2389053,10.612521 L95.2389053,10.612521 L98.8912764,10.612521 C98.9258961,10.2868383 99.0470648,10.0455371 99.2547826,9.88861728 C99.4625004,9.73169746 99.7596522,9.65323754 100.146238,9.65323754 C100.613603,9.65323754 100.955472,9.7168937 101.171845,9.84420601 C101.388217,9.97151832 101.496404,10.1743298 101.496404,10.4526404 C101.496404,10.9500467 100.904985,11.2638863 99.7221476,11.3941594 C99.3817212,11.4296884 99.1105341,11.4622566 98.9085863,11.4918642 C97.3218531,11.6991168 96.2428746,12.0307209 95.6716507,12.4866766 C95.1004268,12.9426323 94.8148148,13.6472912 94.8148148,14.6006531 C94.8148148,15.5777011 95.1047542,16.334173 95.6846331,16.870069 C96.2645119,17.405965 97.0852857,17.673913 98.1469544,17.673913 Z M99.6228956,15.0869565 C99.2697344,15.0869565 98.9973812,15.0141634 98.8058361,14.8685771 C98.6142911,14.7229908 98.5185185,14.5214097 98.5185185,14.263834 C98.5185185,13.8606719 99.003367,13.5387022 99.973064,13.2979249 C100.5896,13.1467391 101.083427,13.0039526 101.454545,12.8695652 C101.466517,12.9199605 101.473999,12.9773551 101.476992,13.041749 C101.479985,13.106143 101.481481,13.2027339 101.481481,13.3315217 C101.481481,13.9418643 101.333333,14.3870224 101.037037,14.666996 C100.740741,14.9469697 100.26936,15.0869565 99.6228956,15.0869565 Z M112.769053,17.673913 C114.618654,17.673913 116.039298,17.2891874 117.030986,16.5197361 C118.022674,15.7502848 118.518519,14.6489709 118.518519,13.2157945 C118.518519,12.5520693 118.387651,11.9764493 118.125915,11.4889343 C117.864179,11.0014194 117.44831,10.5667675 116.878307,10.1849787 C116.418815,9.87367399 115.441668,9.52712722 113.946865,9.14533841 C113.615333,9.06310698 113.368138,9.0014334 113.20528,8.96031768 C113.152933,8.94857033 113.07732,8.92801248 112.978442,8.89864411 C111.850069,8.61083408 111.285883,8.25253997 111.285883,7.82376177 C111.285883,7.52420439 111.393486,7.30100478 111.608691,7.15416293 C111.823896,7.00732108 112.15252,6.93390016 112.594563,6.93390016 C113.094769,6.93390016 113.480102,7.02787894 113.750563,7.21583651 C114.021023,7.40379408 114.188243,7.68866726 114.252223,8.07045607 L114.252223,8.07045607 L118.169537,8.07045607 C118.047394,6.76062677 117.512289,5.7547601 116.564224,5.05285606 C115.616158,4.35095202 114.316203,4 112.664359,4 C110.983433,4 109.663121,4.36710462 108.703422,5.10131387 C107.743724,5.83552312 107.263875,6.84579505 107.263875,8.13212965 C107.263875,8.77236012 107.387472,9.34210649 107.634667,9.84136878 C107.881862,10.3406311 108.252655,10.7694093 108.747045,11.1277034 C109.002964,11.3039136 109.411563,11.4933396 109.972841,11.6959813 C110.534119,11.8986231 111.288791,12.1232911 112.236857,12.3699854 C112.359,12.3993538 112.536399,12.4434064 112.769053,12.5021431 C113.926508,12.7958268 114.505235,13.1776156 114.505235,13.6475095 C114.505235,13.9411932 114.367096,14.1717349 114.09082,14.3391346 C113.814543,14.5065343 113.435026,14.5902342 112.952268,14.5902342 C112.376449,14.5902342 111.943131,14.4874449 111.652313,14.2818663 C111.361496,14.0762877 111.160832,13.7385515 111.050321,13.2686576 L111.050321,13.2686576 L107.037037,13.2686576 C107.15918,14.666592 107.719004,15.7502848 108.716509,16.5197361 C109.714014,17.2891874 111.064862,17.673913 112.769053,17.673913 Z M126.09968,17.3043478 L127.48176,11.7442102 L128.855092,17.3043478 L132.563965,17.3043478 L135.555556,7.69565217 L131.960398,7.69565217 L130.543329,13.5563377 L129.073776,7.69565217 L125.880996,7.69565217 L124.411443,13.5563377 L123.003121,7.69565217 L119.259259,7.69565217 L122.390807,17.3043478 L126.09968,17.3043478 Z M139.998806,17.673913 C140.691199,17.673913 141.314352,17.5702867 141.868266,17.3630341 C142.42218,17.1557816 142.93859,16.8360204 143.417495,16.4037507 L143.417495,16.4037507 L143.651177,17.3275051 L147.407407,17.3275051 L147.407407,17.0521553 C147.274699,16.9633327 147.173725,16.8493438 147.104486,16.7101885 C147.035246,16.5710332 147.000627,16.412633 147.000627,16.2349879 L147.000627,16.2349879 L147.000627,10.8523419 C147.000627,10.1299185 146.911193,9.57477763 146.732325,9.1869192 C146.553456,8.79906077 146.24188,8.45117248 145.797595,8.14325434 C145.434088,7.89455122 144.924891,7.69618088 144.270003,7.54814331 C143.615115,7.40010574 142.901085,7.32608696 142.127914,7.32608696 C140.483481,7.32608696 139.237174,7.60291721 138.388993,8.15657772 C137.540812,8.71023823 137.108067,9.52888599 137.090757,10.612521 L137.090757,10.612521 L140.743128,10.612521 C140.777748,10.2868383 140.898917,10.0455371 141.106634,9.88861728 C141.314352,9.73169746 141.611504,9.65323754 141.99809,9.65323754 C142.465455,9.65323754 142.807324,9.7168937 143.023697,9.84420601 C143.240069,9.97151832 143.348256,10.1743298 143.348256,10.4526404 C143.348256,10.9500467 142.756837,11.2638863 141.573999,11.3941594 C141.233573,11.4296884 140.962386,11.4622566 140.760438,11.4918642 C139.173705,11.6991168 138.094726,12.0307209 137.523503,12.4866766 C136.952279,12.9426323 136.666667,13.6472912 136.666667,14.6006531 C136.666667,15.5777011 136.956606,16.334173 137.536485,16.870069 C138.116364,17.405965 138.937138,17.673913 139.998806,17.673913 Z M141.474747,15.0869565 C141.121586,15.0869565 140.849233,15.0141634 140.657688,14.8685771 C140.466143,14.7229908 140.37037,14.5214097 140.37037,14.263834 C140.37037,13.8606719 140.855219,13.5387022 141.824916,13.2979249 C142.441452,13.1467391 142.935279,13.0039526 143.306397,12.8695652 C143.318369,12.9199605 143.325851,12.9773551 143.328844,13.041749 C143.331837,13.106143 143.333333,13.2027339 143.333333,13.3315217 C143.333333,13.9418643 143.185185,14.3870224 142.888889,14.666996 C142.592593,14.9469697 142.121212,15.0869565 141.474747,15.0869565 Z M152.993623,21 L152.993623,16.2599451 C153.325566,16.6769759 153.713821,16.9853438 154.158389,17.1850487 C154.602956,17.3847537 155.124581,17.4846061 155.723265,17.4846061 C157.027328,17.4846061 158.066133,17.0235227 158.83968,16.1013559 C159.613227,15.1791891 160,13.9427807 160,12.3921308 C160,10.8767229 159.611745,9.65353027 158.835234,8.72255295 C158.058724,7.79157562 157.045111,7.32608696 155.794395,7.32608696 C155.094943,7.32608696 154.493296,7.44502885 153.989453,7.68291265 C153.48561,7.92079645 153.044007,8.29524316 152.664643,8.8062528 L152.664643,8.8062528 L152.664643,7.58159177 L149.259259,7.58159177 L149.259259,21 L152.993623,21 Z M154.444444,14.7173913 C153.950617,14.7173913 153.580247,14.534835 153.333333,14.1697224 C153.08642,13.8046097 152.962963,13.2569408 152.962963,12.5267156 C152.962963,11.748996 153.083645,11.1805483 153.32501,10.8213724 C153.566375,10.4621966 153.950617,10.2826087 154.477736,10.2826087 C154.966015,10.2826087 155.329449,10.4666492 155.56804,10.8347302 C155.806631,11.2028112 155.925926,11.7668064 155.925926,12.5267156 C155.925926,13.251004 155.801082,13.7971888 155.551394,14.1652698 C155.301706,14.5333508 154.932723,14.7173913 154.444444,14.7173913 Z" id="HydraSwap" fill="#FFFFFF" fill-rule="nonzero"></path>
            <path d="M51.344,34 C51.504,34 51.616,33.966 51.68,33.898 C51.744,33.83 51.788,33.764 51.812,33.7 L51.812,33.7 L52.328,32.368 L56.12,32.368 L56.636,33.7 C56.66,33.764 56.704,33.83 56.768,33.898 C56.832,33.966 56.944,34 57.104,34 L57.104,34 L57.968,34 C58.056,34 58.132,33.968 58.196,33.904 C58.26,33.84 58.292,33.764 58.292,33.676 C58.292,33.644 58.288,33.616 58.28,33.592 L58.28,33.592 L55.34,26.008 C55.292,25.872 55.236,25.77 55.172,25.702 C55.108,25.634 55.012,25.6 54.884,25.6 L54.884,25.6 L53.564,25.6 C53.436,25.6 53.34,25.634 53.276,25.702 C53.212,25.77 53.156,25.872 53.108,26.008 L53.108,26.008 L50.168,33.592 C50.16,33.616 50.156,33.644 50.156,33.676 C50.156,33.764 50.188,33.84 50.252,33.904 C50.316,33.968 50.392,34 50.48,34 L50.48,34 L51.344,34 Z M55.544,30.868 L52.904,30.868 L54.224,27.448 L55.544,30.868 Z M60.512,34 C60.6,34 60.676,33.968 60.74,33.904 C60.804,33.84 60.836,33.764 60.836,33.676 L60.836,33.676 L60.836,25.804 C60.836,25.716 60.804,25.64 60.74,25.576 C60.676,25.512 60.6,25.48 60.512,25.48 L60.512,25.48 L59.6,25.48 C59.512,25.48 59.436,25.512 59.372,25.576 C59.308,25.64 59.276,25.716 59.276,25.804 L59.276,25.804 L59.276,33.676 C59.276,33.764 59.308,33.84 59.372,33.904 C59.436,33.968 59.512,34 59.6,34 L59.6,34 L60.512,34 Z M63.728,36.28 C63.816,36.28 63.892,36.248 63.956,36.184 C64.02,36.12 64.052,36.044 64.052,35.956 L64.052,35.956 L64.052,33.4 C64.116,33.472 64.2,33.55 64.304,33.634 C64.408,33.718 64.534,33.796 64.682,33.868 C64.83,33.94 65.002,34 65.198,34.048 C65.394,34.096 65.616,34.12 65.864,34.12 C66.264,34.12 66.626,34.042 66.95,33.886 C67.274,33.73 67.55,33.522 67.778,33.262 C68.006,33.002 68.186,32.702 68.318,32.362 C68.45,32.022 68.524,31.668 68.54,31.3 C68.548,31.18 68.552,31.04 68.552,30.88 C68.552,30.72 68.548,30.58 68.54,30.46 C68.524,30.092 68.45,29.738 68.318,29.398 C68.186,29.058 68.006,28.758 67.778,28.498 C67.55,28.238 67.274,28.03 66.95,27.874 C66.626,27.718 66.264,27.64 65.864,27.64 C65.616,27.64 65.394,27.664 65.198,27.712 C65.002,27.76 64.83,27.82 64.682,27.892 C64.534,27.964 64.408,28.042 64.304,28.126 C64.2,28.21 64.116,28.288 64.052,28.36 L64.052,28.36 L64.052,28.084 C64.052,27.996 64.02,27.92 63.956,27.856 C63.892,27.792 63.816,27.76 63.728,27.76 L63.728,27.76 L62.816,27.76 C62.728,27.76 62.652,27.792 62.588,27.856 C62.524,27.92 62.492,27.996 62.492,28.084 L62.492,28.084 L62.492,35.956 C62.492,36.044 62.524,36.12 62.588,36.184 C62.652,36.248 62.728,36.28 62.816,36.28 L62.816,36.28 L63.728,36.28 Z M65.504,32.68 C65.112,32.68 64.782,32.56 64.514,32.32 C64.246,32.08 64.092,31.752 64.052,31.336 C64.036,31.216 64.028,31.064 64.028,30.88 C64.028,30.696 64.036,30.544 64.052,30.424 C64.092,29.992 64.246,29.66 64.514,29.428 C64.782,29.196 65.112,29.08 65.504,29.08 C65.896,29.08 66.228,29.194 66.5,29.422 C66.772,29.65 66.932,30.024 66.98,30.544 C67.004,30.768 67.004,30.992 66.98,31.216 C66.932,31.736 66.772,32.11 66.5,32.338 C66.228,32.566 65.896,32.68 65.504,32.68 Z M71.156,34 C71.244,34 71.32,33.968 71.384,33.904 C71.448,33.84 71.48,33.764 71.48,33.676 L71.48,33.676 L71.48,30.628 C71.48,30.148 71.602,29.764 71.846,29.476 C72.09,29.188 72.424,29.044 72.848,29.044 C73.312,29.044 73.656,29.188 73.88,29.476 C74.104,29.764 74.216,30.148 74.216,30.628 L74.216,30.628 L74.216,33.676 C74.216,33.764 74.248,33.84 74.312,33.904 C74.376,33.968 74.452,34 74.54,34 L74.54,34 L75.452,34 C75.54,34 75.616,33.968 75.68,33.904 C75.744,33.84 75.776,33.764 75.776,33.676 L75.776,33.676 L75.776,30.448 C75.776,30.072 75.734,29.714 75.65,29.374 C75.566,29.034 75.424,28.736 75.224,28.48 C75.024,28.224 74.76,28.02 74.432,27.868 C74.104,27.716 73.696,27.64 73.208,27.64 C72.824,27.64 72.492,27.708 72.212,27.844 C71.932,27.98 71.688,28.152 71.48,28.36 L71.48,28.36 L71.48,25.804 C71.48,25.716 71.448,25.64 71.384,25.576 C71.32,25.512 71.244,25.48 71.156,25.48 L71.156,25.48 L70.244,25.48 C70.156,25.48 70.08,25.512 70.016,25.576 C69.952,25.64 69.92,25.716 69.92,25.804 L69.92,25.804 L69.92,33.676 C69.92,33.764 69.952,33.84 70.016,33.904 C70.08,33.968 70.156,34 70.244,34 L70.244,34 L71.156,34 Z M79.136,34.12 C79.624,34.12 80.026,34.038 80.342,33.874 C80.658,33.71 80.9,33.512 81.068,33.28 L81.068,33.28 L81.068,33.676 C81.068,33.764 81.1,33.84 81.164,33.904 C81.228,33.968 81.304,34 81.392,34 L81.392,34 L82.304,34 C82.392,34 82.468,33.968 82.532,33.904 C82.596,33.84 82.628,33.764 82.628,33.676 L82.628,33.676 L82.628,30.148 C82.628,29.74 82.564,29.378 82.436,29.062 C82.308,28.746 82.126,28.484 81.89,28.276 C81.654,28.068 81.372,27.91 81.044,27.802 C80.716,27.694 80.348,27.64 79.94,27.64 C79.532,27.64 79.174,27.694 78.866,27.802 C78.558,27.91 78.298,28.048 78.086,28.216 C77.874,28.384 77.71,28.564 77.594,28.756 C77.478,28.948 77.404,29.128 77.372,29.296 C77.356,29.376 77.376,29.44 77.432,29.488 C77.488,29.536 77.556,29.56 77.636,29.56 L77.636,29.56 L78.752,29.56 C78.824,29.56 78.89,29.548 78.95,29.524 C79.01,29.5 79.076,29.456 79.148,29.392 C79.252,29.296 79.36,29.22 79.472,29.164 C79.584,29.108 79.74,29.08 79.94,29.08 C80.26,29.08 80.528,29.148 80.744,29.284 C80.96,29.42 81.068,29.652 81.068,29.98 L81.068,29.98 L79.112,30.316 C78.456,30.428 77.932,30.64 77.54,30.952 C77.148,31.264 76.952,31.696 76.952,32.248 C76.952,32.52 77.002,32.77 77.102,32.998 C77.202,33.226 77.344,33.424 77.528,33.592 C77.712,33.76 77.94,33.89 78.212,33.982 C78.484,34.074 78.792,34.12 79.136,34.12 Z M79.376,32.68 C79.144,32.68 78.942,32.64 78.77,32.56 C78.598,32.48 78.512,32.356 78.512,32.188 C78.512,32.004 78.584,31.858 78.728,31.75 C78.872,31.642 79.108,31.56 79.436,31.504 L79.436,31.504 L81.068,31.216 L81.068,31.336 C81.068,31.504 81.032,31.668 80.96,31.828 C80.888,31.988 80.78,32.132 80.636,32.26 C80.492,32.388 80.314,32.49 80.102,32.566 C79.89,32.642 79.648,32.68 79.376,32.68 Z M90.044,34.12 C90.628,34.12 91.122,34.038 91.526,33.874 C91.93,33.71 92.258,33.482 92.51,33.19 C92.762,32.898 92.946,32.554 93.062,32.158 C93.178,31.762 93.248,31.332 93.272,30.868 C93.28,30.716 93.284,30.548 93.284,30.364 L93.284,30.364 L93.284,29.236 C93.284,29.052 93.28,28.884 93.272,28.732 C93.248,28.268 93.178,27.838 93.062,27.442 C92.946,27.046 92.762,26.702 92.51,26.41 C92.258,26.118 91.93,25.89 91.526,25.726 C91.122,25.562 90.628,25.48 90.044,25.48 C89.452,25.48 88.956,25.566 88.556,25.738 C88.156,25.91 87.83,26.144 87.578,26.44 C87.326,26.736 87.142,27.086 87.026,27.49 C86.91,27.894 86.84,28.328 86.816,28.792 C86.8,29.096 86.792,29.442 86.792,29.83 C86.792,30.218 86.8,30.564 86.816,30.868 C86.84,31.332 86.91,31.762 87.026,32.158 C87.142,32.554 87.326,32.898 87.578,33.19 C87.83,33.482 88.156,33.71 88.556,33.874 C88.956,34.038 89.452,34.12 90.044,34.12 Z M90.044,32.62 C89.484,32.62 89.086,32.462 88.85,32.146 C88.614,31.83 88.476,31.384 88.436,30.808 C88.42,30.504 88.412,30.168 88.412,29.8 C88.412,29.432 88.42,29.096 88.436,28.792 C88.476,28.216 88.614,27.77 88.85,27.454 C89.086,27.138 89.484,26.98 90.044,26.98 C90.604,26.98 91.002,27.138 91.238,27.454 C91.474,27.77 91.612,28.216 91.652,28.792 C91.668,29.096 91.676,29.432 91.676,29.8 C91.676,30.168 91.668,30.504 91.652,30.808 C91.612,31.384 91.474,31.83 91.238,32.146 C91.002,32.462 90.604,32.62 90.044,32.62 Z M96.08,34 C96.168,34 96.244,33.968 96.308,33.904 C96.372,33.84 96.404,33.764 96.404,33.676 L96.404,33.676 L96.404,32.5 C96.404,32.412 96.372,32.336 96.308,32.272 C96.244,32.208 96.168,32.176 96.08,32.176 L96.08,32.176 L94.964,32.176 C94.876,32.176 94.8,32.208 94.736,32.272 C94.672,32.336 94.64,32.412 94.64,32.5 L94.64,32.5 L94.64,33.676 C94.64,33.764 94.672,33.84 94.736,33.904 C94.8,33.968 94.876,34 94.964,34 L94.964,34 L96.08,34 Z M103.556,34 C103.644,34 103.72,33.968 103.784,33.904 C103.848,33.84 103.88,33.764 103.88,33.676 L103.88,33.676 L103.88,32.824 C103.88,32.736 103.848,32.66 103.784,32.596 C103.72,32.532 103.644,32.5 103.556,32.5 L103.556,32.5 L100.22,32.5 L102.44,30.472 C102.72,30.248 102.944,30.038 103.112,29.842 C103.28,29.646 103.408,29.458 103.496,29.278 C103.584,29.098 103.64,28.918 103.664,28.738 C103.688,28.558 103.7,28.368 103.7,28.168 C103.7,27.856 103.642,27.542 103.526,27.226 C103.41,26.91 103.232,26.622 102.992,26.362 C102.752,26.102 102.448,25.89 102.08,25.726 C101.712,25.562 101.276,25.48 100.772,25.48 C100.356,25.48 99.968,25.55 99.608,25.69 C99.248,25.83 98.934,26.02 98.666,26.26 C98.398,26.5 98.184,26.78 98.024,27.1 C97.864,27.42 97.772,27.76 97.748,28.12 C97.74,28.216 97.77,28.294 97.838,28.354 C97.906,28.414 97.984,28.444 98.072,28.444 L98.072,28.444 L99.02,28.444 C99.092,28.444 99.164,28.418 99.236,28.366 C99.308,28.314 99.356,28.236 99.38,28.132 C99.468,27.796 99.614,27.52 99.818,27.304 C100.022,27.088 100.344,26.98 100.784,26.98 C101.248,26.98 101.58,27.094 101.78,27.322 C101.98,27.55 102.08,27.828 102.08,28.156 C102.08,28.324 102.046,28.508 101.978,28.708 C101.91,28.908 101.756,29.104 101.516,29.296 L101.516,29.296 L97.952,32.38 C97.896,32.42 97.828,32.49 97.748,32.59 C97.668,32.69 97.628,32.808 97.628,32.944 L97.628,32.944 L97.628,33.676 C97.628,33.764 97.66,33.84 97.724,33.904 C97.788,33.968 97.864,34 97.952,34 L97.952,34 L103.556,34 Z" id="Alpha0.2" fill="#898A8A" fill-rule="nonzero"></path>
            <g id="LOGO_HYDRASWAP备份-2">
                <path d="M18,3.70230162e-14 C27.9411255,3.70230162e-14 36,8.09814783 36,18.0877194 C36,25.3576472 31.7318384,31.6258342 25.5761942,34.5 L25.5759879,34.5 C24.1265169,33.4869076 23.0676977,32.401493 22.3995586,31.2433947 C21.3227578,29.3769682 20.7362109,27.9002401 20.6367188,25.6353891 C20.6172273,25.1917717 20.6591013,24.7832926 20.7623352,24.4099684 C21.0701528,23.9749789 21.4165406,23.562805 21.7997227,23.1777556 C22.308928,22.6660688 22.8657985,22.2196749 23.4602993,21.8428068 C23.7312745,21.7199351 24.0269469,21.6558082 24.328125,21.6558082 C25.4796033,21.6558082 26.418553,22.5877629 26.4372168,23.7404656 L26.4375,23.7754629 L26.4374648,24.5556689 L25.734375,24.5556865 L29.25,28.0884442 L29.25,24.5556865 L28.5468398,24.5556689 L28.546875,23.7754629 C28.546875,22.4589184 27.9465445,21.2806146 27.0064601,20.50252 C27.499726,20.4240101 28.0026635,20.3840155 28.5117188,20.3840155 C29.3026392,20.3840155 30.0814868,20.4806663 30.8376045,20.6720703 L30.8891227,20.6852674 L30.5507777,21.6194067 L35.0567895,19.5079481 L31.7531918,18.2996743 L31.6133304,18.685778 C30.6077619,18.4058387 29.5682037,18.2643609 28.5117188,18.2643609 C26.946,18.2643609 25.4265117,18.5727353 23.9955469,19.1809348 C23.4603312,19.4084084 22.9462812,19.6738815 22.4553997,19.9760256 C22.3628508,20.0221153 22.2718549,20.0717093 22.1826115,20.1247517 L22.1381367,20.15156 L21.4487752,20.5727963 C23.0129044,17.6708163 25.5190739,15.3362272 28.5713239,14.0051142 L28.663983,13.965085 L28.8409395,14.9734169 L31.6926738,10.8808937 L28.2304863,11.4943571 L28.2892147,11.8293561 C27.8667401,11.9957123 27.4527521,12.1786617 27.0481184,12.3775219 C26.9599941,11.4538777 26.5744102,10.5895861 25.9341574,9.89965261 C25.37476,9.29687414 24.6696825,8.87966161 23.8930753,8.68200787 L23.8627818,8.67441824 L24.2638207,7.56722705 L19.757809,9.67868568 L23.0614066,10.8869595 L23.1326107,10.6902766 C23.6144941,10.7551303 24.0555157,10.9832429 24.391466,11.3452924 C24.7757238,11.7593669 24.9765363,12.2989957 24.9568488,12.8648728 C24.9459264,13.1787492 24.8665286,13.4842747 24.7252634,13.7600069 C22.2683667,15.5036104 20.3011902,17.8865276 19.0568399,20.6520258 L19.0193539,20.7359456 L19.0194961,5.82905021 L19.7226562,5.82905021 L17.9648438,2.29629251 L16.2070312,5.82905021 L16.9101211,5.82905021 L16.9102519,20.7172004 C15.6681617,17.9252634 13.6906805,15.5195296 11.2160181,13.7625877 C11.0740812,13.4861128 10.9942323,13.1797053 10.9832766,12.8648728 C10.9456171,11.7805767 11.7293056,10.8553601 12.7716537,10.6955682 L12.8033186,10.6909609 L12.874282,10.8869312 L16.1779148,9.67865742 L11.6719031,7.56719879 L12.0736134,8.6762972 C10.3568814,9.10464641 9.06510276,10.5880923 8.89242338,12.3786082 C8.51991515,12.1956511 8.13957059,12.0260406 7.75198316,11.8704302 L7.66881807,11.8372996 L7.72893633,11.4943571 L4.26671367,10.8808937 L7.11844805,14.9734169 L7.29393022,13.973653 C10.350835,15.2871232 12.8662073,17.604911 14.4456289,20.492629 L14.4932033,20.5803096 L13.7915508,20.15156 C13.7040417,20.0980693 13.6147927,20.0479295 13.5240051,20.0012081 C13.0208275,19.6886302 12.4931239,19.4147146 11.9430703,19.1809348 C10.5121055,18.5727353 8.99265234,18.2643609 7.42689844,18.2643609 C6.40002429,18.2643609 5.38914131,18.3980192 4.40991762,18.6625662 L4.35554898,18.6773979 L4.21766016,18.2966573 L0.9140625,19.5049311 L5.42007422,21.6163544 L5.07995635,20.6774265 C5.84266789,20.4824695 6.62863412,20.3840155 7.42689844,20.3840155 C7.93338822,20.3840155 8.43382167,20.423608 8.92464364,20.5012359 C7.99317886,21.2716025 7.39486564,22.434694 7.38299253,23.7359877 L7.3828125,23.7754629 L7.38277734,24.5556689 L6.99609375,24.5556865 L6.99609375,28.0884442 L10.5117188,24.5556865 L9.49215234,24.5556689 L9.4921875,23.7754629 C9.4921875,22.6066853 10.4384531,21.6558082 11.6015625,21.6558082 C11.915267,21.6558082 12.2229982,21.7253802 12.5030591,21.858486 C13.0882577,22.2320709 13.6367522,22.6731661 14.1388945,23.1777556 C14.4933132,23.5339014 14.8162542,23.9132525 15.1063486,24.3123436 C15.3753628,25.2654021 15.3011951,26.4911855 14.8838457,27.9896985 L14.864873,28.0572231 L14.864873,28.0572231 L14.821977,28.2079485 L14.7859922,28.3325075 L14.7623289,28.4133171 L14.7388773,28.4924395 L14.7155949,28.5699577 L14.6924393,28.6459543 L14.669368,28.7205124 L14.6463386,28.7937147 L14.6233086,28.865644 L14.6117801,28.9011573 L14.5886697,28.9713326 C14.5758048,29.0100151 14.5628906,29.0482042 14.5498942,29.0859638 L14.5303338,29.1422891 L14.5066642,29.2090965 L14.4827392,29.2751281 C14.3190854,29.7216927 14.1347801,30.1201907 13.8697555,30.587845 L13.84616,30.629291 L13.8058782,30.699214 L13.785278,30.734594 L13.785278,30.734594 L13.7643647,30.7702667 L13.721577,30.8425318 C13.7070974,30.8668314 13.6923983,30.891347 13.6774727,30.9160922 L13.6320094,30.9910308 L13.5732044,31.0867682 L13.5732044,31.0867682 L13.5611734,31.1062039 L13.5121267,31.1849503 L13.4486933,31.2857388 L13.4486933,31.2857388 L13.4357166,31.3062235 L13.3693469,31.4103534 L13.3693469,31.4103534 L13.3004391,31.5174456 L13.2434297,31.6053611 C12.7872735,32.3065664 12.1248526,33.0337049 11.2561921,33.7867767 L11.217735,33.8200172 L11.1432777,33.8838224 C10.987828,34.0162872 10.8260348,34.1495497 10.6578981,34.2836099 L10.5945495,34.3339199 L10.5122274,34.398714 C10.474505,34.4282564 10.4364767,34.4578374 10.3981425,34.4874568 L10.3978462,34.4878537 C4.25616501,31.6082018 0,25.3474231 0,18.0877194 C0,8.09814783 8.0588745,3.70230162e-14 18,3.70230162e-14 Z" id="路径" fill="url(#linearGradient-1)"></path>
                <rect id="矩形" x="0" y="0" width="36" height="36"></rect>
            </g>
        </g>
    </g>
</svg>