<?xml version="1.0" encoding="UTF-8"?>
<svg width="160px" height="36px" viewBox="0 0 160 36" version="1.1" xmlns="http://www.w3.org/2000/svg" xmlns:xlink="http://www.w3.org/1999/xlink">
    <title>LOGO_HYDRASWAP</title>
    <defs>
        <linearGradient x1="87.1452332%" y1="20.0519919%" x2="14.981842%" y2="84.0505229%" id="linearGradient-1">
            <stop stop-color="#2FE4C9" offset="0%"></stop>
            <stop stop-color="#39B5F1" offset="20.8031573%"></stop>
            <stop stop-color="#6C83E1" offset="58.4753118%"></stop>
            <stop stop-color="#CF489D" offset="100%"></stop>
        </linearGradient>
    </defs>
    <g id="页面-1" stroke="none" stroke-width="1" fill="none" fill-rule="evenodd">
        <g id="01-HydraSwap-Swap-优化" transform="translate(-24.000000, -24.000000)">
            <g id="LOGO_HYDRASWAP" transform="translate(24.000000, 24.000000)">
                <path d="M54.1680686,13.3043478 L54.1680686,8.29025355 L58.0541536,8.29025355 L58.0541536,13.3043478 L62.2222222,13.3043478 L62.2222222,0.369565217 L58.0541536,0.369565217 L58.0541536,4.76019068 L54.1680686,4.76019068 L54.1680686,0.369565217 L50,0.369565217 L50,13.3043478 L54.1680686,13.3043478 Z M66.1675774,17 C67.0773123,17 67.7346691,16.9403066 68.1396478,16.8209198 C68.5446266,16.701533 68.8909128,16.4991578 69.1785064,16.2137943 C69.3956689,16.0099632 69.5996256,15.7114962 69.7903764,15.3183933 C69.9662249,14.9560016 70.2106585,14.3102607 70.5236772,13.3811706 L70.555746,13.2857101 C70.5718986,13.2374915 70.5882286,13.1885402 70.6047359,13.1388564 L70.6047359,13.1388564 L73.7037037,3.69565217 L70.1205222,3.69565217 L68.4918033,9.45242513 L66.819065,3.69565217 L62.962963,3.69565217 L66.1675774,12.3875931 C66.2380085,12.5797768 66.2893645,12.7515773 66.3216454,12.9029947 C66.3539263,13.0544121 66.3700668,13.1912701 66.3700668,13.3135688 C66.3700668,13.5989323 66.2878972,13.8042194 66.123558,13.9294299 C65.9592188,14.0546404 65.6921676,14.1172457 65.3224044,14.1172457 L65.3224044,14.1172457 L64.2395264,14.1172457 L64.2395264,16.930115 C64.6034204,16.95341 64.9497065,16.9708813 65.2783849,16.9825288 C65.6070633,16.9941763 65.9034608,17 66.1675774,17 Z M78.2297708,13.673913 C78.8823427,13.673913 79.4711406,13.5492581 79.9961643,13.2999482 C80.5211881,13.0506384 80.9913365,12.6708075 81.4066096,12.1604555 L81.4066096,12.1604555 L81.4066096,13.3307453 L84.8148148,13.3307453 L84.8148148,0.369565217 L81.05956,0.369565217 L81.05956,4.78674948 C80.6739493,4.34679089 80.2453282,4.01828847 79.7736966,3.80124224 C79.3020651,3.584196 78.7755582,3.47567288 78.1941759,3.47567288 C76.9839516,3.47567288 75.9947119,3.9478951 75.2264568,4.89233954 C74.4582016,5.83678399 74.0740741,7.06866805 74.0740741,8.58799172 C74.0740741,10.1190476 74.4567185,11.3494651 75.2220074,12.2792443 C75.9872963,13.2090235 76.9898841,13.673913 78.2297708,13.673913 Z M79.6212597,10.7173913 C79.1581223,10.7173913 78.7968194,10.5234247 78.5373509,10.1354914 C78.2778824,9.74755813 78.1481481,9.20386377 78.1481481,8.50440833 C78.1481481,7.74617512 78.2681175,7.18631688 78.5080561,6.82483361 C78.7479947,6.46335033 79.1190626,6.2826087 79.6212597,6.2826087 C80.1234568,6.2826087 80.4973146,6.46481978 80.7428332,6.82924194 C80.9883518,7.1936641 81.1111111,7.7520529 81.1111111,8.50440833 C81.1111111,9.197986 80.9785869,9.74021091 80.7135384,10.1310831 C80.4484899,10.5219552 80.084397,10.7173913 79.6212597,10.7173913 Z M90.7655594,13.3043478 L90.7655594,9.46431354 C90.7655594,8.74107839 90.9416762,8.21013194 91.2939099,7.87147421 C91.6461436,7.53281648 92.1974036,7.36348761 92.94769,7.36348761 C93.0622375,7.36348761 93.1825124,7.36779258 93.3085147,7.37640252 C93.434517,7.38501247 93.5662467,7.3950574 93.7037037,7.40653732 L93.7037037,7.40653732 L93.7037037,3.69565217 L93.3686522,3.69565217 C92.6011837,3.69565217 91.9869225,3.85206613 91.5258687,4.16489403 C91.0648148,4.47772194 90.7111493,4.97279362 90.4648721,5.65010909 L90.4648721,5.65010909 L90.4648721,3.9453405 L87.037037,3.9453405 L87.037037,13.3043478 L90.7655594,13.3043478 Z M98.1469544,13.673913 C98.839347,13.673913 99.4625004,13.5702867 100.016414,13.3630341 C100.570329,13.1557816 101.086738,12.8360204 101.565643,12.4037507 L101.565643,12.4037507 L101.799326,13.3275051 L105.555556,13.3275051 L105.555556,13.0521553 C105.422847,12.9633327 105.321873,12.8493438 105.252634,12.7101885 C105.183395,12.5710332 105.148775,12.412633 105.148775,12.2349879 L105.148775,12.2349879 L105.148775,6.85234185 C105.148775,6.12991852 105.059341,5.57477763 104.880473,5.1869192 C104.701605,4.79906077 104.390028,4.45117248 103.945743,4.14325434 C103.582237,3.89455122 103.073039,3.69618088 102.418151,3.54814331 C101.763263,3.40010574 101.049233,3.32608696 100.276062,3.32608696 C98.6316292,3.32608696 97.3853225,3.60291721 96.5371415,4.15657772 C95.6889605,4.71023823 95.2562151,5.52888599 95.2389053,6.61252099 L95.2389053,6.61252099 L98.8912764,6.61252099 C98.9258961,6.28683834 99.0470648,6.0455371 99.2547826,5.88861728 C99.4625004,5.73169746 99.7596522,5.65323754 100.146238,5.65323754 C100.613603,5.65323754 100.955472,5.7168937 101.171845,5.84420601 C101.388217,5.97151832 101.496404,6.17432979 101.496404,6.45264042 C101.496404,6.95004665 100.904985,7.2638863 99.7221476,7.39415936 C99.3817212,7.42968837 99.1105341,7.46225664 98.9085863,7.49186415 C97.3218531,7.69911675 96.2428746,8.03072091 95.6716507,8.48667662 C95.1004268,8.94263233 94.8148148,9.64729116 94.8148148,10.6006531 C94.8148148,11.5777011 95.1047542,12.334173 95.6846331,12.870069 C96.2645119,13.405965 97.0852857,13.673913 98.1469544,13.673913 Z M99.6228956,11.0869565 C99.2697344,11.0869565 98.9973812,11.0141634 98.8058361,10.8685771 C98.6142911,10.7229908 98.5185185,10.5214097 98.5185185,10.263834 C98.5185185,9.86067194 99.003367,9.53870224 99.973064,9.2979249 C100.5896,9.14673913 101.083427,9.00395257 101.454545,8.86956522 C101.466517,8.91996047 101.473999,8.97735507 101.476992,9.04174901 C101.479985,9.10614295 101.481481,9.20273386 101.481481,9.33152174 C101.481481,9.9418643 101.333333,10.3870224 101.037037,10.666996 C100.740741,10.9469697 100.26936,11.0869565 99.6228956,11.0869565 Z M112.769053,13.673913 C114.618654,13.673913 116.039298,13.2891874 117.030986,12.5197361 C118.022674,11.7502848 118.518519,10.6489709 118.518519,9.21579449 C118.518519,8.55206933 118.387651,7.97644928 118.125915,7.48893433 C117.864179,7.00141939 117.44831,6.56676752 116.878307,6.18497871 C116.418815,5.87367399 115.441668,5.52712722 113.946865,5.14533841 C113.615333,5.06310698 113.368138,5.0014334 113.20528,4.96031768 C113.152933,4.94857033 113.07732,4.92801248 112.978442,4.89864411 C111.850069,4.61083408 111.285883,4.25253997 111.285883,3.82376177 C111.285883,3.52420439 111.393486,3.30100478 111.608691,3.15416293 C111.823896,3.00732108 112.15252,2.93390016 112.594563,2.93390016 C113.094769,2.93390016 113.480102,3.02787894 113.750563,3.21583651 C114.021023,3.40379408 114.188243,3.68866726 114.252223,4.07045607 L114.252223,4.07045607 L118.169537,4.07045607 C118.047394,2.76062677 117.512289,1.7547601 116.564224,1.05285606 C115.616158,0.350952021 114.316203,0 112.664359,0 C110.983433,0 109.663121,0.367104624 108.703422,1.10131387 C107.743724,1.83552312 107.263875,2.84579505 107.263875,4.13212965 C107.263875,4.77236012 107.387472,5.34210649 107.634667,5.84136878 C107.881862,6.34063107 108.252655,6.76940927 108.747045,7.12770338 C109.002964,7.3039136 109.411563,7.49333959 109.972841,7.69598134 C110.534119,7.8986231 111.288791,8.12329113 112.236857,8.36998543 C112.359,8.3993538 112.536399,8.44340636 112.769053,8.5021431 C113.926508,8.7958268 114.505235,9.17761561 114.505235,9.64750952 C114.505235,9.94119322 114.367096,10.1717349 114.09082,10.3391346 C113.814543,10.5065343 113.435026,10.5902342 112.952268,10.5902342 C112.376449,10.5902342 111.943131,10.4874449 111.652313,10.2818663 C111.361496,10.0762877 111.160832,9.73855147 111.050321,9.26865755 L111.050321,9.26865755 L107.037037,9.26865755 C107.15918,10.666592 107.719004,11.7502848 108.716509,12.5197361 C109.714014,13.2891874 111.064862,13.673913 112.769053,13.673913 Z M126.09968,13.3043478 L127.48176,7.74421023 L128.855092,13.3043478 L132.563965,13.3043478 L135.555556,3.69565217 L131.960398,3.69565217 L130.543329,9.55633775 L129.073776,3.69565217 L125.880996,3.69565217 L124.411443,9.55633775 L123.003121,3.69565217 L119.259259,3.69565217 L122.390807,13.3043478 L126.09968,13.3043478 Z M139.998806,13.673913 C140.691199,13.673913 141.314352,13.5702867 141.868266,13.3630341 C142.42218,13.1557816 142.93859,12.8360204 143.417495,12.4037507 L143.417495,12.4037507 L143.651177,13.3275051 L147.407407,13.3275051 L147.407407,13.0521553 C147.274699,12.9633327 147.173725,12.8493438 147.104486,12.7101885 C147.035246,12.5710332 147.000627,12.412633 147.000627,12.2349879 L147.000627,12.2349879 L147.000627,6.85234185 C147.000627,6.12991852 146.911193,5.57477763 146.732325,5.1869192 C146.553456,4.79906077 146.24188,4.45117248 145.797595,4.14325434 C145.434088,3.89455122 144.924891,3.69618088 144.270003,3.54814331 C143.615115,3.40010574 142.901085,3.32608696 142.127914,3.32608696 C140.483481,3.32608696 139.237174,3.60291721 138.388993,4.15657772 C137.540812,4.71023823 137.108067,5.52888599 137.090757,6.61252099 L137.090757,6.61252099 L140.743128,6.61252099 C140.777748,6.28683834 140.898917,6.0455371 141.106634,5.88861728 C141.314352,5.73169746 141.611504,5.65323754 141.99809,5.65323754 C142.465455,5.65323754 142.807324,5.7168937 143.023697,5.84420601 C143.240069,5.97151832 143.348256,6.17432979 143.348256,6.45264042 C143.348256,6.95004665 142.756837,7.2638863 141.573999,7.39415936 C141.233573,7.42968837 140.962386,7.46225664 140.760438,7.49186415 C139.173705,7.69911675 138.094726,8.03072091 137.523503,8.48667662 C136.952279,8.94263233 136.666667,9.64729116 136.666667,10.6006531 C136.666667,11.5777011 136.956606,12.334173 137.536485,12.870069 C138.116364,13.405965 138.937138,13.673913 139.998806,13.673913 Z M141.474747,11.0869565 C141.121586,11.0869565 140.849233,11.0141634 140.657688,10.8685771 C140.466143,10.7229908 140.37037,10.5214097 140.37037,10.263834 C140.37037,9.86067194 140.855219,9.53870224 141.824916,9.2979249 C142.441452,9.14673913 142.935279,9.00395257 143.306397,8.86956522 C143.318369,8.91996047 143.325851,8.97735507 143.328844,9.04174901 C143.331837,9.10614295 143.333333,9.20273386 143.333333,9.33152174 C143.333333,9.9418643 143.185185,10.3870224 142.888889,10.666996 C142.592593,10.9469697 142.121212,11.0869565 141.474747,11.0869565 Z M152.993623,17 L152.993623,12.2599451 C153.325566,12.6769759 153.713821,12.9853438 154.158389,13.1850487 C154.602956,13.3847537 155.124581,13.4846061 155.723265,13.4846061 C157.027328,13.4846061 158.066133,13.0235227 158.83968,12.1013559 C159.613227,11.1791891 160,9.9427807 160,8.39213077 C160,6.87672288 159.611745,5.65353027 158.835234,4.72255295 C158.058724,3.79157562 157.045111,3.32608696 155.794395,3.32608696 C155.094943,3.32608696 154.493296,3.44502885 153.989453,3.68291265 C153.48561,3.92079645 153.044007,4.29524316 152.664643,4.8062528 L152.664643,4.8062528 L152.664643,3.58159177 L149.259259,3.58159177 L149.259259,17 L152.993623,17 Z M154.444444,10.7173913 C153.950617,10.7173913 153.580247,10.534835 153.333333,10.1697224 C153.08642,9.80460974 152.962963,9.25694081 152.962963,8.52671556 C152.962963,7.74899598 153.083645,7.18054828 153.32501,6.82137245 C153.566375,6.46219661 153.950617,6.2826087 154.477736,6.2826087 C154.966015,6.2826087 155.329449,6.46664921 155.56804,6.83473023 C155.806631,7.20281124 155.925926,7.76680636 155.925926,8.52671556 C155.925926,9.25100402 155.801082,9.79718876 155.551394,10.1652698 C155.301706,10.5333508 154.932723,10.7173913 154.444444,10.7173913 Z" id="HydraSwap" fill="#FFFFFF" fill-rule="nonzero"></path>
                <path d="M54.8637218,33.8611111 C55.3618421,33.8611111 55.8012218,33.775463 56.1818609,33.6041667 C56.5625,33.4328704 56.8796992,33.2083333 57.1334586,32.9305556 C57.387218,32.6527778 57.5798872,32.3402778 57.7114662,31.9930556 C57.8430451,31.6458333 57.9088346,31.2962963 57.9088346,30.9444444 C57.9088346,30.3981481 57.7866541,29.9467593 57.5422932,29.5902778 C57.2979323,29.2337963 57.0300752,28.9583333 56.7387218,28.7638889 C56.8045113,28.7268519 56.8914474,28.6574074 56.9995301,28.5555556 C57.1076128,28.4537037 57.2156955,28.3263889 57.3237782,28.1736111 C57.4318609,28.0208333 57.5234962,27.8356481 57.5986842,27.6180556 C57.6738722,27.400463 57.7114662,27.1527778 57.7114662,26.875 C57.7114662,26.5972222 57.6574248,26.2986111 57.5493421,25.9791667 C57.4412594,25.6597222 57.2650376,25.3634259 57.0206767,25.0902778 C56.7763158,24.8171296 56.4520677,24.5902778 56.0479323,24.4097222 C55.643797,24.2291667 55.1409774,24.1388889 54.5394737,24.1388889 L54.5394737,24.1388889 L50.3806391,24.1388889 C50.2772556,24.1388889 50.1879699,24.1759259 50.112782,24.25 C50.037594,24.3240741 50,24.412037 50,24.5138889 L50,24.5138889 L50,33.4861111 C50,33.587963 50.037594,33.6759259 50.112782,33.75 C50.1879699,33.8240741 50.2772556,33.8611111 50.3806391,33.8611111 L50.3806391,33.8611111 L54.8637218,33.8611111 Z M54.3984962,28.0138889 L51.9031955,28.0138889 L51.9031955,25.875 L54.3984962,25.875 C54.887218,25.875 55.2443609,25.9652778 55.4699248,26.1458333 C55.6954887,26.3263889 55.8082707,26.5925926 55.8082707,26.9444444 C55.8082707,27.2962963 55.6954887,27.5625 55.4699248,27.7430556 C55.2443609,27.9236111 54.887218,28.0138889 54.3984962,28.0138889 L54.3984962,28.0138889 Z M54.5112782,32.125 L51.9031955,32.125 L51.9031955,29.75 L54.5112782,29.75 C55.0093985,29.75 55.3829887,29.8611111 55.6320489,30.0833333 C55.881109,30.3055556 56.0056391,30.5925926 56.0056391,30.9444444 C56.0056391,31.2962963 55.8858083,31.5810185 55.6461466,31.7986111 C55.406485,32.0162037 55.0281955,32.125 54.5112782,32.125 L54.5112782,32.125 Z M62.6315789,34 C63.1578947,34 63.6207707,33.9305556 64.0202068,33.7916667 C64.4196429,33.6527778 64.7556391,33.4861111 65.0281955,33.2916667 C65.3007519,33.0972222 65.5051692,32.8981481 65.6414474,32.6944444 C65.7777256,32.4907407 65.8505639,32.3240741 65.8599624,32.1944444 C65.8693609,32.0925926 65.8341165,32.0046296 65.7542293,31.9305556 C65.6743421,31.8564815 65.5827068,31.8194444 65.4793233,31.8194444 L65.4793233,31.8194444 L64.3515038,31.8194444 C64.2387218,31.8194444 64.1494361,31.8333333 64.0836466,31.8611111 C64.0178571,31.8888889 63.9332707,31.9398148 63.8298872,32.0138889 C63.7077068,32.1064815 63.5526316,32.1828704 63.3646617,32.2430556 C63.1766917,32.3032407 62.9323308,32.3333333 62.6315789,32.3333333 C62.424812,32.3333333 62.2227444,32.3055556 62.0253759,32.25 C61.8280075,32.1944444 61.6541353,32.1111111 61.5037594,32 C61.3533835,31.8888889 61.2335526,31.7523148 61.1442669,31.5902778 C61.0549812,31.4282407 61.0103383,31.2407407 61.0103383,31.0277778 L61.0103383,31.0277778 L65.718985,31.0277778 C65.8223684,31.0277778 65.9116541,30.9907407 65.9868421,30.9166667 C66.0620301,30.8425926 66.0996241,30.7546296 66.0996241,30.6527778 L66.0996241,30.6527778 L66.0996241,30.0277778 C66.0996241,29.5555556 66.0173872,29.1041667 65.8529135,28.6736111 C65.6884398,28.2430556 65.4558271,27.8680556 65.1550752,27.5486111 C64.8543233,27.2291667 64.4901316,26.974537 64.0625,26.7847222 C63.6348684,26.5949074 63.1578947,26.5 62.6315789,26.5 C62.1052632,26.5 61.6282895,26.5972222 61.2006579,26.7916667 C60.7730263,26.9861111 60.4088346,27.2523148 60.1080827,27.5902778 C59.8073308,27.9282407 59.5770677,28.3263889 59.4172932,28.7847222 C59.2575188,29.2430556 59.1776316,29.7314815 59.1776316,30.25 C59.1776316,30.8055556 59.2575188,31.3125 59.4172932,31.7708333 C59.5770677,32.2291667 59.8073308,32.625 60.1080827,32.9583333 C60.4088346,33.2916667 60.7730263,33.5486111 61.2006579,33.7291667 C61.6282895,33.9097222 62.1052632,34 62.6315789,34 Z M64.1964286,29.4444444 L61.0103383,29.4444444 C61.0291353,29.3055556 61.0737782,29.1597222 61.1442669,29.0069444 C61.2147556,28.8541667 61.3157895,28.7152778 61.4473684,28.5902778 C61.5789474,28.4652778 61.7410714,28.3634259 61.9337406,28.2847222 C62.1264098,28.2060185 62.3590226,28.1666667 62.6315789,28.1666667 C62.9323308,28.1666667 63.1790414,28.2060185 63.3717105,28.2847222 C63.5643797,28.3634259 63.7194549,28.4652778 63.8369361,28.5902778 C63.9544173,28.7152778 64.0390038,28.8541667 64.0906955,29.0069444 C64.1423872,29.1597222 64.1776316,29.3055556 64.1964286,29.4444444 L64.1964286,29.4444444 Z M72.0629699,33.8611111 C72.1663534,33.8611111 72.2556391,33.8240741 72.3308271,33.75 C72.406015,33.6759259 72.443609,33.587963 72.443609,33.4861111 L72.443609,33.4861111 L72.443609,32.5694444 C72.443609,32.4675926 72.406015,32.3796296 72.3308271,32.3055556 C72.2556391,32.2314815 72.1663534,32.1944444 72.0629699,32.1944444 L72.0629699,32.1944444 L71.2030075,32.1944444 C70.7800752,32.1944444 70.4910714,32.1087963 70.3359962,31.9375 C70.1809211,31.7662037 70.1033835,31.537037 70.1033835,31.25 L70.1033835,31.25 L70.1033835,28.3055556 L71.9219925,28.3055556 C72.0253759,28.3055556 72.1146617,28.2685185 72.1898496,28.1944444 C72.2650376,28.1203704 72.3026316,28.0324074 72.3026316,27.9305556 L72.3026316,27.9305556 L72.3026316,27.0138889 C72.3026316,26.912037 72.2650376,26.8240741 72.1898496,26.75 C72.1146617,26.6759259 72.0253759,26.6388889 71.9219925,26.6388889 L71.9219925,26.6388889 L70.1033835,26.6388889 L70.1033835,24.375 C70.1033835,24.2731481 70.0657895,24.1851852 69.9906015,24.1111111 C69.9154135,24.037037 69.8261278,24 69.7227444,24 L69.7227444,24 L68.6513158,24 C68.5479323,24 68.4586466,24.037037 68.3834586,24.1111111 C68.3082707,24.1851852 68.2706767,24.2731481 68.2706767,24.375 L68.2706767,24.375 L68.2706767,26.6388889 L67.3402256,26.6388889 C67.2368421,26.6388889 67.1475564,26.6759259 67.0723684,26.75 C66.9971805,26.8240741 66.9595865,26.912037 66.9595865,27.0138889 L66.9595865,27.0138889 L66.9595865,27.9305556 C66.9595865,28.0324074 66.9971805,28.1203704 67.0723684,28.1944444 C67.1475564,28.2685185 67.2368421,28.3055556 67.3402256,28.3055556 L67.3402256,28.3055556 L68.2706767,28.3055556 L68.2706767,31.2916667 C68.2706767,32.162037 68.5079887,32.8078704 68.9826128,33.2291667 C69.4572368,33.650463 70.1362782,33.8611111 71.0197368,33.8611111 L71.0197368,33.8611111 L72.0629699,33.8611111 Z M75.8975564,34 C76.4708647,34 76.9431391,33.9050926 77.3143797,33.7152778 C77.6856203,33.525463 77.9699248,33.2962963 78.1672932,33.0277778 L78.1672932,33.0277778 L78.1672932,33.4861111 C78.1672932,33.587963 78.2048872,33.6759259 78.2800752,33.75 C78.3552632,33.8240741 78.4445489,33.8611111 78.5479323,33.8611111 L78.5479323,33.8611111 L79.6193609,33.8611111 C79.7227444,33.8611111 79.8120301,33.8240741 79.887218,33.75 C79.962406,33.6759259 80,33.587963 80,33.4861111 L80,33.4861111 L80,29.4027778 C80,28.9305556 79.924812,28.5115741 79.7744361,28.1458333 C79.6240602,27.7800926 79.4102444,27.4768519 79.1329887,27.2361111 C78.8557331,26.9953704 78.5244361,26.8125 78.1390977,26.6875 C77.7537594,26.5625 77.3214286,26.5 76.8421053,26.5 C76.362782,26.5 75.9421992,26.5625 75.5803571,26.6875 C75.218515,26.8125 74.9130639,26.9722222 74.6640038,27.1666667 C74.4149436,27.3611111 74.2222744,27.5694444 74.0859962,27.7916667 C73.949718,28.0138889 73.862782,28.2222222 73.825188,28.4166667 C73.806391,28.5092593 73.8298872,28.5833333 73.8956767,28.6388889 C73.9614662,28.6944444 74.0413534,28.7222222 74.1353383,28.7222222 L74.1353383,28.7222222 L75.4464286,28.7222222 C75.531015,28.7222222 75.6085526,28.7083333 75.6790414,28.6805556 C75.7495301,28.6527778 75.8270677,28.6018519 75.9116541,28.5277778 C76.0338346,28.4166667 76.1607143,28.3287037 76.2922932,28.2638889 C76.4238722,28.1990741 76.6071429,28.1666667 76.8421053,28.1666667 C77.2180451,28.1666667 77.5328947,28.2453704 77.7866541,28.4027778 C78.0404135,28.5601852 78.1672932,28.8287037 78.1672932,29.2083333 L78.1672932,29.2083333 L75.8693609,29.5972222 C75.0986842,29.7268519 74.4830827,29.9722222 74.0225564,30.3333333 C73.5620301,30.6944444 73.3317669,31.1944444 73.3317669,31.8333333 C73.3317669,32.1481481 73.3905075,32.4375 73.5079887,32.7013889 C73.6254699,32.9652778 73.7922932,33.1944444 74.0084586,33.3888889 C74.2246241,33.5833333 74.4924812,33.7337963 74.8120301,33.8402778 C75.1315789,33.9467593 75.4934211,34 75.8975564,34 Z M76.1795113,32.3333333 C75.9069549,32.3333333 75.6696429,32.287037 75.4675752,32.1944444 C75.2655075,32.1018519 75.1644737,31.9583333 75.1644737,31.7638889 C75.1644737,31.5509259 75.2490602,31.3819444 75.4182331,31.2569444 C75.587406,31.1319444 75.8646617,31.037037 76.25,30.9722222 L76.25,30.9722222 L78.1672932,30.6388889 L78.1672932,30.7777778 C78.1672932,30.9722222 78.125,31.162037 78.0404135,31.3472222 C77.9558271,31.5324074 77.8289474,31.6990741 77.6597744,31.8472222 C77.4906015,31.9953704 77.281485,32.1134259 77.0324248,32.2013889 C76.7833647,32.2893519 76.4990602,32.3333333 76.1795113,32.3333333 Z" id="Beta" fill="#80878E" fill-rule="nonzero"></path>
                <rect id="border" fill="#0B3835" x="88" y="22" width="66" height="14" rx="2"></rect>
                <path d="M99.998,34 C100.67,34 101.255667,33.909 101.755,33.727 C102.254333,33.545 102.672,33.286 103.008,32.95 C103.344,32.614 103.603,32.208 103.785,31.732 C103.967,31.256 104.076667,30.724 104.114,30.136 C104.151333,29.4453333 104.151333,28.7546667 104.114,28.064 C104.076667,27.476 103.967,26.944 103.785,26.468 C103.603,25.992 103.341667,25.586 103.001,25.25 C102.660333,24.914 102.235667,24.655 101.727,24.473 C101.218333,24.291 100.618667,24.2 99.928,24.2 L99.928,24.2 L96.47,24.2 C96.3673333,24.2 96.2786667,24.2373333 96.204,24.312 C96.1293333,24.3866667 96.092,24.4753333 96.092,24.578 L96.092,24.578 L96.092,33.622 C96.092,33.7246667 96.1293333,33.8133333 96.204,33.888 C96.2786667,33.9626667 96.3673333,34 96.47,34 L96.47,34 L99.998,34 Z M99.928,32.25 L97.982,32.25 L97.982,25.95 L99.858,25.95 C100.259333,25.95 100.604667,26.0036667 100.894,26.111 C101.183333,26.2183333 101.423667,26.3676667 101.615,26.559 C101.806333,26.7503333 101.951,26.9743333 102.049,27.231 C102.147,27.4876667 102.205333,27.7653333 102.224,28.064 C102.261333,28.7546667 102.261333,29.4453333 102.224,30.136 C102.205333,30.4346667 102.147,30.7146667 102.049,30.976 C101.951,31.2373333 101.808667,31.4613333 101.622,31.648 C101.435333,31.8346667 101.202,31.9816667 100.922,32.089 C100.642,32.1963333 100.310667,32.25 99.928,32.25 L99.928,32.25 Z M108.888,34.14 C109.410667,34.14 109.870333,34.07 110.267,33.93 C110.663667,33.79 110.997333,33.622 111.268,33.426 C111.538667,33.23 111.741667,33.0293333 111.877,32.824 C112.012333,32.6186667 112.084667,32.4506667 112.094,32.32 C112.103333,32.2173333 112.068333,32.1286667 111.989,32.054 C111.909667,31.9793333 111.818667,31.942 111.716,31.942 L111.716,31.942 L110.596,31.942 C110.484,31.942 110.395333,31.956 110.33,31.984 C110.264667,32.012 110.180667,32.0633333 110.078,32.138 C109.956667,32.2313333 109.802667,32.3083333 109.616,32.369 C109.429333,32.4296667 109.186667,32.46 108.888,32.46 C108.682667,32.46 108.482,32.432 108.286,32.376 C108.09,32.32 107.917333,32.236 107.768,32.124 C107.618667,32.012 107.499667,31.8743333 107.411,31.711 C107.322333,31.5476667 107.278,31.3586667 107.278,31.144 L107.278,31.144 L111.954,31.144 C112.056667,31.144 112.145333,31.1066667 112.22,31.032 C112.294667,30.9573333 112.332,30.8686667 112.332,30.766 L112.332,30.766 L112.332,30.136 C112.332,29.66 112.250333,29.205 112.087,28.771 C111.923667,28.337 111.692667,27.959 111.394,27.637 C111.095333,27.315 110.733667,27.0583333 110.309,26.867 C109.884333,26.6756667 109.410667,26.58 108.888,26.58 C108.365333,26.58 107.891667,26.678 107.467,26.874 C107.042333,27.07 106.680667,27.3383333 106.382,27.679 C106.083333,28.0196667 105.854667,28.421 105.696,28.883 C105.537333,29.345 105.458,29.8373333 105.458,30.36 C105.458,30.92 105.537333,31.431 105.696,31.893 C105.854667,32.355 106.083333,32.754 106.382,33.09 C106.680667,33.426 107.042333,33.685 107.467,33.867 C107.891667,34.049 108.365333,34.14 108.888,34.14 Z M110.442,29.548 L107.278,29.548 C107.296667,29.408 107.341,29.261 107.411,29.107 C107.481,28.953 107.581333,28.813 107.712,28.687 C107.842667,28.561 108.003667,28.4583333 108.195,28.379 C108.386333,28.2996667 108.617333,28.26 108.888,28.26 C109.186667,28.26 109.431667,28.2996667 109.623,28.379 C109.814333,28.4583333 109.968333,28.561 110.085,28.687 C110.201667,28.813 110.285667,28.953 110.337,29.107 C110.388333,29.261 110.423333,29.408 110.442,29.548 L110.442,29.548 Z M117.47,34 C117.61,34 117.712667,33.9626667 117.778,33.888 C117.843333,33.8133333 117.894667,33.734 117.932,33.65 L117.932,33.65 L120.746,27.196 C120.755333,27.168 120.76,27.1353333 120.76,27.098 C120.76,26.9953333 120.722667,26.9066667 120.648,26.832 C120.573333,26.7573333 120.484667,26.72 120.382,26.72 L120.382,26.72 L119.332,26.72 C119.192,26.72 119.089333,26.7573333 119.024,26.832 C118.958667,26.9066667 118.907333,26.9813333 118.87,27.056 L118.87,27.056 L117.008,31.396 L115.146,27.056 C115.108667,26.9813333 115.057333,26.9066667 114.992,26.832 C114.926667,26.7573333 114.824,26.72 114.684,26.72 L114.684,26.72 L113.634,26.72 C113.531333,26.72 113.442667,26.7573333 113.368,26.832 C113.293333,26.9066667 113.256,26.9953333 113.256,27.098 C113.256,27.1353333 113.260667,27.168 113.27,27.196 L113.27,27.196 L116.084,33.65 C116.121333,33.734 116.172667,33.8133333 116.238,33.888 C116.303333,33.9626667 116.406,34 116.546,34 L116.546,34 L117.47,34 Z M126.92,34 C127.022667,34 127.111333,33.9626667 127.186,33.888 C127.260667,33.8133333 127.298,33.7246667 127.298,33.622 L127.298,33.622 L127.298,27.854 L131.218,33.678 C131.255333,33.7246667 131.316,33.79 131.4,33.874 C131.484,33.958 131.605333,34 131.764,34 L131.764,34 L132.744,34 C132.846667,34 132.935333,33.9626667 133.01,33.888 C133.084667,33.8133333 133.122,33.7246667 133.122,33.622 L133.122,33.622 L133.122,24.578 C133.122,24.4753333 133.084667,24.3866667 133.01,24.312 C132.935333,24.2373333 132.846667,24.2 132.744,24.2 L132.744,24.2 L131.61,24.2 C131.507333,24.2 131.418667,24.2373333 131.344,24.312 C131.269333,24.3866667 131.232,24.4753333 131.232,24.578 L131.232,24.578 L131.232,30.346 L127.312,24.522 C127.274667,24.4753333 127.214,24.41 127.13,24.326 C127.046,24.242 126.924667,24.2 126.766,24.2 L126.766,24.2 L125.786,24.2 C125.683333,24.2 125.594667,24.2373333 125.52,24.312 C125.445333,24.3866667 125.408,24.4753333 125.408,24.578 L125.408,24.578 L125.408,33.622 C125.408,33.7246667 125.445333,33.8133333 125.52,33.888 C125.594667,33.9626667 125.683333,34 125.786,34 L125.786,34 L126.92,34 Z M138.246,34.14 C138.768667,34.14 139.228333,34.07 139.625,33.93 C140.021667,33.79 140.355333,33.622 140.626,33.426 C140.896667,33.23 141.099667,33.0293333 141.235,32.824 C141.370333,32.6186667 141.442667,32.4506667 141.452,32.32 C141.461333,32.2173333 141.426333,32.1286667 141.347,32.054 C141.267667,31.9793333 141.176667,31.942 141.074,31.942 L141.074,31.942 L139.954,31.942 C139.842,31.942 139.753333,31.956 139.688,31.984 C139.622667,32.012 139.538667,32.0633333 139.436,32.138 C139.314667,32.2313333 139.160667,32.3083333 138.974,32.369 C138.787333,32.4296667 138.544667,32.46 138.246,32.46 C138.040667,32.46 137.84,32.432 137.644,32.376 C137.448,32.32 137.275333,32.236 137.126,32.124 C136.976667,32.012 136.857667,31.8743333 136.769,31.711 C136.680333,31.5476667 136.636,31.3586667 136.636,31.144 L136.636,31.144 L141.312,31.144 C141.414667,31.144 141.503333,31.1066667 141.578,31.032 C141.652667,30.9573333 141.69,30.8686667 141.69,30.766 L141.69,30.766 L141.69,30.136 C141.69,29.66 141.608333,29.205 141.445,28.771 C141.281667,28.337 141.050667,27.959 140.752,27.637 C140.453333,27.315 140.091667,27.0583333 139.667,26.867 C139.242333,26.6756667 138.768667,26.58 138.246,26.58 C137.723333,26.58 137.249667,26.678 136.825,26.874 C136.400333,27.07 136.038667,27.3383333 135.74,27.679 C135.441333,28.0196667 135.212667,28.421 135.054,28.883 C134.895333,29.345 134.816,29.8373333 134.816,30.36 C134.816,30.92 134.895333,31.431 135.054,31.893 C135.212667,32.355 135.441333,32.754 135.74,33.09 C136.038667,33.426 136.400333,33.685 136.825,33.867 C137.249667,34.049 137.723333,34.14 138.246,34.14 Z M139.8,29.548 L136.636,29.548 C136.654667,29.408 136.699,29.261 136.769,29.107 C136.839,28.953 136.939333,28.813 137.07,28.687 C137.200667,28.561 137.361667,28.4583333 137.553,28.379 C137.744333,28.2996667 137.975333,28.26 138.246,28.26 C138.544667,28.26 138.789667,28.2996667 138.981,28.379 C139.172333,28.4583333 139.326333,28.561 139.443,28.687 C139.559667,28.813 139.643667,28.953 139.695,29.107 C139.746333,29.261 139.781333,29.408 139.8,29.548 L139.8,29.548 Z M147.612,34 C147.714667,34 147.803333,33.9626667 147.878,33.888 C147.952667,33.8133333 147.99,33.7246667 147.99,33.622 L147.99,33.622 L147.99,32.698 C147.99,32.5953333 147.952667,32.5066667 147.878,32.432 C147.803333,32.3573333 147.714667,32.32 147.612,32.32 L147.612,32.32 L146.758,32.32 C146.338,32.32 146.051,32.2336667 145.897,32.061 C145.743,31.8883333 145.666,31.6573333 145.666,31.368 L145.666,31.368 L145.666,28.4 L147.472,28.4 C147.574667,28.4 147.663333,28.3626667 147.738,28.288 C147.812667,28.2133333 147.85,28.1246667 147.85,28.022 L147.85,28.022 L147.85,27.098 C147.85,26.9953333 147.812667,26.9066667 147.738,26.832 C147.663333,26.7573333 147.574667,26.72 147.472,26.72 L147.472,26.72 L145.666,26.72 L145.666,24.438 C145.666,24.3353333 145.628667,24.2466667 145.554,24.172 C145.479333,24.0973333 145.390667,24.06 145.288,24.06 L145.288,24.06 L144.224,24.06 C144.121333,24.06 144.032667,24.0973333 143.958,24.172 C143.883333,24.2466667 143.846,24.3353333 143.846,24.438 L143.846,24.438 L143.846,26.72 L142.922,26.72 C142.819333,26.72 142.730667,26.7573333 142.656,26.832 C142.581333,26.9066667 142.544,26.9953333 142.544,27.098 L142.544,27.098 L142.544,28.022 C142.544,28.1246667 142.581333,28.2133333 142.656,28.288 C142.730667,28.3626667 142.819333,28.4 142.922,28.4 L142.922,28.4 L143.846,28.4 L143.846,31.41 C143.846,32.2873333 144.081667,32.9383333 144.553,33.363 C145.024333,33.7876667 145.698667,34 146.576,34 L146.576,34 L147.612,34 Z" id="DevNet" fill="#A0AFAE" fill-rule="nonzero"></path>
                <g id="LOGO_HYDRASWAP备份-2">
                    <path d="M18,3.70230162e-14 C27.9411255,3.70230162e-14 36,8.09814783 36,18.0877194 C36,25.3576472 31.7318384,31.6258342 25.5761942,34.5 L25.5759879,34.5 C24.1265169,33.4869076 23.0676977,32.401493 22.3995586,31.2433947 C21.3227578,29.3769682 20.7362109,27.9002401 20.6367188,25.6353891 C20.6172273,25.1917717 20.6591013,24.7832926 20.7623352,24.4099684 C21.0701528,23.9749789 21.4165406,23.562805 21.7997227,23.1777556 C22.308928,22.6660688 22.8657985,22.2196749 23.4602993,21.8428068 C23.7312745,21.7199351 24.0269469,21.6558082 24.328125,21.6558082 C25.4796033,21.6558082 26.418553,22.5877629 26.4372168,23.7404656 L26.4375,23.7754629 L26.4374648,24.5556689 L25.734375,24.5556865 L29.25,28.0884442 L29.25,24.5556865 L28.5468398,24.5556689 L28.546875,23.7754629 C28.546875,22.4589184 27.9465445,21.2806146 27.0064601,20.50252 C27.499726,20.4240101 28.0026635,20.3840155 28.5117188,20.3840155 C29.3026392,20.3840155 30.0814868,20.4806663 30.8376045,20.6720703 L30.8891227,20.6852674 L30.5507777,21.6194067 L35.0567895,19.5079481 L31.7531918,18.2996743 L31.6133304,18.685778 C30.6077619,18.4058387 29.5682037,18.2643609 28.5117188,18.2643609 C26.946,18.2643609 25.4265117,18.5727353 23.9955469,19.1809348 C23.4603312,19.4084084 22.9462812,19.6738815 22.4553997,19.9760256 C22.3628508,20.0221153 22.2718549,20.0717093 22.1826115,20.1247517 L22.1381367,20.15156 L21.4487752,20.5727963 C23.0129044,17.6708163 25.5190739,15.3362272 28.5713239,14.0051142 L28.663983,13.965085 L28.8409395,14.9734169 L31.6926738,10.8808937 L28.2304863,11.4943571 L28.2892147,11.8293561 C27.8667401,11.9957123 27.4527521,12.1786617 27.0481184,12.3775219 C26.9599941,11.4538777 26.5744102,10.5895861 25.9341574,9.89965261 C25.37476,9.29687414 24.6696825,8.87966161 23.8930753,8.68200787 L23.8627818,8.67441824 L24.2638207,7.56722705 L19.757809,9.67868568 L23.0614066,10.8869595 L23.1326107,10.6902766 C23.6144941,10.7551303 24.0555157,10.9832429 24.391466,11.3452924 C24.7757238,11.7593669 24.9765363,12.2989957 24.9568488,12.8648728 C24.9459264,13.1787492 24.8665286,13.4842747 24.7252634,13.7600069 C22.2683667,15.5036104 20.3011902,17.8865276 19.0568399,20.6520258 L19.0193539,20.7359456 L19.0194961,5.82905021 L19.7226562,5.82905021 L17.9648438,2.29629251 L16.2070312,5.82905021 L16.9101211,5.82905021 L16.9102519,20.7172004 C15.6681617,17.9252634 13.6906805,15.5195296 11.2160181,13.7625877 C11.0740812,13.4861128 10.9942323,13.1797053 10.9832766,12.8648728 C10.9456171,11.7805767 11.7293056,10.8553601 12.7716537,10.6955682 L12.8033186,10.6909609 L12.874282,10.8869312 L16.1779148,9.67865742 L11.6719031,7.56719879 L12.0736134,8.6762972 C10.3568814,9.10464641 9.06510276,10.5880923 8.89242338,12.3786082 C8.51991515,12.1956511 8.13957059,12.0260406 7.75198316,11.8704302 L7.66881807,11.8372996 L7.72893633,11.4943571 L4.26671367,10.8808937 L7.11844805,14.9734169 L7.29393022,13.973653 C10.350835,15.2871232 12.8662073,17.604911 14.4456289,20.492629 L14.4932033,20.5803096 L13.7915508,20.15156 C13.7040417,20.0980693 13.6147927,20.0479295 13.5240051,20.0012081 C13.0208275,19.6886302 12.4931239,19.4147146 11.9430703,19.1809348 C10.5121055,18.5727353 8.99265234,18.2643609 7.42689844,18.2643609 C6.40002429,18.2643609 5.38914131,18.3980192 4.40991762,18.6625662 L4.35554898,18.6773979 L4.21766016,18.2966573 L0.9140625,19.5049311 L5.42007422,21.6163544 L5.07995635,20.6774265 C5.84266789,20.4824695 6.62863412,20.3840155 7.42689844,20.3840155 C7.93338822,20.3840155 8.43382167,20.423608 8.92464364,20.5012359 C7.99317886,21.2716025 7.39486564,22.434694 7.38299253,23.7359877 L7.3828125,23.7754629 L7.38277734,24.5556689 L6.99609375,24.5556865 L6.99609375,28.0884442 L10.5117188,24.5556865 L9.49215234,24.5556689 L9.4921875,23.7754629 C9.4921875,22.6066853 10.4384531,21.6558082 11.6015625,21.6558082 C11.915267,21.6558082 12.2229982,21.7253802 12.5030591,21.858486 C13.0882577,22.2320709 13.6367522,22.6731661 14.1388945,23.1777556 C14.4933132,23.5339014 14.8162542,23.9132525 15.1063486,24.3123436 C15.3753628,25.2654021 15.3011951,26.4911855 14.8838457,27.9896985 L14.864873,28.0572231 L14.864873,28.0572231 L14.821977,28.2079485 L14.7859922,28.3325075 L14.7623289,28.4133171 L14.7388773,28.4924395 L14.7155949,28.5699577 L14.6924393,28.6459543 L14.669368,28.7205124 L14.6463386,28.7937147 L14.6233086,28.865644 L14.6117801,28.9011573 L14.5886697,28.9713326 C14.5758048,29.0100151 14.5628906,29.0482042 14.5498942,29.0859638 L14.5303338,29.1422891 L14.5066642,29.2090965 L14.4827392,29.2751281 C14.3190854,29.7216927 14.1347801,30.1201907 13.8697555,30.587845 L13.84616,30.629291 L13.8058782,30.699214 L13.785278,30.734594 L13.785278,30.734594 L13.7643647,30.7702667 L13.721577,30.8425318 C13.7070974,30.8668314 13.6923983,30.891347 13.6774727,30.9160922 L13.6320094,30.9910308 L13.5732044,31.0867682 L13.5732044,31.0867682 L13.5611734,31.1062039 L13.5121267,31.1849503 L13.4486933,31.2857388 L13.4486933,31.2857388 L13.4357166,31.3062235 L13.3693469,31.4103534 L13.3693469,31.4103534 L13.3004391,31.5174456 L13.2434297,31.6053611 C12.7872735,32.3065664 12.1248526,33.0337049 11.2561921,33.7867767 L11.217735,33.8200172 L11.1432777,33.8838224 C10.987828,34.0162872 10.8260348,34.1495497 10.6578981,34.2836099 L10.5945495,34.3339199 L10.5122274,34.398714 C10.474505,34.4282564 10.4364767,34.4578374 10.3981425,34.4874568 L10.3978462,34.4878537 C4.25616501,31.6082018 0,25.3474231 0,18.0877194 C0,8.09814783 8.0588745,3.70230162e-14 18,3.70230162e-14 Z" id="路径" fill="url(#linearGradient-1)"></path>
                    <rect id="矩形" x="0" y="0" width="36" height="36"></rect>
                </g>
            </g>
        </g>
    </g>
</svg>