<?xml version="1.0" encoding="UTF-8"?>
<svg width="63px" height="60px" viewBox="0 0 63 60" version="1.1" xmlns="http://www.w3.org/2000/svg" xmlns:xlink="http://www.w3.org/1999/xlink">
    <title>LOGO_HYDRASWAP备份 3</title>
    <defs>
        <linearGradient x1="87.1452332%" y1="20.0519919%" x2="14.981842%" y2="84.0505229%" id="linearGradient-1">
            <stop stop-color="#2FE4C9" offset="0%"></stop>
            <stop stop-color="#39B5F1" offset="20.8031573%"></stop>
            <stop stop-color="#6C83E1" offset="58.4753118%"></stop>
            <stop stop-color="#CF489D" offset="100%"></stop>
        </linearGradient>
    </defs>
    <g id="Hydraswap" stroke="none" stroke-width="1" fill="none" fill-rule="evenodd">
        <g id="HydraSwap-menu" transform="translate(-16.000000, -40.000000)">
            <g id="LOGO_HYDRASWAP备份-3" transform="translate(16.000000, 40.000000)">
                <path d="M32,0 C41.9411255,0 50,8.09814783 50,18.0877194 C50,25.3576472 45.7318384,31.6258342 39.5761942,34.5 L39.5759879,34.5 C38.1265169,33.4869076 37.0676977,32.401493 36.3995586,31.2433947 C35.3227578,29.3769682 34.7362109,27.9002401 34.6367188,25.6353891 C34.6172273,25.1917717 34.6591013,24.7832926 34.7623352,24.4099684 C35.0701528,23.9749789 35.4165406,23.562805 35.7997227,23.1777556 C36.308928,22.6660688 36.8657985,22.2196749 37.4602993,21.8428068 C37.7312745,21.7199351 38.0269469,21.6558082 38.328125,21.6558082 C39.4796033,21.6558082 40.418553,22.5877629 40.4372168,23.7404656 L40.4375,23.7754629 L40.4374648,24.5556689 L39.734375,24.5556865 L43.25,28.0884442 L43.25,24.5556865 L42.5468398,24.5556689 L42.546875,23.7754629 C42.546875,22.4589184 41.9465445,21.2806146 41.0064601,20.50252 C41.499726,20.4240101 42.0026635,20.3840155 42.5117188,20.3840155 C43.3026392,20.3840155 44.0814868,20.4806663 44.8376045,20.6720703 L44.8891227,20.6852674 L44.5507777,21.6194067 L49.0567895,19.5079481 L45.7531918,18.2996743 L45.6133304,18.685778 C44.6077619,18.4058387 43.5682037,18.2643609 42.5117188,18.2643609 C40.946,18.2643609 39.4265117,18.5727353 37.9955469,19.1809348 C37.4603312,19.4084084 36.9462812,19.6738815 36.4553997,19.9760256 C36.3628508,20.0221153 36.2718549,20.0717093 36.1826115,20.1247517 L36.1381367,20.15156 L35.4487752,20.5727963 C37.0129044,17.6708163 39.5190739,15.3362272 42.5713239,14.0051142 L42.663983,13.965085 L42.8409395,14.9734169 L45.6926738,10.8808937 L42.2304863,11.4943571 L42.2892147,11.8293561 C41.8667401,11.9957123 41.4527521,12.1786617 41.0481184,12.3775219 C40.9599941,11.4538777 40.5744102,10.5895861 39.9341574,9.89965261 C39.37476,9.29687414 38.6696825,8.87966161 37.8930753,8.68200787 L37.8627818,8.67441824 L38.2638207,7.56722705 L33.757809,9.67868568 L37.0614066,10.8869595 L37.1326107,10.6902766 C37.6144941,10.7551303 38.0555157,10.9832429 38.391466,11.3452924 C38.7757238,11.7593669 38.9765363,12.2989957 38.9568488,12.8648728 C38.9459264,13.1787492 38.8665286,13.4842747 38.7252634,13.7600069 C36.2683667,15.5036104 34.3011902,17.8865276 33.0568399,20.6520258 L33.0193539,20.7359456 L33.0194961,5.82905021 L33.7226562,5.82905021 L31.9648438,2.29629251 L30.2070312,5.82905021 L30.9101211,5.82905021 L30.9102519,20.7172004 C29.6681617,17.9252634 27.6906805,15.5195296 25.2160181,13.7625877 C25.0740812,13.4861128 24.9942323,13.1797053 24.9832766,12.8648728 C24.9456171,11.7805767 25.7293056,10.8553601 26.7716537,10.6955682 L26.8033186,10.6909609 L26.874282,10.8869312 L30.1779148,9.67865742 L25.6719031,7.56719879 L26.0736134,8.6762972 C24.3568814,9.10464641 23.0651028,10.5880923 22.8924234,12.3786082 C22.5199151,12.1956511 22.1395706,12.0260406 21.7519832,11.8704302 L21.6688181,11.8372996 L21.7289363,11.4943571 L18.2667137,10.8808937 L21.118448,14.9734169 L21.2939302,13.973653 C24.350835,15.2871232 26.8662073,17.604911 28.4456289,20.492629 L28.4932033,20.5803096 L27.7915508,20.15156 C27.7040417,20.0980693 27.6147927,20.0479295 27.5240051,20.0012081 C27.0208275,19.6886302 26.4931239,19.4147146 25.9430703,19.1809348 C24.5121055,18.5727353 22.9926523,18.2643609 21.4268984,18.2643609 C20.4000243,18.2643609 19.3891413,18.3980192 18.4099176,18.6625662 L18.355549,18.6773979 L18.2176602,18.2966573 L14.9140625,19.5049311 L19.4200742,21.6163544 L19.0799563,20.6774265 C19.8426679,20.4824695 20.6286341,20.3840155 21.4268984,20.3840155 C21.9333882,20.3840155 22.4338217,20.423608 22.9246436,20.5012359 C21.9931789,21.2716025 21.3948656,22.434694 21.3829925,23.7359877 L21.3828125,23.7754629 L21.3827773,24.5556689 L20.9960938,24.5556865 L20.9960938,28.0884442 L24.5117188,24.5556865 L23.4921523,24.5556689 L23.4921875,23.7754629 C23.4921875,22.6066853 24.4384531,21.6558082 25.6015625,21.6558082 C25.915267,21.6558082 26.2229982,21.7253802 26.5030591,21.858486 C27.0882577,22.2320709 27.6367522,22.6731661 28.1388945,23.1777556 C28.4933132,23.5339014 28.8162542,23.9132525 29.1063486,24.3123436 C29.3753628,25.2654021 29.3011951,26.4911855 28.8838457,27.9896985 L28.864873,28.0572231 L28.864873,28.0572231 L28.821977,28.2079485 L28.7859922,28.3325075 L28.7623289,28.4133171 L28.7388773,28.4924395 L28.7155949,28.5699577 L28.6924393,28.6459543 L28.669368,28.7205124 L28.6463386,28.7937147 L28.6233086,28.865644 L28.6117801,28.9011573 L28.5886697,28.9713326 C28.5758048,29.0100151 28.5628906,29.0482042 28.5498942,29.0859638 L28.5303338,29.1422891 L28.5066642,29.2090965 L28.4827392,29.2751281 C28.3190854,29.7216927 28.1347801,30.1201907 27.8697555,30.587845 L27.84616,30.629291 L27.8058782,30.699214 L27.785278,30.734594 L27.785278,30.734594 L27.7643647,30.7702667 L27.721577,30.8425318 C27.7070974,30.8668314 27.6923983,30.891347 27.6774727,30.9160922 L27.6320094,30.9910308 L27.5732044,31.0867682 L27.5732044,31.0867682 L27.5611734,31.1062039 L27.5121267,31.1849503 L27.4486933,31.2857388 L27.4486933,31.2857388 L27.4357166,31.3062235 L27.3693469,31.4103534 L27.3693469,31.4103534 L27.3004391,31.5174456 L27.2434297,31.6053611 C26.7872735,32.3065664 26.1248526,33.0337049 25.2561921,33.7867767 L25.217735,33.8200172 L25.1432777,33.8838224 C24.987828,34.0162872 24.8260348,34.1495497 24.6578981,34.2836099 L24.5945495,34.3339199 L24.5122274,34.398714 C24.474505,34.4282564 24.4364767,34.4578374 24.3981425,34.4874568 L24.3978462,34.4878537 C18.256165,31.6082018 14,25.3474231 14,18.0877194 C14,8.09814783 22.0588745,0 32,0 Z" id="路径" fill="url(#linearGradient-1)"></path>
                <rect id="矩形" x="14" y="0" width="36" height="36"></rect>
                <g id="编组-16" transform="translate(0.000000, 46.000000)">
                    <rect id="border备份" fill="#0B3835" x="0" y="0" width="63" height="14" rx="2"></rect>
                    <path d="M13.284,11 C13.86,11 14.362,10.922 14.79,10.766 C15.218,10.61 15.576,10.388 15.864,10.1 C16.152,9.812 16.374,9.464 16.53,9.056 C16.686,8.648 16.78,8.192 16.812,7.688 C16.844,7.096 16.844,6.504 16.812,5.912 C16.78,5.408 16.686,4.952 16.53,4.544 C16.374,4.136 16.15,3.788 15.858,3.5 C15.566,3.212 15.202,2.99 14.766,2.834 C14.33,2.678 13.816,2.6 13.224,2.6 L13.224,2.6 L10.26,2.6 C10.172,2.6 10.096,2.632 10.032,2.696 C9.968,2.76 9.936,2.836 9.936,2.924 L9.936,2.924 L9.936,10.676 C9.936,10.764 9.968,10.84 10.032,10.904 C10.096,10.968 10.172,11 10.26,11 L10.26,11 L13.284,11 Z M13.224,9.5 L11.556,9.5 L11.556,4.1 L13.164,4.1 C13.508,4.1 13.804,4.146 14.052,4.238 C14.3,4.33 14.506,4.458 14.67,4.622 C14.834,4.786 14.958,4.978 15.042,5.198 C15.126,5.418 15.176,5.656 15.192,5.912 C15.224,6.504 15.224,7.096 15.192,7.688 C15.176,7.944 15.126,8.184 15.042,8.408 C14.958,8.632 14.836,8.824 14.676,8.984 C14.516,9.144 14.316,9.27 14.076,9.362 C13.836,9.454 13.552,9.5 13.224,9.5 L13.224,9.5 Z M20.904,11.12 C21.352,11.12 21.746,11.06 22.086,10.94 C22.426,10.82 22.712,10.676 22.944,10.508 C23.176,10.34 23.35,10.168 23.466,9.992 C23.582,9.816 23.644,9.672 23.652,9.56 C23.66,9.472 23.63,9.396 23.562,9.332 C23.494,9.268 23.416,9.236 23.328,9.236 L23.328,9.236 L22.368,9.236 C22.272,9.236 22.196,9.248 22.14,9.272 C22.084,9.296 22.012,9.34 21.924,9.404 C21.82,9.484 21.688,9.55 21.528,9.602 C21.368,9.654 21.16,9.68 20.904,9.68 C20.728,9.68 20.556,9.656 20.388,9.608 C20.22,9.56 20.072,9.488 19.944,9.392 C19.816,9.296 19.714,9.178 19.638,9.038 C19.562,8.898 19.524,8.736 19.524,8.552 L19.524,8.552 L23.532,8.552 C23.62,8.552 23.696,8.52 23.76,8.456 C23.824,8.392 23.856,8.316 23.856,8.228 L23.856,8.228 L23.856,7.688 C23.856,7.28 23.786,6.89 23.646,6.518 C23.506,6.146 23.308,5.822 23.052,5.546 C22.796,5.27 22.486,5.05 22.122,4.886 C21.758,4.722 21.352,4.64 20.904,4.64 C20.456,4.64 20.05,4.724 19.686,4.892 C19.322,5.06 19.012,5.29 18.756,5.582 C18.5,5.874 18.304,6.218 18.168,6.614 C18.032,7.01 17.964,7.432 17.964,7.88 C17.964,8.36 18.032,8.798 18.168,9.194 C18.304,9.59 18.5,9.932 18.756,10.22 C19.012,10.508 19.322,10.73 19.686,10.886 C20.05,11.042 20.456,11.12 20.904,11.12 Z M22.236,7.184 L19.524,7.184 C19.54,7.064 19.578,6.938 19.638,6.806 C19.698,6.674 19.784,6.554 19.896,6.446 C20.008,6.338 20.146,6.25 20.31,6.182 C20.474,6.114 20.672,6.08 20.904,6.08 C21.16,6.08 21.37,6.114 21.534,6.182 C21.698,6.25 21.83,6.338 21.93,6.446 C22.03,6.554 22.102,6.674 22.146,6.806 C22.19,6.938 22.22,7.064 22.236,7.184 L22.236,7.184 Z M28.26,11 C28.38,11 28.468,10.968 28.524,10.904 C28.58,10.84 28.624,10.772 28.656,10.7 L28.656,10.7 L31.068,5.168 C31.076,5.144 31.08,5.116 31.08,5.084 C31.08,4.996 31.048,4.92 30.984,4.856 C30.92,4.792 30.844,4.76 30.756,4.76 L30.756,4.76 L29.856,4.76 C29.736,4.76 29.648,4.792 29.592,4.856 C29.536,4.92 29.492,4.984 29.46,5.048 L29.46,5.048 L27.864,8.768 L26.268,5.048 C26.236,4.984 26.192,4.92 26.136,4.856 C26.08,4.792 25.992,4.76 25.872,4.76 L25.872,4.76 L24.972,4.76 C24.884,4.76 24.808,4.792 24.744,4.856 C24.68,4.92 24.648,4.996 24.648,5.084 C24.648,5.116 24.652,5.144 24.66,5.168 L24.66,5.168 L27.072,10.7 C27.104,10.772 27.148,10.84 27.204,10.904 C27.26,10.968 27.348,11 27.468,11 L27.468,11 L28.26,11 Z M36.36,11 C36.448,11 36.524,10.968 36.588,10.904 C36.652,10.84 36.684,10.764 36.684,10.676 L36.684,10.676 L36.684,5.732 L40.044,10.724 C40.076,10.764 40.128,10.82 40.2,10.892 C40.272,10.964 40.376,11 40.512,11 L40.512,11 L41.352,11 C41.44,11 41.516,10.968 41.58,10.904 C41.644,10.84 41.676,10.764 41.676,10.676 L41.676,10.676 L41.676,2.924 C41.676,2.836 41.644,2.76 41.58,2.696 C41.516,2.632 41.44,2.6 41.352,2.6 L41.352,2.6 L40.38,2.6 C40.292,2.6 40.216,2.632 40.152,2.696 C40.088,2.76 40.056,2.836 40.056,2.924 L40.056,2.924 L40.056,7.868 L36.696,2.876 C36.664,2.836 36.612,2.78 36.54,2.708 C36.468,2.636 36.364,2.6 36.228,2.6 L36.228,2.6 L35.388,2.6 C35.3,2.6 35.224,2.632 35.16,2.696 C35.096,2.76 35.064,2.836 35.064,2.924 L35.064,2.924 L35.064,10.676 C35.064,10.764 35.096,10.84 35.16,10.904 C35.224,10.968 35.3,11 35.388,11 L35.388,11 L36.36,11 Z M46.068,11.12 C46.516,11.12 46.91,11.06 47.25,10.94 C47.59,10.82 47.876,10.676 48.108,10.508 C48.34,10.34 48.514,10.168 48.63,9.992 C48.746,9.816 48.808,9.672 48.816,9.56 C48.824,9.472 48.794,9.396 48.726,9.332 C48.658,9.268 48.58,9.236 48.492,9.236 L48.492,9.236 L47.532,9.236 C47.436,9.236 47.36,9.248 47.304,9.272 C47.248,9.296 47.176,9.34 47.088,9.404 C46.984,9.484 46.852,9.55 46.692,9.602 C46.532,9.654 46.324,9.68 46.068,9.68 C45.892,9.68 45.72,9.656 45.552,9.608 C45.384,9.56 45.236,9.488 45.108,9.392 C44.98,9.296 44.878,9.178 44.802,9.038 C44.726,8.898 44.688,8.736 44.688,8.552 L44.688,8.552 L48.696,8.552 C48.784,8.552 48.86,8.52 48.924,8.456 C48.988,8.392 49.02,8.316 49.02,8.228 L49.02,8.228 L49.02,7.688 C49.02,7.28 48.95,6.89 48.81,6.518 C48.67,6.146 48.472,5.822 48.216,5.546 C47.96,5.27 47.65,5.05 47.286,4.886 C46.922,4.722 46.516,4.64 46.068,4.64 C45.62,4.64 45.214,4.724 44.85,4.892 C44.486,5.06 44.176,5.29 43.92,5.582 C43.664,5.874 43.468,6.218 43.332,6.614 C43.196,7.01 43.128,7.432 43.128,7.88 C43.128,8.36 43.196,8.798 43.332,9.194 C43.468,9.59 43.664,9.932 43.92,10.22 C44.176,10.508 44.486,10.73 44.85,10.886 C45.214,11.042 45.62,11.12 46.068,11.12 Z M47.4,7.184 L44.688,7.184 C44.704,7.064 44.742,6.938 44.802,6.806 C44.862,6.674 44.948,6.554 45.06,6.446 C45.172,6.338 45.31,6.25 45.474,6.182 C45.638,6.114 45.836,6.08 46.068,6.08 C46.324,6.08 46.534,6.114 46.698,6.182 C46.862,6.25 46.994,6.338 47.094,6.446 C47.194,6.554 47.266,6.674 47.31,6.806 C47.354,6.938 47.384,7.064 47.4,7.184 L47.4,7.184 Z M54.096,11 C54.184,11 54.26,10.968 54.324,10.904 C54.388,10.84 54.42,10.764 54.42,10.676 L54.42,10.676 L54.42,9.884 C54.42,9.796 54.388,9.72 54.324,9.656 C54.26,9.592 54.184,9.56 54.096,9.56 L54.096,9.56 L53.364,9.56 C53.004,9.56 52.758,9.486 52.626,9.338 C52.494,9.19 52.428,8.992 52.428,8.744 L52.428,8.744 L52.428,6.2 L53.976,6.2 C54.064,6.2 54.14,6.168 54.204,6.104 C54.268,6.04 54.3,5.964 54.3,5.876 L54.3,5.876 L54.3,5.084 C54.3,4.996 54.268,4.92 54.204,4.856 C54.14,4.792 54.064,4.76 53.976,4.76 L53.976,4.76 L52.428,4.76 L52.428,2.804 C52.428,2.716 52.396,2.64 52.332,2.576 C52.268,2.512 52.192,2.48 52.104,2.48 L52.104,2.48 L51.192,2.48 C51.104,2.48 51.028,2.512 50.964,2.576 C50.9,2.64 50.868,2.716 50.868,2.804 L50.868,2.804 L50.868,4.76 L50.076,4.76 C49.988,4.76 49.912,4.792 49.848,4.856 C49.784,4.92 49.752,4.996 49.752,5.084 L49.752,5.084 L49.752,5.876 C49.752,5.964 49.784,6.04 49.848,6.104 C49.912,6.168 49.988,6.2 50.076,6.2 L50.076,6.2 L50.868,6.2 L50.868,8.78 C50.868,9.532 51.07,10.09 51.474,10.454 C51.878,10.818 52.456,11 53.208,11 L53.208,11 L54.096,11 Z" id="DevNet" fill="#A0AFAE" fill-rule="nonzero"></path>
                </g>
            </g>
        </g>
    </g>
</svg>