<?xml version="1.0" encoding="UTF-8"?>
<svg width="160px" height="36px" viewBox="0 0 160 36" version="1.1" xmlns="http://www.w3.org/2000/svg" xmlns:xlink="http://www.w3.org/1999/xlink">
    <title>LOGO_HYDRASWAP</title>
    <defs>
        <linearGradient x1="87.1452332%" y1="20.0519919%" x2="14.981842%" y2="84.0505229%" id="linearGradient-1">
            <stop stop-color="#2FE4C9" offset="0%"></stop>
            <stop stop-color="#39B5F1" offset="20.8031573%"></stop>
            <stop stop-color="#6C83E1" offset="58.4753118%"></stop>
            <stop stop-color="#CF489D" offset="100%"></stop>
        </linearGradient>
    </defs>
    <g id="Hydraswap" stroke="none" stroke-width="1" fill="none" fill-rule="evenodd">
        <g id="HydraSwap-menu" transform="translate(-901.000000, -40.000000)">
            <g id="LOGO_HYDRASWAP" transform="translate(901.000000, 40.000000)">
                <path d="M54.1680686,13.3043478 L54.1680686,8.29025355 L58.0541536,8.29025355 L58.0541536,13.3043478 L62.2222222,13.3043478 L62.2222222,0.369565217 L58.0541536,0.369565217 L58.0541536,4.76019068 L54.1680686,4.76019068 L54.1680686,0.369565217 L50,0.369565217 L50,13.3043478 L54.1680686,13.3043478 Z M66.1675774,17 C67.0773123,17 67.7346691,16.9403066 68.1396478,16.8209198 C68.5446266,16.701533 68.8909128,16.4991578 69.1785064,16.2137943 C69.3956689,16.0099632 69.5996256,15.7114962 69.7903764,15.3183933 C69.9662249,14.9560016 70.2106585,14.3102607 70.5236772,13.3811706 L70.555746,13.2857101 C70.5718986,13.2374915 70.5882286,13.1885402 70.6047359,13.1388564 L70.6047359,13.1388564 L73.7037037,3.69565217 L70.1205222,3.69565217 L68.4918033,9.45242513 L66.819065,3.69565217 L62.962963,3.69565217 L66.1675774,12.3875931 C66.2380085,12.5797768 66.2893645,12.7515773 66.3216454,12.9029947 C66.3539263,13.0544121 66.3700668,13.1912701 66.3700668,13.3135688 C66.3700668,13.5989323 66.2878972,13.8042194 66.123558,13.9294299 C65.9592188,14.0546404 65.6921676,14.1172457 65.3224044,14.1172457 L65.3224044,14.1172457 L64.2395264,14.1172457 L64.2395264,16.930115 C64.6034204,16.95341 64.9497065,16.9708813 65.2783849,16.9825288 C65.6070633,16.9941763 65.9034608,17 66.1675774,17 Z M78.2297708,13.673913 C78.8823427,13.673913 79.4711406,13.5492581 79.9961643,13.2999482 C80.5211881,13.0506384 80.9913365,12.6708075 81.4066096,12.1604555 L81.4066096,12.1604555 L81.4066096,13.3307453 L84.8148148,13.3307453 L84.8148148,0.369565217 L81.05956,0.369565217 L81.05956,4.78674948 C80.6739493,4.34679089 80.2453282,4.01828847 79.7736966,3.80124224 C79.3020651,3.584196 78.7755582,3.47567288 78.1941759,3.47567288 C76.9839516,3.47567288 75.9947119,3.9478951 75.2264568,4.89233954 C74.4582016,5.83678399 74.0740741,7.06866805 74.0740741,8.58799172 C74.0740741,10.1190476 74.4567185,11.3494651 75.2220074,12.2792443 C75.9872963,13.2090235 76.9898841,13.673913 78.2297708,13.673913 Z M79.6212597,10.7173913 C79.1581223,10.7173913 78.7968194,10.5234247 78.5373509,10.1354914 C78.2778824,9.74755813 78.1481481,9.20386377 78.1481481,8.50440833 C78.1481481,7.74617512 78.2681175,7.18631688 78.5080561,6.82483361 C78.7479947,6.46335033 79.1190626,6.2826087 79.6212597,6.2826087 C80.1234568,6.2826087 80.4973146,6.46481978 80.7428332,6.82924194 C80.9883518,7.1936641 81.1111111,7.7520529 81.1111111,8.50440833 C81.1111111,9.197986 80.9785869,9.74021091 80.7135384,10.1310831 C80.4484899,10.5219552 80.084397,10.7173913 79.6212597,10.7173913 Z M90.7655594,13.3043478 L90.7655594,9.46431354 C90.7655594,8.74107839 90.9416762,8.21013194 91.2939099,7.87147421 C91.6461436,7.53281648 92.1974036,7.36348761 92.94769,7.36348761 C93.0622375,7.36348761 93.1825124,7.36779258 93.3085147,7.37640252 C93.434517,7.38501247 93.5662467,7.3950574 93.7037037,7.40653732 L93.7037037,7.40653732 L93.7037037,3.69565217 L93.3686522,3.69565217 C92.6011837,3.69565217 91.9869225,3.85206613 91.5258687,4.16489403 C91.0648148,4.47772194 90.7111493,4.97279362 90.4648721,5.65010909 L90.4648721,5.65010909 L90.4648721,3.9453405 L87.037037,3.9453405 L87.037037,13.3043478 L90.7655594,13.3043478 Z M98.1469544,13.673913 C98.839347,13.673913 99.4625004,13.5702867 100.016414,13.3630341 C100.570329,13.1557816 101.086738,12.8360204 101.565643,12.4037507 L101.565643,12.4037507 L101.799326,13.3275051 L105.555556,13.3275051 L105.555556,13.0521553 C105.422847,12.9633327 105.321873,12.8493438 105.252634,12.7101885 C105.183395,12.5710332 105.148775,12.412633 105.148775,12.2349879 L105.148775,12.2349879 L105.148775,6.85234185 C105.148775,6.12991852 105.059341,5.57477763 104.880473,5.1869192 C104.701605,4.79906077 104.390028,4.45117248 103.945743,4.14325434 C103.582237,3.89455122 103.073039,3.69618088 102.418151,3.54814331 C101.763263,3.40010574 101.049233,3.32608696 100.276062,3.32608696 C98.6316292,3.32608696 97.3853225,3.60291721 96.5371415,4.15657772 C95.6889605,4.71023823 95.2562151,5.52888599 95.2389053,6.61252099 L95.2389053,6.61252099 L98.8912764,6.61252099 C98.9258961,6.28683834 99.0470648,6.0455371 99.2547826,5.88861728 C99.4625004,5.73169746 99.7596522,5.65323754 100.146238,5.65323754 C100.613603,5.65323754 100.955472,5.7168937 101.171845,5.84420601 C101.388217,5.97151832 101.496404,6.17432979 101.496404,6.45264042 C101.496404,6.95004665 100.904985,7.2638863 99.7221476,7.39415936 C99.3817212,7.42968837 99.1105341,7.46225664 98.9085863,7.49186415 C97.3218531,7.69911675 96.2428746,8.03072091 95.6716507,8.48667662 C95.1004268,8.94263233 94.8148148,9.64729116 94.8148148,10.6006531 C94.8148148,11.5777011 95.1047542,12.334173 95.6846331,12.870069 C96.2645119,13.405965 97.0852857,13.673913 98.1469544,13.673913 Z M99.6228956,11.0869565 C99.2697344,11.0869565 98.9973812,11.0141634 98.8058361,10.8685771 C98.6142911,10.7229908 98.5185185,10.5214097 98.5185185,10.263834 C98.5185185,9.86067194 99.003367,9.53870224 99.973064,9.2979249 C100.5896,9.14673913 101.083427,9.00395257 101.454545,8.86956522 C101.466517,8.91996047 101.473999,8.97735507 101.476992,9.04174901 C101.479985,9.10614295 101.481481,9.20273386 101.481481,9.33152174 C101.481481,9.9418643 101.333333,10.3870224 101.037037,10.666996 C100.740741,10.9469697 100.26936,11.0869565 99.6228956,11.0869565 Z M112.769053,13.673913 C114.618654,13.673913 116.039298,13.2891874 117.030986,12.5197361 C118.022674,11.7502848 118.518519,10.6489709 118.518519,9.21579449 C118.518519,8.55206933 118.387651,7.97644928 118.125915,7.48893433 C117.864179,7.00141939 117.44831,6.56676752 116.878307,6.18497871 C116.418815,5.87367399 115.441668,5.52712722 113.946865,5.14533841 C113.615333,5.06310698 113.368138,5.0014334 113.20528,4.96031768 C113.152933,4.94857033 113.07732,4.92801248 112.978442,4.89864411 C111.850069,4.61083408 111.285883,4.25253997 111.285883,3.82376177 C111.285883,3.52420439 111.393486,3.30100478 111.608691,3.15416293 C111.823896,3.00732108 112.15252,2.93390016 112.594563,2.93390016 C113.094769,2.93390016 113.480102,3.02787894 113.750563,3.21583651 C114.021023,3.40379408 114.188243,3.68866726 114.252223,4.07045607 L114.252223,4.07045607 L118.169537,4.07045607 C118.047394,2.76062677 117.512289,1.7547601 116.564224,1.05285606 C115.616158,0.350952021 114.316203,0 112.664359,0 C110.983433,0 109.663121,0.367104624 108.703422,1.10131387 C107.743724,1.83552312 107.263875,2.84579505 107.263875,4.13212965 C107.263875,4.77236012 107.387472,5.34210649 107.634667,5.84136878 C107.881862,6.34063107 108.252655,6.76940927 108.747045,7.12770338 C109.002964,7.3039136 109.411563,7.49333959 109.972841,7.69598134 C110.534119,7.8986231 111.288791,8.12329113 112.236857,8.36998543 C112.359,8.3993538 112.536399,8.44340636 112.769053,8.5021431 C113.926508,8.7958268 114.505235,9.17761561 114.505235,9.64750952 C114.505235,9.94119322 114.367096,10.1717349 114.09082,10.3391346 C113.814543,10.5065343 113.435026,10.5902342 112.952268,10.5902342 C112.376449,10.5902342 111.943131,10.4874449 111.652313,10.2818663 C111.361496,10.0762877 111.160832,9.73855147 111.050321,9.26865755 L111.050321,9.26865755 L107.037037,9.26865755 C107.15918,10.666592 107.719004,11.7502848 108.716509,12.5197361 C109.714014,13.2891874 111.064862,13.673913 112.769053,13.673913 Z M126.09968,13.3043478 L127.48176,7.74421023 L128.855092,13.3043478 L132.563965,13.3043478 L135.555556,3.69565217 L131.960398,3.69565217 L130.543329,9.55633775 L129.073776,3.69565217 L125.880996,3.69565217 L124.411443,9.55633775 L123.003121,3.69565217 L119.259259,3.69565217 L122.390807,13.3043478 L126.09968,13.3043478 Z M139.998806,13.673913 C140.691199,13.673913 141.314352,13.5702867 141.868266,13.3630341 C142.42218,13.1557816 142.93859,12.8360204 143.417495,12.4037507 L143.417495,12.4037507 L143.651177,13.3275051 L147.407407,13.3275051 L147.407407,13.0521553 C147.274699,12.9633327 147.173725,12.8493438 147.104486,12.7101885 C147.035246,12.5710332 147.000627,12.412633 147.000627,12.2349879 L147.000627,12.2349879 L147.000627,6.85234185 C147.000627,6.12991852 146.911193,5.57477763 146.732325,5.1869192 C146.553456,4.79906077 146.24188,4.45117248 145.797595,4.14325434 C145.434088,3.89455122 144.924891,3.69618088 144.270003,3.54814331 C143.615115,3.40010574 142.901085,3.32608696 142.127914,3.32608696 C140.483481,3.32608696 139.237174,3.60291721 138.388993,4.15657772 C137.540812,4.71023823 137.108067,5.52888599 137.090757,6.61252099 L137.090757,6.61252099 L140.743128,6.61252099 C140.777748,6.28683834 140.898917,6.0455371 141.106634,5.88861728 C141.314352,5.73169746 141.611504,5.65323754 141.99809,5.65323754 C142.465455,5.65323754 142.807324,5.7168937 143.023697,5.84420601 C143.240069,5.97151832 143.348256,6.17432979 143.348256,6.45264042 C143.348256,6.95004665 142.756837,7.2638863 141.573999,7.39415936 C141.233573,7.42968837 140.962386,7.46225664 140.760438,7.49186415 C139.173705,7.69911675 138.094726,8.03072091 137.523503,8.48667662 C136.952279,8.94263233 136.666667,9.64729116 136.666667,10.6006531 C136.666667,11.5777011 136.956606,12.334173 137.536485,12.870069 C138.116364,13.405965 138.937138,13.673913 139.998806,13.673913 Z M141.474747,11.0869565 C141.121586,11.0869565 140.849233,11.0141634 140.657688,10.8685771 C140.466143,10.7229908 140.37037,10.5214097 140.37037,10.263834 C140.37037,9.86067194 140.855219,9.53870224 141.824916,9.2979249 C142.441452,9.14673913 142.935279,9.00395257 143.306397,8.86956522 C143.318369,8.91996047 143.325851,8.97735507 143.328844,9.04174901 C143.331837,9.10614295 143.333333,9.20273386 143.333333,9.33152174 C143.333333,9.9418643 143.185185,10.3870224 142.888889,10.666996 C142.592593,10.9469697 142.121212,11.0869565 141.474747,11.0869565 Z M152.993623,17 L152.993623,12.2599451 C153.325566,12.6769759 153.713821,12.9853438 154.158389,13.1850487 C154.602956,13.3847537 155.124581,13.4846061 155.723265,13.4846061 C157.027328,13.4846061 158.066133,13.0235227 158.83968,12.1013559 C159.613227,11.1791891 160,9.9427807 160,8.39213077 C160,6.87672288 159.611745,5.65353027 158.835234,4.72255295 C158.058724,3.79157562 157.045111,3.32608696 155.794395,3.32608696 C155.094943,3.32608696 154.493296,3.44502885 153.989453,3.68291265 C153.48561,3.92079645 153.044007,4.29524316 152.664643,4.8062528 L152.664643,4.8062528 L152.664643,3.58159177 L149.259259,3.58159177 L149.259259,17 L152.993623,17 Z M154.444444,10.7173913 C153.950617,10.7173913 153.580247,10.534835 153.333333,10.1697224 C153.08642,9.80460974 152.962963,9.25694081 152.962963,8.52671556 C152.962963,7.74899598 153.083645,7.18054828 153.32501,6.82137245 C153.566375,6.46219661 153.950617,6.2826087 154.477736,6.2826087 C154.966015,6.2826087 155.329449,6.46664921 155.56804,6.83473023 C155.806631,7.20281124 155.925926,7.76680636 155.925926,8.52671556 C155.925926,9.25100402 155.801082,9.79718876 155.551394,10.1652698 C155.301706,10.5333508 154.932723,10.7173913 154.444444,10.7173913 Z" id="HydraSwap" fill="#FFFFFF" fill-rule="nonzero"></path>
                <path d="M54.8637218,33.8611111 C55.3618421,33.8611111 55.8012218,33.775463 56.1818609,33.6041667 C56.5625,33.4328704 56.8796992,33.2083333 57.1334586,32.9305556 C57.387218,32.6527778 57.5798872,32.3402778 57.7114662,31.9930556 C57.8430451,31.6458333 57.9088346,31.2962963 57.9088346,30.9444444 C57.9088346,30.3981481 57.7866541,29.9467593 57.5422932,29.5902778 C57.2979323,29.2337963 57.0300752,28.9583333 56.7387218,28.7638889 C56.8045113,28.7268519 56.8914474,28.6574074 56.9995301,28.5555556 C57.1076128,28.4537037 57.2156955,28.3263889 57.3237782,28.1736111 C57.4318609,28.0208333 57.5234962,27.8356481 57.5986842,27.6180556 C57.6738722,27.400463 57.7114662,27.1527778 57.7114662,26.875 C57.7114662,26.5972222 57.6574248,26.2986111 57.5493421,25.9791667 C57.4412594,25.6597222 57.2650376,25.3634259 57.0206767,25.0902778 C56.7763158,24.8171296 56.4520677,24.5902778 56.0479323,24.4097222 C55.643797,24.2291667 55.1409774,24.1388889 54.5394737,24.1388889 L54.5394737,24.1388889 L50.3806391,24.1388889 C50.2772556,24.1388889 50.1879699,24.1759259 50.112782,24.25 C50.037594,24.3240741 50,24.412037 50,24.5138889 L50,24.5138889 L50,33.4861111 C50,33.587963 50.037594,33.6759259 50.112782,33.75 C50.1879699,33.8240741 50.2772556,33.8611111 50.3806391,33.8611111 L50.3806391,33.8611111 L54.8637218,33.8611111 Z M54.3984962,28.0138889 L51.9031955,28.0138889 L51.9031955,25.875 L54.3984962,25.875 C54.887218,25.875 55.2443609,25.9652778 55.4699248,26.1458333 C55.6954887,26.3263889 55.8082707,26.5925926 55.8082707,26.9444444 C55.8082707,27.2962963 55.6954887,27.5625 55.4699248,27.7430556 C55.2443609,27.9236111 54.887218,28.0138889 54.3984962,28.0138889 L54.3984962,28.0138889 Z M54.5112782,32.125 L51.9031955,32.125 L51.9031955,29.75 L54.5112782,29.75 C55.0093985,29.75 55.3829887,29.8611111 55.6320489,30.0833333 C55.881109,30.3055556 56.0056391,30.5925926 56.0056391,30.9444444 C56.0056391,31.2962963 55.8858083,31.5810185 55.6461466,31.7986111 C55.406485,32.0162037 55.0281955,32.125 54.5112782,32.125 L54.5112782,32.125 Z M62.6315789,34 C63.1578947,34 63.6207707,33.9305556 64.0202068,33.7916667 C64.4196429,33.6527778 64.7556391,33.4861111 65.0281955,33.2916667 C65.3007519,33.0972222 65.5051692,32.8981481 65.6414474,32.6944444 C65.7777256,32.4907407 65.8505639,32.3240741 65.8599624,32.1944444 C65.8693609,32.0925926 65.8341165,32.0046296 65.7542293,31.9305556 C65.6743421,31.8564815 65.5827068,31.8194444 65.4793233,31.8194444 L65.4793233,31.8194444 L64.3515038,31.8194444 C64.2387218,31.8194444 64.1494361,31.8333333 64.0836466,31.8611111 C64.0178571,31.8888889 63.9332707,31.9398148 63.8298872,32.0138889 C63.7077068,32.1064815 63.5526316,32.1828704 63.3646617,32.2430556 C63.1766917,32.3032407 62.9323308,32.3333333 62.6315789,32.3333333 C62.424812,32.3333333 62.2227444,32.3055556 62.0253759,32.25 C61.8280075,32.1944444 61.6541353,32.1111111 61.5037594,32 C61.3533835,31.8888889 61.2335526,31.7523148 61.1442669,31.5902778 C61.0549812,31.4282407 61.0103383,31.2407407 61.0103383,31.0277778 L61.0103383,31.0277778 L65.718985,31.0277778 C65.8223684,31.0277778 65.9116541,30.9907407 65.9868421,30.9166667 C66.0620301,30.8425926 66.0996241,30.7546296 66.0996241,30.6527778 L66.0996241,30.6527778 L66.0996241,30.0277778 C66.0996241,29.5555556 66.0173872,29.1041667 65.8529135,28.6736111 C65.6884398,28.2430556 65.4558271,27.8680556 65.1550752,27.5486111 C64.8543233,27.2291667 64.4901316,26.974537 64.0625,26.7847222 C63.6348684,26.5949074 63.1578947,26.5 62.6315789,26.5 C62.1052632,26.5 61.6282895,26.5972222 61.2006579,26.7916667 C60.7730263,26.9861111 60.4088346,27.2523148 60.1080827,27.5902778 C59.8073308,27.9282407 59.5770677,28.3263889 59.4172932,28.7847222 C59.2575188,29.2430556 59.1776316,29.7314815 59.1776316,30.25 C59.1776316,30.8055556 59.2575188,31.3125 59.4172932,31.7708333 C59.5770677,32.2291667 59.8073308,32.625 60.1080827,32.9583333 C60.4088346,33.2916667 60.7730263,33.5486111 61.2006579,33.7291667 C61.6282895,33.9097222 62.1052632,34 62.6315789,34 Z M64.1964286,29.4444444 L61.0103383,29.4444444 C61.0291353,29.3055556 61.0737782,29.1597222 61.1442669,29.0069444 C61.2147556,28.8541667 61.3157895,28.7152778 61.4473684,28.5902778 C61.5789474,28.4652778 61.7410714,28.3634259 61.9337406,28.2847222 C62.1264098,28.2060185 62.3590226,28.1666667 62.6315789,28.1666667 C62.9323308,28.1666667 63.1790414,28.2060185 63.3717105,28.2847222 C63.5643797,28.3634259 63.7194549,28.4652778 63.8369361,28.5902778 C63.9544173,28.7152778 64.0390038,28.8541667 64.0906955,29.0069444 C64.1423872,29.1597222 64.1776316,29.3055556 64.1964286,29.4444444 L64.1964286,29.4444444 Z M72.0629699,33.8611111 C72.1663534,33.8611111 72.2556391,33.8240741 72.3308271,33.75 C72.406015,33.6759259 72.443609,33.587963 72.443609,33.4861111 L72.443609,33.4861111 L72.443609,32.5694444 C72.443609,32.4675926 72.406015,32.3796296 72.3308271,32.3055556 C72.2556391,32.2314815 72.1663534,32.1944444 72.0629699,32.1944444 L72.0629699,32.1944444 L71.2030075,32.1944444 C70.7800752,32.1944444 70.4910714,32.1087963 70.3359962,31.9375 C70.1809211,31.7662037 70.1033835,31.537037 70.1033835,31.25 L70.1033835,31.25 L70.1033835,28.3055556 L71.9219925,28.3055556 C72.0253759,28.3055556 72.1146617,28.2685185 72.1898496,28.1944444 C72.2650376,28.1203704 72.3026316,28.0324074 72.3026316,27.9305556 L72.3026316,27.9305556 L72.3026316,27.0138889 C72.3026316,26.912037 72.2650376,26.8240741 72.1898496,26.75 C72.1146617,26.6759259 72.0253759,26.6388889 71.9219925,26.6388889 L71.9219925,26.6388889 L70.1033835,26.6388889 L70.1033835,24.375 C70.1033835,24.2731481 70.0657895,24.1851852 69.9906015,24.1111111 C69.9154135,24.037037 69.8261278,24 69.7227444,24 L69.7227444,24 L68.6513158,24 C68.5479323,24 68.4586466,24.037037 68.3834586,24.1111111 C68.3082707,24.1851852 68.2706767,24.2731481 68.2706767,24.375 L68.2706767,24.375 L68.2706767,26.6388889 L67.3402256,26.6388889 C67.2368421,26.6388889 67.1475564,26.6759259 67.0723684,26.75 C66.9971805,26.8240741 66.9595865,26.912037 66.9595865,27.0138889 L66.9595865,27.0138889 L66.9595865,27.9305556 C66.9595865,28.0324074 66.9971805,28.1203704 67.0723684,28.1944444 C67.1475564,28.2685185 67.2368421,28.3055556 67.3402256,28.3055556 L67.3402256,28.3055556 L68.2706767,28.3055556 L68.2706767,31.2916667 C68.2706767,32.162037 68.5079887,32.8078704 68.9826128,33.2291667 C69.4572368,33.650463 70.1362782,33.8611111 71.0197368,33.8611111 L71.0197368,33.8611111 L72.0629699,33.8611111 Z M75.8975564,34 C76.4708647,34 76.9431391,33.9050926 77.3143797,33.7152778 C77.6856203,33.525463 77.9699248,33.2962963 78.1672932,33.0277778 L78.1672932,33.0277778 L78.1672932,33.4861111 C78.1672932,33.587963 78.2048872,33.6759259 78.2800752,33.75 C78.3552632,33.8240741 78.4445489,33.8611111 78.5479323,33.8611111 L78.5479323,33.8611111 L79.6193609,33.8611111 C79.7227444,33.8611111 79.8120301,33.8240741 79.887218,33.75 C79.962406,33.6759259 80,33.587963 80,33.4861111 L80,33.4861111 L80,29.4027778 C80,28.9305556 79.924812,28.5115741 79.7744361,28.1458333 C79.6240602,27.7800926 79.4102444,27.4768519 79.1329887,27.2361111 C78.8557331,26.9953704 78.5244361,26.8125 78.1390977,26.6875 C77.7537594,26.5625 77.3214286,26.5 76.8421053,26.5 C76.362782,26.5 75.9421992,26.5625 75.5803571,26.6875 C75.218515,26.8125 74.9130639,26.9722222 74.6640038,27.1666667 C74.4149436,27.3611111 74.2222744,27.5694444 74.0859962,27.7916667 C73.949718,28.0138889 73.862782,28.2222222 73.825188,28.4166667 C73.806391,28.5092593 73.8298872,28.5833333 73.8956767,28.6388889 C73.9614662,28.6944444 74.0413534,28.7222222 74.1353383,28.7222222 L74.1353383,28.7222222 L75.4464286,28.7222222 C75.531015,28.7222222 75.6085526,28.7083333 75.6790414,28.6805556 C75.7495301,28.6527778 75.8270677,28.6018519 75.9116541,28.5277778 C76.0338346,28.4166667 76.1607143,28.3287037 76.2922932,28.2638889 C76.4238722,28.1990741 76.6071429,28.1666667 76.8421053,28.1666667 C77.2180451,28.1666667 77.5328947,28.2453704 77.7866541,28.4027778 C78.0404135,28.5601852 78.1672932,28.8287037 78.1672932,29.2083333 L78.1672932,29.2083333 L75.8693609,29.5972222 C75.0986842,29.7268519 74.4830827,29.9722222 74.0225564,30.3333333 C73.5620301,30.6944444 73.3317669,31.1944444 73.3317669,31.8333333 C73.3317669,32.1481481 73.3905075,32.4375 73.5079887,32.7013889 C73.6254699,32.9652778 73.7922932,33.1944444 74.0084586,33.3888889 C74.2246241,33.5833333 74.4924812,33.7337963 74.8120301,33.8402778 C75.1315789,33.9467593 75.4934211,34 75.8975564,34 Z M76.1795113,32.3333333 C75.9069549,32.3333333 75.6696429,32.287037 75.4675752,32.1944444 C75.2655075,32.1018519 75.1644737,31.9583333 75.1644737,31.7638889 C75.1644737,31.5509259 75.2490602,31.3819444 75.4182331,31.2569444 C75.587406,31.1319444 75.8646617,31.037037 76.25,30.9722222 L76.25,30.9722222 L78.1672932,30.6388889 L78.1672932,30.7777778 C78.1672932,30.9722222 78.125,31.162037 78.0404135,31.3472222 C77.9558271,31.5324074 77.8289474,31.6990741 77.6597744,31.8472222 C77.4906015,31.9953704 77.281485,32.1134259 77.0324248,32.2013889 C76.7833647,32.2893519 76.4990602,32.3333333 76.1795113,32.3333333 Z" id="Beta" fill="#80878E" fill-rule="nonzero"></path>
                <rect id="border" fill="#0B3835" x="88" y="22" width="72" height="14" rx="2"></rect>
                <path d="M96.604,34 C96.7066667,34 96.7953333,33.9626667 96.87,33.888 C96.9446667,33.8133333 96.982,33.7246667 96.982,33.622 L96.982,33.622 L96.982,28.148 L98.802,31.298 C98.8486667,31.3726667 98.914,31.4496667 98.998,31.529 C99.082,31.6083333 99.1893333,31.648 99.32,31.648 L99.32,31.648 L100.048,31.648 C100.178667,31.648 100.286,31.6083333 100.37,31.529 C100.454,31.4496667 100.519333,31.3726667 100.566,31.298 L100.566,31.298 L102.386,28.148 L102.386,33.622 C102.386,33.7246667 102.423333,33.8133333 102.498,33.888 C102.572667,33.9626667 102.661333,34 102.764,34 L102.764,34 L103.898,34 C104.000667,34 104.089333,33.9626667 104.164,33.888 C104.238667,33.8133333 104.276,33.7246667 104.276,33.622 L104.276,33.622 L104.276,24.578 C104.276,24.4753333 104.238667,24.3866667 104.164,24.312 C104.089333,24.2373333 104.000667,24.2 103.898,24.2 L103.898,24.2 L102.946,24.2 C102.759333,24.2 102.621667,24.2513333 102.533,24.354 C102.444333,24.4566667 102.381333,24.5313333 102.344,24.578 L102.344,24.578 L99.684,29.198 L97.024,24.578 C96.9866667,24.5313333 96.9236667,24.4566667 96.835,24.354 C96.7463333,24.2513333 96.6086667,24.2 96.422,24.2 L96.422,24.2 L95.47,24.2 C95.3673333,24.2 95.2786667,24.2373333 95.204,24.312 C95.1293333,24.3866667 95.092,24.4753333 95.092,24.578 L95.092,24.578 L95.092,33.622 C95.092,33.7246667 95.1293333,33.8133333 95.204,33.888 C95.2786667,33.9626667 95.3673333,34 95.47,34 L95.47,34 L96.604,34 Z M108.392,34.14 C108.961333,34.14 109.430333,34.0443333 109.799,33.853 C110.167667,33.6616667 110.45,33.4306667 110.646,33.16 L110.646,33.16 L110.646,33.622 C110.646,33.7246667 110.683333,33.8133333 110.758,33.888 C110.832667,33.9626667 110.921333,34 111.024,34 L111.024,34 L112.088,34 C112.190667,34 112.279333,33.9626667 112.354,33.888 C112.428667,33.8133333 112.466,33.7246667 112.466,33.622 L112.466,33.622 L112.466,29.506 C112.466,29.03 112.391333,28.6076667 112.242,28.239 C112.092667,27.8703333 111.880333,27.5646667 111.605,27.322 C111.329667,27.0793333 111.000667,26.895 110.618,26.769 C110.235333,26.643 109.806,26.58 109.33,26.58 C108.854,26.58 108.436333,26.643 108.077,26.769 C107.717667,26.895 107.414333,27.056 107.167,27.252 C106.919667,27.448 106.728333,27.658 106.593,27.882 C106.457667,28.106 106.371333,28.316 106.334,28.512 C106.315333,28.6053333 106.338667,28.68 106.404,28.736 C106.469333,28.792 106.548667,28.82 106.642,28.82 L106.642,28.82 L107.944,28.82 C108.028,28.82 108.105,28.806 108.175,28.778 C108.245,28.75 108.322,28.6986667 108.406,28.624 C108.527333,28.512 108.653333,28.4233333 108.784,28.358 C108.914667,28.2926667 109.096667,28.26 109.33,28.26 C109.703333,28.26 110.016,28.3393333 110.268,28.498 C110.52,28.6566667 110.646,28.9273333 110.646,29.31 L110.646,29.31 L108.364,29.702 C107.598667,29.8326667 106.987333,30.08 106.53,30.444 C106.072667,30.808 105.844,31.312 105.844,31.956 C105.844,32.2733333 105.902333,32.565 106.019,32.831 C106.135667,33.097 106.301333,33.328 106.516,33.524 C106.730667,33.72 106.996667,33.8716667 107.314,33.979 C107.631333,34.0863333 107.990667,34.14 108.392,34.14 Z M108.672,32.46 C108.401333,32.46 108.165667,32.4133333 107.965,32.32 C107.764333,32.2266667 107.664,32.082 107.664,31.886 C107.664,31.6713333 107.748,31.501 107.916,31.375 C108.084,31.249 108.359333,31.1533333 108.742,31.088 L108.742,31.088 L110.646,30.752 L110.646,30.892 C110.646,31.088 110.604,31.2793333 110.52,31.466 C110.436,31.6526667 110.31,31.8206667 110.142,31.97 C109.974,32.1193333 109.766333,32.2383333 109.519,32.327 C109.271667,32.4156667 108.989333,32.46 108.672,32.46 Z M115.84,25.908 C115.942667,25.908 116.031333,25.8706667 116.106,25.796 C116.180667,25.7213333 116.218,25.6326667 116.218,25.53 L116.218,25.53 L116.218,24.438 C116.218,24.3353333 116.180667,24.2466667 116.106,24.172 C116.031333,24.0973333 115.942667,24.06 115.84,24.06 L115.84,24.06 L114.636,24.06 C114.533333,24.06 114.444667,24.0973333 114.37,24.172 C114.295333,24.2466667 114.258,24.3353333 114.258,24.438 L114.258,24.438 L114.258,25.53 C114.258,25.6326667 114.295333,25.7213333 114.37,25.796 C114.444667,25.8706667 114.533333,25.908 114.636,25.908 L114.636,25.908 L115.84,25.908 Z M115.77,34 C115.872667,34 115.961333,33.9626667 116.036,33.888 C116.110667,33.8133333 116.148,33.7246667 116.148,33.622 L116.148,33.622 L116.148,27.098 C116.148,26.9953333 116.110667,26.9066667 116.036,26.832 C115.961333,26.7573333 115.872667,26.72 115.77,26.72 L115.77,26.72 L114.706,26.72 C114.603333,26.72 114.514667,26.7573333 114.44,26.832 C114.365333,26.9066667 114.328,26.9953333 114.328,27.098 L114.328,27.098 L114.328,33.622 C114.328,33.7246667 114.365333,33.8133333 114.44,33.888 C114.514667,33.9626667 114.603333,34 114.706,34 L114.706,34 L115.77,34 Z M119.522,34 C119.624667,34 119.713333,33.9626667 119.788,33.888 C119.862667,33.8133333 119.9,33.7246667 119.9,33.622 L119.9,33.622 L119.9,30.066 C119.9,29.506 120.042333,29.058 120.327,28.722 C120.611667,28.386 121.001333,28.218 121.496,28.218 C122.037333,28.218 122.438667,28.386 122.7,28.722 C122.961333,29.058 123.092,29.506 123.092,30.066 L123.092,30.066 L123.092,33.622 C123.092,33.7246667 123.129333,33.8133333 123.204,33.888 C123.278667,33.9626667 123.367333,34 123.47,34 L123.47,34 L124.534,34 C124.636667,34 124.725333,33.9626667 124.8,33.888 C124.874667,33.8133333 124.912,33.7246667 124.912,33.622 L124.912,33.622 L124.912,29.856 C124.912,29.4173333 124.863,28.9996667 124.765,28.603 C124.667,28.2063333 124.501333,27.8586667 124.268,27.56 C124.034667,27.2613333 123.726667,27.0233333 123.344,26.846 C122.961333,26.6686667 122.485333,26.58 121.916,26.58 C121.468,26.58 121.080667,26.6593333 120.754,26.818 C120.427333,26.9766667 120.142667,27.1773333 119.9,27.42 L119.9,27.42 L119.9,27.098 C119.9,26.9953333 119.862667,26.9066667 119.788,26.832 C119.713333,26.7573333 119.624667,26.72 119.522,26.72 L119.522,26.72 L118.458,26.72 C118.355333,26.72 118.266667,26.7573333 118.192,26.832 C118.117333,26.9066667 118.08,26.9953333 118.08,27.098 L118.08,27.098 L118.08,33.622 C118.08,33.7246667 118.117333,33.8133333 118.192,33.888 C118.266667,33.9626667 118.355333,34 118.458,34 L118.458,34 L119.522,34 Z M131.604,34 C131.706667,34 131.795333,33.9626667 131.87,33.888 C131.944667,33.8133333 131.982,33.7246667 131.982,33.622 L131.982,33.622 L131.982,27.854 L135.902,33.678 C135.939333,33.7246667 136,33.79 136.084,33.874 C136.168,33.958 136.289333,34 136.448,34 L136.448,34 L137.428,34 C137.530667,34 137.619333,33.9626667 137.694,33.888 C137.768667,33.8133333 137.806,33.7246667 137.806,33.622 L137.806,33.622 L137.806,24.578 C137.806,24.4753333 137.768667,24.3866667 137.694,24.312 C137.619333,24.2373333 137.530667,24.2 137.428,24.2 L137.428,24.2 L136.294,24.2 C136.191333,24.2 136.102667,24.2373333 136.028,24.312 C135.953333,24.3866667 135.916,24.4753333 135.916,24.578 L135.916,24.578 L135.916,30.346 L131.996,24.522 C131.958667,24.4753333 131.898,24.41 131.814,24.326 C131.73,24.242 131.608667,24.2 131.45,24.2 L131.45,24.2 L130.47,24.2 C130.367333,24.2 130.278667,24.2373333 130.204,24.312 C130.129333,24.3866667 130.092,24.4753333 130.092,24.578 L130.092,24.578 L130.092,33.622 C130.092,33.7246667 130.129333,33.8133333 130.204,33.888 C130.278667,33.9626667 130.367333,34 130.47,34 L130.47,34 L131.604,34 Z M142.93,34.14 C143.452667,34.14 143.912333,34.07 144.309,33.93 C144.705667,33.79 145.039333,33.622 145.31,33.426 C145.580667,33.23 145.783667,33.0293333 145.919,32.824 C146.054333,32.6186667 146.126667,32.4506667 146.136,32.32 C146.145333,32.2173333 146.110333,32.1286667 146.031,32.054 C145.951667,31.9793333 145.860667,31.942 145.758,31.942 L145.758,31.942 L144.638,31.942 C144.526,31.942 144.437333,31.956 144.372,31.984 C144.306667,32.012 144.222667,32.0633333 144.12,32.138 C143.998667,32.2313333 143.844667,32.3083333 143.658,32.369 C143.471333,32.4296667 143.228667,32.46 142.93,32.46 C142.724667,32.46 142.524,32.432 142.328,32.376 C142.132,32.32 141.959333,32.236 141.81,32.124 C141.660667,32.012 141.541667,31.8743333 141.453,31.711 C141.364333,31.5476667 141.32,31.3586667 141.32,31.144 L141.32,31.144 L145.996,31.144 C146.098667,31.144 146.187333,31.1066667 146.262,31.032 C146.336667,30.9573333 146.374,30.8686667 146.374,30.766 L146.374,30.766 L146.374,30.136 C146.374,29.66 146.292333,29.205 146.129,28.771 C145.965667,28.337 145.734667,27.959 145.436,27.637 C145.137333,27.315 144.775667,27.0583333 144.351,26.867 C143.926333,26.6756667 143.452667,26.58 142.93,26.58 C142.407333,26.58 141.933667,26.678 141.509,26.874 C141.084333,27.07 140.722667,27.3383333 140.424,27.679 C140.125333,28.0196667 139.896667,28.421 139.738,28.883 C139.579333,29.345 139.5,29.8373333 139.5,30.36 C139.5,30.92 139.579333,31.431 139.738,31.893 C139.896667,32.355 140.125333,32.754 140.424,33.09 C140.722667,33.426 141.084333,33.685 141.509,33.867 C141.933667,34.049 142.407333,34.14 142.93,34.14 Z M144.484,29.548 L141.32,29.548 C141.338667,29.408 141.383,29.261 141.453,29.107 C141.523,28.953 141.623333,28.813 141.754,28.687 C141.884667,28.561 142.045667,28.4583333 142.237,28.379 C142.428333,28.2996667 142.659333,28.26 142.93,28.26 C143.228667,28.26 143.473667,28.2996667 143.665,28.379 C143.856333,28.4583333 144.010333,28.561 144.127,28.687 C144.243667,28.813 144.327667,28.953 144.379,29.107 C144.430333,29.261 144.465333,29.408 144.484,29.548 L144.484,29.548 Z M152.296,34 C152.398667,34 152.487333,33.9626667 152.562,33.888 C152.636667,33.8133333 152.674,33.7246667 152.674,33.622 L152.674,33.622 L152.674,32.698 C152.674,32.5953333 152.636667,32.5066667 152.562,32.432 C152.487333,32.3573333 152.398667,32.32 152.296,32.32 L152.296,32.32 L151.442,32.32 C151.022,32.32 150.735,32.2336667 150.581,32.061 C150.427,31.8883333 150.35,31.6573333 150.35,31.368 L150.35,31.368 L150.35,28.4 L152.156,28.4 C152.258667,28.4 152.347333,28.3626667 152.422,28.288 C152.496667,28.2133333 152.534,28.1246667 152.534,28.022 L152.534,28.022 L152.534,27.098 C152.534,26.9953333 152.496667,26.9066667 152.422,26.832 C152.347333,26.7573333 152.258667,26.72 152.156,26.72 L152.156,26.72 L150.35,26.72 L150.35,24.438 C150.35,24.3353333 150.312667,24.2466667 150.238,24.172 C150.163333,24.0973333 150.074667,24.06 149.972,24.06 L149.972,24.06 L148.908,24.06 C148.805333,24.06 148.716667,24.0973333 148.642,24.172 C148.567333,24.2466667 148.53,24.3353333 148.53,24.438 L148.53,24.438 L148.53,26.72 L147.606,26.72 C147.503333,26.72 147.414667,26.7573333 147.34,26.832 C147.265333,26.9066667 147.228,26.9953333 147.228,27.098 L147.228,27.098 L147.228,28.022 C147.228,28.1246667 147.265333,28.2133333 147.34,28.288 C147.414667,28.3626667 147.503333,28.4 147.606,28.4 L147.606,28.4 L148.53,28.4 L148.53,31.41 C148.53,32.2873333 148.765667,32.9383333 149.237,33.363 C149.708333,33.7876667 150.382667,34 151.26,34 L151.26,34 L152.296,34 Z" id="MainNet" fill="#A0AFAE" fill-rule="nonzero"></path>
                <g id="LOGO_HYDRASWAP备份-2">
                    <path d="M18,3.70230162e-14 C27.9411255,3.70230162e-14 36,8.09814783 36,18.0877194 C36,25.3576472 31.7318384,31.6258342 25.5761942,34.5 L25.5759879,34.5 C24.1265169,33.4869076 23.0676977,32.401493 22.3995586,31.2433947 C21.3227578,29.3769682 20.7362109,27.9002401 20.6367188,25.6353891 C20.6172273,25.1917717 20.6591013,24.7832926 20.7623352,24.4099684 C21.0701528,23.9749789 21.4165406,23.562805 21.7997227,23.1777556 C22.308928,22.6660688 22.8657985,22.2196749 23.4602993,21.8428068 C23.7312745,21.7199351 24.0269469,21.6558082 24.328125,21.6558082 C25.4796033,21.6558082 26.418553,22.5877629 26.4372168,23.7404656 L26.4375,23.7754629 L26.4374648,24.5556689 L25.734375,24.5556865 L29.25,28.0884442 L29.25,24.5556865 L28.5468398,24.5556689 L28.546875,23.7754629 C28.546875,22.4589184 27.9465445,21.2806146 27.0064601,20.50252 C27.499726,20.4240101 28.0026635,20.3840155 28.5117188,20.3840155 C29.3026392,20.3840155 30.0814868,20.4806663 30.8376045,20.6720703 L30.8891227,20.6852674 L30.5507777,21.6194067 L35.0567895,19.5079481 L31.7531918,18.2996743 L31.6133304,18.685778 C30.6077619,18.4058387 29.5682037,18.2643609 28.5117188,18.2643609 C26.946,18.2643609 25.4265117,18.5727353 23.9955469,19.1809348 C23.4603312,19.4084084 22.9462812,19.6738815 22.4553997,19.9760256 C22.3628508,20.0221153 22.2718549,20.0717093 22.1826115,20.1247517 L22.1381367,20.15156 L21.4487752,20.5727963 C23.0129044,17.6708163 25.5190739,15.3362272 28.5713239,14.0051142 L28.663983,13.965085 L28.8409395,14.9734169 L31.6926738,10.8808937 L28.2304863,11.4943571 L28.2892147,11.8293561 C27.8667401,11.9957123 27.4527521,12.1786617 27.0481184,12.3775219 C26.9599941,11.4538777 26.5744102,10.5895861 25.9341574,9.89965261 C25.37476,9.29687414 24.6696825,8.87966161 23.8930753,8.68200787 L23.8627818,8.67441824 L24.2638207,7.56722705 L19.757809,9.67868568 L23.0614066,10.8869595 L23.1326107,10.6902766 C23.6144941,10.7551303 24.0555157,10.9832429 24.391466,11.3452924 C24.7757238,11.7593669 24.9765363,12.2989957 24.9568488,12.8648728 C24.9459264,13.1787492 24.8665286,13.4842747 24.7252634,13.7600069 C22.2683667,15.5036104 20.3011902,17.8865276 19.0568399,20.6520258 L19.0193539,20.7359456 L19.0194961,5.82905021 L19.7226562,5.82905021 L17.9648438,2.29629251 L16.2070312,5.82905021 L16.9101211,5.82905021 L16.9102519,20.7172004 C15.6681617,17.9252634 13.6906805,15.5195296 11.2160181,13.7625877 C11.0740812,13.4861128 10.9942323,13.1797053 10.9832766,12.8648728 C10.9456171,11.7805767 11.7293056,10.8553601 12.7716537,10.6955682 L12.8033186,10.6909609 L12.874282,10.8869312 L16.1779148,9.67865742 L11.6719031,7.56719879 L12.0736134,8.6762972 C10.3568814,9.10464641 9.06510276,10.5880923 8.89242338,12.3786082 C8.51991515,12.1956511 8.13957059,12.0260406 7.75198316,11.8704302 L7.66881807,11.8372996 L7.72893633,11.4943571 L4.26671367,10.8808937 L7.11844805,14.9734169 L7.29393022,13.973653 C10.350835,15.2871232 12.8662073,17.604911 14.4456289,20.492629 L14.4932033,20.5803096 L13.7915508,20.15156 C13.7040417,20.0980693 13.6147927,20.0479295 13.5240051,20.0012081 C13.0208275,19.6886302 12.4931239,19.4147146 11.9430703,19.1809348 C10.5121055,18.5727353 8.99265234,18.2643609 7.42689844,18.2643609 C6.40002429,18.2643609 5.38914131,18.3980192 4.40991762,18.6625662 L4.35554898,18.6773979 L4.21766016,18.2966573 L0.9140625,19.5049311 L5.42007422,21.6163544 L5.07995635,20.6774265 C5.84266789,20.4824695 6.62863412,20.3840155 7.42689844,20.3840155 C7.93338822,20.3840155 8.43382167,20.423608 8.92464364,20.5012359 C7.99317886,21.2716025 7.39486564,22.434694 7.38299253,23.7359877 L7.3828125,23.7754629 L7.38277734,24.5556689 L6.99609375,24.5556865 L6.99609375,28.0884442 L10.5117188,24.5556865 L9.49215234,24.5556689 L9.4921875,23.7754629 C9.4921875,22.6066853 10.4384531,21.6558082 11.6015625,21.6558082 C11.915267,21.6558082 12.2229982,21.7253802 12.5030591,21.858486 C13.0882577,22.2320709 13.6367522,22.6731661 14.1388945,23.1777556 C14.4933132,23.5339014 14.8162542,23.9132525 15.1063486,24.3123436 C15.3753628,25.2654021 15.3011951,26.4911855 14.8838457,27.9896985 L14.864873,28.0572231 L14.864873,28.0572231 L14.821977,28.2079485 L14.7859922,28.3325075 L14.7623289,28.4133171 L14.7388773,28.4924395 L14.7155949,28.5699577 L14.6924393,28.6459543 L14.669368,28.7205124 L14.6463386,28.7937147 L14.6233086,28.865644 L14.6117801,28.9011573 L14.5886697,28.9713326 C14.5758048,29.0100151 14.5628906,29.0482042 14.5498942,29.0859638 L14.5303338,29.1422891 L14.5066642,29.2090965 L14.4827392,29.2751281 C14.3190854,29.7216927 14.1347801,30.1201907 13.8697555,30.587845 L13.84616,30.629291 L13.8058782,30.699214 L13.785278,30.734594 L13.785278,30.734594 L13.7643647,30.7702667 L13.721577,30.8425318 C13.7070974,30.8668314 13.6923983,30.891347 13.6774727,30.9160922 L13.6320094,30.9910308 L13.5732044,31.0867682 L13.5732044,31.0867682 L13.5611734,31.1062039 L13.5121267,31.1849503 L13.4486933,31.2857388 L13.4486933,31.2857388 L13.4357166,31.3062235 L13.3693469,31.4103534 L13.3693469,31.4103534 L13.3004391,31.5174456 L13.2434297,31.6053611 C12.7872735,32.3065664 12.1248526,33.0337049 11.2561921,33.7867767 L11.217735,33.8200172 L11.1432777,33.8838224 C10.987828,34.0162872 10.8260348,34.1495497 10.6578981,34.2836099 L10.5945495,34.3339199 L10.5122274,34.398714 C10.474505,34.4282564 10.4364767,34.4578374 10.3981425,34.4874568 L10.3978462,34.4878537 C4.25616501,31.6082018 0,25.3474231 0,18.0877194 C0,8.09814783 8.0588745,3.70230162e-14 18,3.70230162e-14 Z" id="路径" fill="url(#linearGradient-1)"></path>
                    <rect id="矩形" x="0" y="0" width="36" height="36"></rect>
                </g>
            </g>
        </g>
    </g>
</svg>