<?xml version="1.0" encoding="UTF-8"?>
<svg width="63px" height="60px" viewBox="0 0 63 60" version="1.1" xmlns="http://www.w3.org/2000/svg" xmlns:xlink="http://www.w3.org/1999/xlink">
    <title>LOGO_HYDRASWAP</title>
    <defs>
        <linearGradient x1="87.1452332%" y1="20.0519919%" x2="14.981842%" y2="84.0505229%" id="linearGradient-1">
            <stop stop-color="#2FE4C9" offset="0%"></stop>
            <stop stop-color="#39B5F1" offset="20.8031573%"></stop>
            <stop stop-color="#6C83E1" offset="58.4753118%"></stop>
            <stop stop-color="#CF489D" offset="100%"></stop>
        </linearGradient>
    </defs>
    <g id="Hydraswap" stroke="none" stroke-width="1" fill="none" fill-rule="evenodd">
        <g id="HydraSwap-menu" transform="translate(-230.000000, -40.000000)">
            <g id="LOGO_HYDRASWAP" transform="translate(230.000000, 40.000000)">
                <path d="M32,0 C41.9411255,0 50,8.09814783 50,18.0877194 C50,25.3576472 45.7318384,31.6258342 39.5761942,34.5 L39.5759879,34.5 C38.1265169,33.4869076 37.0676977,32.401493 36.3995586,31.2433947 C35.3227578,29.3769682 34.7362109,27.9002401 34.6367188,25.6353891 C34.6172273,25.1917717 34.6591013,24.7832926 34.7623352,24.4099684 C35.0701528,23.9749789 35.4165406,23.562805 35.7997227,23.1777556 C36.308928,22.6660688 36.8657985,22.2196749 37.4602993,21.8428068 C37.7312745,21.7199351 38.0269469,21.6558082 38.328125,21.6558082 C39.4796033,21.6558082 40.418553,22.5877629 40.4372168,23.7404656 L40.4375,23.7754629 L40.4374648,24.5556689 L39.734375,24.5556865 L43.25,28.0884442 L43.25,24.5556865 L42.5468398,24.5556689 L42.546875,23.7754629 C42.546875,22.4589184 41.9465445,21.2806146 41.0064601,20.50252 C41.499726,20.4240101 42.0026635,20.3840155 42.5117188,20.3840155 C43.3026392,20.3840155 44.0814868,20.4806663 44.8376045,20.6720703 L44.8891227,20.6852674 L44.5507777,21.6194067 L49.0567895,19.5079481 L45.7531918,18.2996743 L45.6133304,18.685778 C44.6077619,18.4058387 43.5682037,18.2643609 42.5117188,18.2643609 C40.946,18.2643609 39.4265117,18.5727353 37.9955469,19.1809348 C37.4603312,19.4084084 36.9462812,19.6738815 36.4553997,19.9760256 C36.3628508,20.0221153 36.2718549,20.0717093 36.1826115,20.1247517 L36.1381367,20.15156 L35.4487752,20.5727963 C37.0129044,17.6708163 39.5190739,15.3362272 42.5713239,14.0051142 L42.663983,13.965085 L42.8409395,14.9734169 L45.6926738,10.8808937 L42.2304863,11.4943571 L42.2892147,11.8293561 C41.8667401,11.9957123 41.4527521,12.1786617 41.0481184,12.3775219 C40.9599941,11.4538777 40.5744102,10.5895861 39.9341574,9.89965261 C39.37476,9.29687414 38.6696825,8.87966161 37.8930753,8.68200787 L37.8627818,8.67441824 L38.2638207,7.56722705 L33.757809,9.67868568 L37.0614066,10.8869595 L37.1326107,10.6902766 C37.6144941,10.7551303 38.0555157,10.9832429 38.391466,11.3452924 C38.7757238,11.7593669 38.9765363,12.2989957 38.9568488,12.8648728 C38.9459264,13.1787492 38.8665286,13.4842747 38.7252634,13.7600069 C36.2683667,15.5036104 34.3011902,17.8865276 33.0568399,20.6520258 L33.0193539,20.7359456 L33.0194961,5.82905021 L33.7226562,5.82905021 L31.9648438,2.29629251 L30.2070312,5.82905021 L30.9101211,5.82905021 L30.9102519,20.7172004 C29.6681617,17.9252634 27.6906805,15.5195296 25.2160181,13.7625877 C25.0740812,13.4861128 24.9942323,13.1797053 24.9832766,12.8648728 C24.9456171,11.7805767 25.7293056,10.8553601 26.7716537,10.6955682 L26.8033186,10.6909609 L26.874282,10.8869312 L30.1779148,9.67865742 L25.6719031,7.56719879 L26.0736134,8.6762972 C24.3568814,9.10464641 23.0651028,10.5880923 22.8924234,12.3786082 C22.5199151,12.1956511 22.1395706,12.0260406 21.7519832,11.8704302 L21.6688181,11.8372996 L21.7289363,11.4943571 L18.2667137,10.8808937 L21.118448,14.9734169 L21.2939302,13.973653 C24.350835,15.2871232 26.8662073,17.604911 28.4456289,20.492629 L28.4932033,20.5803096 L27.7915508,20.15156 C27.7040417,20.0980693 27.6147927,20.0479295 27.5240051,20.0012081 C27.0208275,19.6886302 26.4931239,19.4147146 25.9430703,19.1809348 C24.5121055,18.5727353 22.9926523,18.2643609 21.4268984,18.2643609 C20.4000243,18.2643609 19.3891413,18.3980192 18.4099176,18.6625662 L18.355549,18.6773979 L18.2176602,18.2966573 L14.9140625,19.5049311 L19.4200742,21.6163544 L19.0799563,20.6774265 C19.8426679,20.4824695 20.6286341,20.3840155 21.4268984,20.3840155 C21.9333882,20.3840155 22.4338217,20.423608 22.9246436,20.5012359 C21.9931789,21.2716025 21.3948656,22.434694 21.3829925,23.7359877 L21.3828125,23.7754629 L21.3827773,24.5556689 L20.9960938,24.5556865 L20.9960938,28.0884442 L24.5117188,24.5556865 L23.4921523,24.5556689 L23.4921875,23.7754629 C23.4921875,22.6066853 24.4384531,21.6558082 25.6015625,21.6558082 C25.915267,21.6558082 26.2229982,21.7253802 26.5030591,21.858486 C27.0882577,22.2320709 27.6367522,22.6731661 28.1388945,23.1777556 C28.4933132,23.5339014 28.8162542,23.9132525 29.1063486,24.3123436 C29.3753628,25.2654021 29.3011951,26.4911855 28.8838457,27.9896985 L28.864873,28.0572231 L28.864873,28.0572231 L28.821977,28.2079485 L28.7859922,28.3325075 L28.7623289,28.4133171 L28.7388773,28.4924395 L28.7155949,28.5699577 L28.6924393,28.6459543 L28.669368,28.7205124 L28.6463386,28.7937147 L28.6233086,28.865644 L28.6117801,28.9011573 L28.5886697,28.9713326 C28.5758048,29.0100151 28.5628906,29.0482042 28.5498942,29.0859638 L28.5303338,29.1422891 L28.5066642,29.2090965 L28.4827392,29.2751281 C28.3190854,29.7216927 28.1347801,30.1201907 27.8697555,30.587845 L27.84616,30.629291 L27.8058782,30.699214 L27.785278,30.734594 L27.785278,30.734594 L27.7643647,30.7702667 L27.721577,30.8425318 C27.7070974,30.8668314 27.6923983,30.891347 27.6774727,30.9160922 L27.6320094,30.9910308 L27.5732044,31.0867682 L27.5732044,31.0867682 L27.5611734,31.1062039 L27.5121267,31.1849503 L27.4486933,31.2857388 L27.4486933,31.2857388 L27.4357166,31.3062235 L27.3693469,31.4103534 L27.3693469,31.4103534 L27.3004391,31.5174456 L27.2434297,31.6053611 C26.7872735,32.3065664 26.1248526,33.0337049 25.2561921,33.7867767 L25.217735,33.8200172 L25.1432777,33.8838224 C24.987828,34.0162872 24.8260348,34.1495497 24.6578981,34.2836099 L24.5945495,34.3339199 L24.5122274,34.398714 C24.474505,34.4282564 24.4364767,34.4578374 24.3981425,34.4874568 L24.3978462,34.4878537 C18.256165,31.6082018 14,25.3474231 14,18.0877194 C14,8.09814783 22.0588745,0 32,0 Z" id="路径" fill="url(#linearGradient-1)"></path>
                <rect id="矩形" x="14" y="0" width="36" height="36"></rect>
                <g id="编组-16" transform="translate(0.000000, 46.000000)">
                    <rect id="border备份" fill="#0B3835" x="0" y="0" width="63" height="14" rx="2"></rect>
                    <path d="M8.232,11 C8.32,11 8.396,10.968 8.46,10.904 C8.524,10.84 8.556,10.764 8.556,10.676 L8.556,10.676 L8.556,5.984 L10.116,8.684 C10.156,8.748 10.212,8.814 10.284,8.882 C10.356,8.95 10.448,8.984 10.56,8.984 L10.56,8.984 L11.184,8.984 C11.296,8.984 11.388,8.95 11.46,8.882 C11.532,8.814 11.588,8.748 11.628,8.684 L11.628,8.684 L13.188,5.984 L13.188,10.676 C13.188,10.764 13.22,10.84 13.284,10.904 C13.348,10.968 13.424,11 13.512,11 L13.512,11 L14.484,11 C14.572,11 14.648,10.968 14.712,10.904 C14.776,10.84 14.808,10.764 14.808,10.676 L14.808,10.676 L14.808,2.924 C14.808,2.836 14.776,2.76 14.712,2.696 C14.648,2.632 14.572,2.6 14.484,2.6 L14.484,2.6 L13.668,2.6 C13.508,2.6 13.39,2.644 13.314,2.732 C13.238,2.82 13.184,2.884 13.152,2.924 L13.152,2.924 L10.872,6.884 L8.592,2.924 C8.56,2.884 8.506,2.82 8.43,2.732 C8.354,2.644 8.236,2.6 8.076,2.6 L8.076,2.6 L7.26,2.6 C7.172,2.6 7.096,2.632 7.032,2.696 C6.968,2.76 6.936,2.836 6.936,2.924 L6.936,2.924 L6.936,10.676 C6.936,10.764 6.968,10.84 7.032,10.904 C7.096,10.968 7.172,11 7.26,11 L7.26,11 L8.232,11 Z M18.336,11.12 C18.824,11.12 19.226,11.038 19.542,10.874 C19.858,10.71 20.1,10.512 20.268,10.28 L20.268,10.28 L20.268,10.676 C20.268,10.764 20.3,10.84 20.364,10.904 C20.428,10.968 20.504,11 20.592,11 L20.592,11 L21.504,11 C21.592,11 21.668,10.968 21.732,10.904 C21.796,10.84 21.828,10.764 21.828,10.676 L21.828,10.676 L21.828,7.148 C21.828,6.74 21.764,6.378 21.636,6.062 C21.508,5.746 21.326,5.484 21.09,5.276 C20.854,5.068 20.572,4.91 20.244,4.802 C19.916,4.694 19.548,4.64 19.14,4.64 C18.732,4.64 18.374,4.694 18.066,4.802 C17.758,4.91 17.498,5.048 17.286,5.216 C17.074,5.384 16.91,5.564 16.794,5.756 C16.678,5.948 16.604,6.128 16.572,6.296 C16.556,6.376 16.576,6.44 16.632,6.488 C16.688,6.536 16.756,6.56 16.836,6.56 L16.836,6.56 L17.952,6.56 C18.024,6.56 18.09,6.548 18.15,6.524 C18.21,6.5 18.276,6.456 18.348,6.392 C18.452,6.296 18.56,6.22 18.672,6.164 C18.784,6.108 18.94,6.08 19.14,6.08 C19.46,6.08 19.728,6.148 19.944,6.284 C20.16,6.42 20.268,6.652 20.268,6.98 L20.268,6.98 L18.312,7.316 C17.656,7.428 17.132,7.64 16.74,7.952 C16.348,8.264 16.152,8.696 16.152,9.248 C16.152,9.52 16.202,9.77 16.302,9.998 C16.402,10.226 16.544,10.424 16.728,10.592 C16.912,10.76 17.14,10.89 17.412,10.982 C17.684,11.074 17.992,11.12 18.336,11.12 Z M18.576,9.68 C18.344,9.68 18.142,9.64 17.97,9.56 C17.798,9.48 17.712,9.356 17.712,9.188 C17.712,9.004 17.784,8.858 17.928,8.75 C18.072,8.642 18.308,8.56 18.636,8.504 L18.636,8.504 L20.268,8.216 L20.268,8.336 C20.268,8.504 20.232,8.668 20.16,8.828 C20.088,8.988 19.98,9.132 19.836,9.26 C19.692,9.388 19.514,9.49 19.302,9.566 C19.09,9.642 18.848,9.68 18.576,9.68 Z M24.72,4.064 C24.808,4.064 24.884,4.032 24.948,3.968 C25.012,3.904 25.044,3.828 25.044,3.74 L25.044,3.74 L25.044,2.804 C25.044,2.716 25.012,2.64 24.948,2.576 C24.884,2.512 24.808,2.48 24.72,2.48 L24.72,2.48 L23.688,2.48 C23.6,2.48 23.524,2.512 23.46,2.576 C23.396,2.64 23.364,2.716 23.364,2.804 L23.364,2.804 L23.364,3.74 C23.364,3.828 23.396,3.904 23.46,3.968 C23.524,4.032 23.6,4.064 23.688,4.064 L23.688,4.064 L24.72,4.064 Z M24.66,11 C24.748,11 24.824,10.968 24.888,10.904 C24.952,10.84 24.984,10.764 24.984,10.676 L24.984,10.676 L24.984,5.084 C24.984,4.996 24.952,4.92 24.888,4.856 C24.824,4.792 24.748,4.76 24.66,4.76 L24.66,4.76 L23.748,4.76 C23.66,4.76 23.584,4.792 23.52,4.856 C23.456,4.92 23.424,4.996 23.424,5.084 L23.424,5.084 L23.424,10.676 C23.424,10.764 23.456,10.84 23.52,10.904 C23.584,10.968 23.66,11 23.748,11 L23.748,11 L24.66,11 Z M27.876,11 C27.964,11 28.04,10.968 28.104,10.904 C28.168,10.84 28.2,10.764 28.2,10.676 L28.2,10.676 L28.2,7.628 C28.2,7.148 28.322,6.764 28.566,6.476 C28.81,6.188 29.144,6.044 29.568,6.044 C30.032,6.044 30.376,6.188 30.6,6.476 C30.824,6.764 30.936,7.148 30.936,7.628 L30.936,7.628 L30.936,10.676 C30.936,10.764 30.968,10.84 31.032,10.904 C31.096,10.968 31.172,11 31.26,11 L31.26,11 L32.172,11 C32.26,11 32.336,10.968 32.4,10.904 C32.464,10.84 32.496,10.764 32.496,10.676 L32.496,10.676 L32.496,7.448 C32.496,7.072 32.454,6.714 32.37,6.374 C32.286,6.034 32.144,5.736 31.944,5.48 C31.744,5.224 31.48,5.02 31.152,4.868 C30.824,4.716 30.416,4.64 29.928,4.64 C29.544,4.64 29.212,4.708 28.932,4.844 C28.652,4.98 28.408,5.152 28.2,5.36 L28.2,5.36 L28.2,5.084 C28.2,4.996 28.168,4.92 28.104,4.856 C28.04,4.792 27.964,4.76 27.876,4.76 L27.876,4.76 L26.964,4.76 C26.876,4.76 26.8,4.792 26.736,4.856 C26.672,4.92 26.64,4.996 26.64,5.084 L26.64,5.084 L26.64,10.676 C26.64,10.764 26.672,10.84 26.736,10.904 C26.8,10.968 26.876,11 26.964,11 L26.964,11 L27.876,11 Z M38.232,11 C38.32,11 38.396,10.968 38.46,10.904 C38.524,10.84 38.556,10.764 38.556,10.676 L38.556,10.676 L38.556,5.732 L41.916,10.724 C41.948,10.764 42,10.82 42.072,10.892 C42.144,10.964 42.248,11 42.384,11 L42.384,11 L43.224,11 C43.312,11 43.388,10.968 43.452,10.904 C43.516,10.84 43.548,10.764 43.548,10.676 L43.548,10.676 L43.548,2.924 C43.548,2.836 43.516,2.76 43.452,2.696 C43.388,2.632 43.312,2.6 43.224,2.6 L43.224,2.6 L42.252,2.6 C42.164,2.6 42.088,2.632 42.024,2.696 C41.96,2.76 41.928,2.836 41.928,2.924 L41.928,2.924 L41.928,7.868 L38.568,2.876 C38.536,2.836 38.484,2.78 38.412,2.708 C38.34,2.636 38.236,2.6 38.1,2.6 L38.1,2.6 L37.26,2.6 C37.172,2.6 37.096,2.632 37.032,2.696 C36.968,2.76 36.936,2.836 36.936,2.924 L36.936,2.924 L36.936,10.676 C36.936,10.764 36.968,10.84 37.032,10.904 C37.096,10.968 37.172,11 37.26,11 L37.26,11 L38.232,11 Z M47.94,11.12 C48.388,11.12 48.782,11.06 49.122,10.94 C49.462,10.82 49.748,10.676 49.98,10.508 C50.212,10.34 50.386,10.168 50.502,9.992 C50.618,9.816 50.68,9.672 50.688,9.56 C50.696,9.472 50.666,9.396 50.598,9.332 C50.53,9.268 50.452,9.236 50.364,9.236 L50.364,9.236 L49.404,9.236 C49.308,9.236 49.232,9.248 49.176,9.272 C49.12,9.296 49.048,9.34 48.96,9.404 C48.856,9.484 48.724,9.55 48.564,9.602 C48.404,9.654 48.196,9.68 47.94,9.68 C47.764,9.68 47.592,9.656 47.424,9.608 C47.256,9.56 47.108,9.488 46.98,9.392 C46.852,9.296 46.75,9.178 46.674,9.038 C46.598,8.898 46.56,8.736 46.56,8.552 L46.56,8.552 L50.568,8.552 C50.656,8.552 50.732,8.52 50.796,8.456 C50.86,8.392 50.892,8.316 50.892,8.228 L50.892,8.228 L50.892,7.688 C50.892,7.28 50.822,6.89 50.682,6.518 C50.542,6.146 50.344,5.822 50.088,5.546 C49.832,5.27 49.522,5.05 49.158,4.886 C48.794,4.722 48.388,4.64 47.94,4.64 C47.492,4.64 47.086,4.724 46.722,4.892 C46.358,5.06 46.048,5.29 45.792,5.582 C45.536,5.874 45.34,6.218 45.204,6.614 C45.068,7.01 45,7.432 45,7.88 C45,8.36 45.068,8.798 45.204,9.194 C45.34,9.59 45.536,9.932 45.792,10.22 C46.048,10.508 46.358,10.73 46.722,10.886 C47.086,11.042 47.492,11.12 47.94,11.12 Z M49.272,7.184 L46.56,7.184 C46.576,7.064 46.614,6.938 46.674,6.806 C46.734,6.674 46.82,6.554 46.932,6.446 C47.044,6.338 47.182,6.25 47.346,6.182 C47.51,6.114 47.708,6.08 47.94,6.08 C48.196,6.08 48.406,6.114 48.57,6.182 C48.734,6.25 48.866,6.338 48.966,6.446 C49.066,6.554 49.138,6.674 49.182,6.806 C49.226,6.938 49.256,7.064 49.272,7.184 L49.272,7.184 Z M55.968,11 C56.056,11 56.132,10.968 56.196,10.904 C56.26,10.84 56.292,10.764 56.292,10.676 L56.292,10.676 L56.292,9.884 C56.292,9.796 56.26,9.72 56.196,9.656 C56.132,9.592 56.056,9.56 55.968,9.56 L55.968,9.56 L55.236,9.56 C54.876,9.56 54.63,9.486 54.498,9.338 C54.366,9.19 54.3,8.992 54.3,8.744 L54.3,8.744 L54.3,6.2 L55.848,6.2 C55.936,6.2 56.012,6.168 56.076,6.104 C56.14,6.04 56.172,5.964 56.172,5.876 L56.172,5.876 L56.172,5.084 C56.172,4.996 56.14,4.92 56.076,4.856 C56.012,4.792 55.936,4.76 55.848,4.76 L55.848,4.76 L54.3,4.76 L54.3,2.804 C54.3,2.716 54.268,2.64 54.204,2.576 C54.14,2.512 54.064,2.48 53.976,2.48 L53.976,2.48 L53.064,2.48 C52.976,2.48 52.9,2.512 52.836,2.576 C52.772,2.64 52.74,2.716 52.74,2.804 L52.74,2.804 L52.74,4.76 L51.948,4.76 C51.86,4.76 51.784,4.792 51.72,4.856 C51.656,4.92 51.624,4.996 51.624,5.084 L51.624,5.084 L51.624,5.876 C51.624,5.964 51.656,6.04 51.72,6.104 C51.784,6.168 51.86,6.2 51.948,6.2 L51.948,6.2 L52.74,6.2 L52.74,8.78 C52.74,9.532 52.942,10.09 53.346,10.454 C53.75,10.818 54.328,11 55.08,11 L55.08,11 L55.968,11 Z" id="MainNet" fill="#A0AFAE" fill-rule="nonzero"></path>
                </g>
            </g>
        </g>
    </g>
</svg>