<?xml version="1.0" encoding="UTF-8"?>
<svg width="36px" height="36px" viewBox="0 0 36 36" version="1.1" xmlns="http://www.w3.org/2000/svg" xmlns:xlink="http://www.w3.org/1999/xlink">
    <title>icon_missing</title>
    <g id="Hydraswap" stroke="none" stroke-width="1" fill="none" fill-rule="evenodd">
        <g id="01-HydraSwap-Swap" transform="translate(-699.000000, -904.000000)">
            <g id="icon_missing" transform="translate(699.000000, 904.000000)">
                <circle id="椭圆形" fill="#0D121C" cx="18" cy="18" r="18"></circle>
                <g id="疑问" fill="#FFFFFF" fill-rule="nonzero">
                    <path d="M18.0000209,36.0000419 C8.05887657,36.0000419 0,27.9411653 0,18.0000209 C0,8.05887657 8.05887657,0 18.0000209,0 C27.9411653,0 36.0000419,8.05887657 36.0000419,18.0000209 C36.0000419,27.9411653 27.9411653,36.0000419 18.0000209,36.0000419 Z M18.0000209,2.57143659 C9.47915556,2.57143659 2.57143659,9.47915556 2.57143659,18.0000209 C2.57143659,26.5208863 9.47915556,33.4286053 18.0000209,33.4286053 C26.5208863,33.4286053 33.4286053,26.5208863 33.4286053,18.0000209 C33.4286053,9.47915556 26.5208863,2.57143659 18.0000209,2.57143659 Z M22.6020146,17.6305986 C22.2222985,18.0163124 21.5400133,18.6660288 20.5560134,19.5797443 C20.2842988,19.8368876 20.0657273,20.0631749 19.9020114,20.2586017 C19.738297,20.4531735 19.6157253,20.6314588 19.5360098,20.793459 C19.4562954,20.9554592 19.3937239,21.1174593 19.3500095,21.2794595 C19.3062951,21.4414597 19.2402952,21.7260323 19.1520093,22.1331738 C19.0002948,22.996317 18.5237242,23.4283175 17.7240064,23.4283175 C17.3082903,23.4283175 16.9577188,23.2868887 16.6740041,23.0048881 C16.3902893,22.7228879 16.2480047,22.3028873 16.2480047,21.7466023 C16.2480047,21.048887 16.3517193,20.4454574 16.5600052,19.9346013 C16.7682911,19.4237453 17.0442901,18.9754568 17.3880062,18.5888853 C17.7317208,18.2031716 18.1962915,17.7445999 18.780009,17.2131704 C19.2917228,16.7477398 19.66201,16.3971683 19.8900091,16.1605981 C20.1180092,15.9240265 20.3100107,15.6600253 20.4660098,15.369455 C20.6220098,15.0788833 20.70001,14.7634555 20.70001,14.4231672 C20.70001,13.758882 20.4617242,13.1983079 19.9860104,12.7414519 C19.5102965,12.2854502 18.8957224,12.0565933 18.1440071,12.0565933 C17.2637217,12.0565933 16.6157209,12.2871652 16.2000048,12.7474496 C15.7842887,13.2085947 15.4320051,13.8874521 15.1440047,14.7840219 C14.8722902,15.7225929 14.3562894,16.1914513 13.5960029,16.1914513 C13.147718,16.1914513 12.7697176,16.0277369 12.4620016,15.6994495 C12.154287,15.3720207 12.0000022,15.0163065 12.0000022,14.6348784 C12.0000022,13.8454474 12.2442882,13.046591 12.7320019,12.2374478 C13.2197181,11.4274469 13.9320021,10.7571606 14.8680032,10.225731 C15.8040043,9.69430152 16.8960044,9.42858675 18.1440071,9.42858675 C19.3037217,9.42858675 20.3280108,9.65058713 21.2160095,10.0945875 C22.1040117,10.5385869 22.7897246,11.1428743 23.274013,11.9074463 C23.758298,12.6711604 24.000015,13.5017349 24.000015,14.3983046 C24.000015,15.1037332 23.862015,15.7225929 23.5860146,16.2540224 C23.3100141,16.785452 22.9817271,17.2440236 22.6020146,17.6305951 L22.6020146,17.6305986 Z M17.8560208,24.5614469 C18.3600214,24.5614469 18.7843086,24.7405936 19.1280211,25.0971655 C19.4717357,25.454596 19.6440205,25.8943098 19.6440205,26.4171682 C19.6440205,26.9983123 19.4640203,27.4551683 19.1040199,27.7877398 C18.7440195,28.1194545 18.3283034,28.2857392 17.8560173,28.2857392 C17.3683011,28.2857392 16.9423017,28.1220248 16.5780158,27.7937374 C16.2137298,27.4654515 16.032014,27.0068799 16.032014,26.4171647 C16.032014,25.8943063 16.2077286,25.4545925 16.5600158,25.097162 C16.9123029,24.7405893 17.3443034,24.5614469 17.8560173,24.5614469 L17.8560208,24.5614469 Z" id="形状"></path>
                </g>
            </g>
        </g>
    </g>
</svg>