<?xml version="1.0" encoding="UTF-8"?>
<svg width="651px" height="547px" viewBox="0 0 651 547" version="1.1" xmlns="http://www.w3.org/2000/svg" xmlns:xlink="http://www.w3.org/1999/xlink">
    <title>img-bg</title>
    <defs>
        <linearGradient x1="73.831126%" y1="33.6857617%" x2="30.5642191%" y2="78.6340394%" id="linearGradient-1">
            <stop stop-color="#00FFD1" offset="0%"></stop>
            <stop stop-color="#6676F5" offset="61.7429024%"></stop>
            <stop stop-color="#C400FF" offset="100%"></stop>
        </linearGradient>
        <filter x="-36.9%" y="-48.7%" width="173.7%" height="197.4%" filterUnits="objectBoundingBox" id="filter-2">
            <feGaussianBlur stdDeviation="50" in="SourceGraphic"></feGaussianBlur>
        </filter>
    </defs>
    <g id="é¡µé¢-1" stroke="none" stroke-width="1" fill="none" fill-rule="evenodd" opacity="0.300000012">
        <g id="Crema-swap" transform="translate(-496.000000, -172.000000)" fill="url(#linearGradient-1)" fill-rule="nonzero">
            <path d="M1024.65421,374.121129 C1024.80748,374.861348 1024.91008,375.610896 1024.96144,376.36445 L1025,377.497121 L1025,391.496211 C1025,504.99282 933.889947,597 821.5,597 C709.110053,597 618,504.99282 618,391.496211 L618,377.497121 C618,368.737981 625.031449,361.637296 633.705182,361.637296 C634.985918,361.637296 636.261845,361.7955 637.50454,362.108383 L638.15619,362.272455 C699.464603,404.563194 760.773016,425.708563 822.081429,425.708563 C883.389841,425.708563 943.018571,404.563194 1000.96762,362.272455 L1005.32396,361.352531 C1014.15343,359.488022 1022.80788,365.204718 1024.65421,374.121129 Z M777.079833,311.971174 C790.446779,322.096724 831.086967,336.453254 899.000398,355.040764 C921.775581,358.489687 937.208563,358.489687 945.299347,355.040764 C957.435521,349.867381 986.064863,347.500821 983.881804,353.907354 C976.113213,376.705513 896.654234,406.839138 812.245021,405.982122 C727.835807,405.125107 658.328949,364.501975 645.982563,347.500821 C633.636177,330.499667 647.366754,321.522479 653.539947,316.988838 C659.713141,312.455196 740.689667,284.405384 777.079833,311.971174 Z M938.130581,293.673391 C968.084481,281.281717 983.688892,297.140928 986.055558,299.914958 C988.422223,302.688988 992.563888,307.54354 987.830557,317.946153 C983.097225,328.348765 957.474544,344.468557 925.113921,344.992945 C892.7533,345.517332 847.25293,316.628208 858.847288,319.333168 C866.576861,321.136474 877.424078,321.367643 891.388939,320.026675 C901.265646,318.341947 909.746197,315.336748 916.830592,311.011078 C927.457186,304.522572 928.072254,297.834435 938.130581,293.673391 Z" id="img-bg" filter="url(#filter-2)"></path>
        </g>
    </g>
</svg>