<?xml version="1.0" encoding="UTF-8"?>
<svg width="188px" height="188px" viewBox="0 0 188 188" version="1.1" xmlns="http://www.w3.org/2000/svg" xmlns:xlink="http://www.w3.org/1999/xlink">
    <title>蒙版</title>
    <defs>
        <path d="M94,181.629131 C95.759267,181.629131 97.1854346,183.055298 97.1854346,184.814565 C97.1854346,186.573832 95.759267,188 94,188 C92.240733,188 90.8145654,186.573832 90.8145654,184.814565 C90.8145654,183.055298 92.240733,181.629131 94,181.629131 Z M104.679305,180.975956 C106.425458,180.761556 108.014802,182.003287 108.229202,183.749441 C108.443603,185.495594 107.201872,187.084938 105.455718,187.299338 C103.709565,187.513739 102.120221,186.272008 101.905821,184.525854 C101.69142,182.779701 102.933151,181.190357 104.679305,180.975956 Z M78.2066211,183.487437 C78.4514638,181.745292 80.0622362,180.531487 81.8043821,180.77633 C83.5465281,181.021173 84.7603322,182.631945 84.5154895,184.374091 C84.2706469,186.116237 82.6598744,187.330041 80.9177285,187.085198 C79.1755826,186.840356 77.9617785,185.229583 78.2066211,183.487437 Z M116.680088,178.64324 C118.379409,178.187909 120.126101,179.196362 120.581433,180.895683 C121.036764,182.595004 120.028312,184.341696 118.32899,184.797028 C116.629669,185.252359 114.882977,184.243907 114.427645,182.544585 C113.972314,180.845264 114.980767,179.098572 116.680088,178.64324 Z M67.4185673,180.895683 C67.8738991,179.196362 69.6205907,178.187909 71.3199121,178.64324 C73.0192335,179.098572 74.0276863,180.845264 73.5723545,182.544585 C73.1170227,184.243907 71.3703312,185.252359 69.6710098,184.797028 C67.9716884,184.341696 66.9632355,182.595004 67.4185673,180.895683 Z M126.82645,175.248315 C128.457614,174.589282 130.314186,175.37735 130.973219,177.008514 C131.632252,178.639678 130.844184,180.496249 129.21302,181.155282 C127.581856,181.814315 125.725284,181.026248 125.066251,179.395084 C124.407218,177.76392 125.195286,175.907348 126.82645,175.248315 Z M55.5837143,176.3506 C56.2711147,174.731186 58.1411571,173.97564 59.7605709,174.66304 C61.3799847,175.35044 62.1355308,177.220483 61.4481304,178.839897 C60.7607301,180.45931 58.8906877,181.214857 57.2712739,180.527456 C55.6518601,179.840056 54.896314,177.970013 55.5837143,176.3506 Z M94.5012278,173.075282 C95.6740725,173.075282 96.6248509,174.026061 96.6248509,175.198905 C96.6248509,176.37175 95.6740725,177.322529 94.5012278,177.322529 C93.3283832,177.322529 92.3776047,176.37175 92.3776047,175.198905 C92.3776047,174.026061 93.3283832,173.075282 94.5012278,173.075282 Z M104.141697,172.485646 C105.3058,172.342712 106.365362,173.170533 106.508296,174.334635 C106.65123,175.498738 105.823409,176.5583 104.659306,176.701234 C103.495204,176.844168 102.435642,176.016347 102.292708,174.852245 C102.149774,173.688142 102.977595,172.62858 104.141697,172.485646 Z M81.0934378,174.112843 C81.2566662,172.951413 82.3305146,172.14221 83.4919452,172.305438 C84.6533758,172.468667 85.4625785,173.542515 85.2993501,174.703946 C85.1361217,175.865376 84.0622734,176.674579 82.9008428,176.511351 C81.7394121,176.348122 80.9302094,175.274274 81.0934378,174.112843 Z M137.814565,169.889053 C139.338135,169.00942 141.286317,169.531433 142.16595,171.055003 C143.045583,172.578573 142.52357,174.526754 141,175.406388 C139.47643,176.286021 137.528249,175.764008 136.648615,174.240438 C135.768982,172.716868 136.290995,170.768687 137.814565,169.889053 Z M45.83405,171.055003 C46.7136835,169.531433 48.6618648,169.00942 50.1854346,169.889053 C51.7090045,170.768687 52.2310181,172.716868 51.3513846,174.240438 C50.4717512,175.764008 48.5235699,176.286021 47,175.406388 C45.4764301,174.526754 44.9544165,172.578573 45.83405,171.055003 Z M114.975098,170.379846 C116.107979,170.076292 117.27244,170.748594 117.575995,171.881475 C117.879549,173.014355 117.207247,174.178816 116.074366,174.482371 C114.941485,174.785926 113.777024,174.113624 113.47347,172.980743 C113.169915,171.847862 113.842217,170.683401 114.975098,170.379846 Z M71.426461,171.881475 C71.7300155,170.748594 72.8944766,170.076292 74.0273575,170.379846 C75.1602384,170.683401 75.8325403,171.847862 75.5289858,172.980743 C75.2254313,174.113624 74.0609702,174.785926 72.9280893,174.482371 C71.7952084,174.178816 71.1229065,173.014355 71.426461,171.881475 Z M124.134468,167.315164 C125.22191,166.875809 126.459624,167.401187 126.89898,168.48863 C127.338335,169.576073 126.812957,170.813787 125.725514,171.253142 C124.638071,171.692498 123.400357,171.167119 122.961002,170.079676 C122.521646,168.992234 123.047025,167.754519 124.134468,167.315164 Z M60.8078864,167.911862 C61.2661533,166.832253 62.5128482,166.328555 63.5924574,166.786822 C64.6720666,167.245089 65.175764,168.491784 64.7174971,169.571393 C64.2592302,170.651002 63.0125353,171.1547 61.9329261,170.696433 C60.8533169,170.238166 60.3496195,168.991471 60.8078864,167.911862 Z M146.736527,163.983735 C148.14154,162.924982 150.138818,163.205681 151.197571,164.610694 C152.256324,166.015707 151.975625,168.012985 150.570612,169.071738 C149.165599,170.130491 147.168322,169.849792 146.109569,168.444779 C145.050815,167.039766 145.331514,165.042489 146.736527,163.983735 Z M35.578814,163.601705 C36.6619269,162.215383 38.6637988,161.969584 40.0501201,163.052697 C41.4364414,164.13581 41.6822404,166.137682 40.5991275,167.524003 C39.5160146,168.910325 37.5141426,169.156124 36.1278213,168.073011 C34.7415,166.989898 34.4957011,164.988026 35.578814,163.601705 Z M52.0478245,163.254527 C52.6342469,162.238814 53.9330344,161.890805 54.9487476,162.477227 C55.9644609,163.06365 56.31247,164.362437 55.7260476,165.37815 C55.1396253,166.393864 53.8408378,166.741873 52.8251245,166.15545 C51.8094113,165.569028 51.4614022,164.270241 52.0478245,163.254527 Z M134.053708,162.477227 C135.069421,161.890805 136.368209,162.238814 136.954631,163.254527 C137.541053,164.270241 137.193044,165.569028 136.177331,166.15545 C135.161618,166.741873 133.86283,166.393864 133.276408,165.37815 C132.689986,164.362437 133.037995,163.06365 134.053708,162.477227 Z M155.963153,155.963153 C157.207142,154.719163 159.224048,154.719163 160.468037,155.963153 C161.712027,157.207142 161.712027,159.224048 160.468037,160.468037 C159.224048,161.712027 157.207142,161.712027 155.963153,160.468037 C154.719163,159.224048 154.719163,157.207142 155.963153,155.963153 Z M27.5319626,155.963153 C28.7759522,154.719163 30.7928578,154.719163 32.0368474,155.963153 C33.2808371,157.207142 33.2808371,159.224048 32.0368474,160.468037 C30.7928578,161.712027 28.7759522,161.712027 27.5319626,160.468037 C26.287973,159.224048 26.287973,157.207142 27.5319626,155.963153 Z M142.107781,157.146352 C143.044457,156.440517 144.375975,156.62765 145.08181,157.564325 C145.787646,158.501 145.600513,159.832519 144.663838,160.538354 C143.727163,161.24419 142.395644,161.057057 141.689809,160.120381 C140.983973,159.183706 141.171106,157.852188 142.107781,157.146352 Z M42.8184804,156.671886 C43.5405557,155.747672 44.875137,155.583806 45.7993512,156.305881 C46.7235654,157.027957 46.8874314,158.362538 46.1653561,159.286752 C45.4432809,160.210966 44.1086996,160.374832 43.1844854,159.652757 C42.2602712,158.930682 42.0964052,157.596101 42.8184804,156.671886 Z M35.5623173,149.905976 C36.3916437,149.07665 37.7362475,149.07665 38.5655739,149.905976 C39.3949003,150.735302 39.3949003,152.079906 38.5655739,152.909233 C37.7362475,153.738559 36.3916437,153.738559 35.5623173,152.909233 C34.7329909,152.079906 34.7329909,150.735302 35.5623173,149.905976 Z M150.436882,149.905976 C151.266208,149.07665 152.610812,149.07665 153.440138,149.905976 C154.269465,150.735302 154.269465,152.079906 153.440138,152.909233 C152.610812,153.738559 151.266208,153.738559 150.436882,152.909233 C149.607555,152.079906 149.607555,150.735302 150.436882,149.905976 Z M163.052697,147.94988 C164.13581,146.563559 166.137682,146.31776 167.524003,147.400873 C168.910325,148.483985 169.156124,150.485857 168.073011,151.872179 C166.989898,153.2585 164.988026,153.504299 163.601705,152.421186 C162.215383,151.338073 161.969584,149.336201 163.052697,147.94988 Z M19.5552209,146.109569 C20.9602339,145.050815 22.9575112,145.331514 24.0162645,146.736527 C25.0750178,148.14154 24.7943188,150.138818 23.3893057,151.197571 C21.9842926,152.256324 19.9870154,151.975625 18.9282621,150.570612 C17.8695088,149.165599 18.1502078,147.168322 19.5552209,146.109569 Z M156.836787,142.672199 C157.558863,141.747984 158.893444,141.584118 159.817658,142.306194 C160.741872,143.028269 160.905738,144.36285 160.183663,145.287064 C159.461588,146.211279 158.127006,146.375145 157.202792,145.653069 C156.278578,144.930994 156.114712,143.596413 156.836787,142.672199 Z M28.3511683,141.158903 C29.2878437,140.453068 30.6193619,140.6402 31.3251974,141.576876 C32.031033,142.513551 31.8439003,143.845069 30.9072249,144.550905 C29.9705495,145.25674 28.6390313,145.069608 27.9331958,144.132932 C27.2273603,143.196257 27.414493,141.864739 28.3511683,141.158903 Z M169.889053,137.814565 C170.768687,136.290995 172.716868,135.768982 174.240438,136.648615 C175.764008,137.528249 176.286021,139.47643 175.406388,141 C174.526754,142.52357 172.578573,143.045583 171.055003,142.16595 C169.531433,141.286317 169.00942,139.338135 169.889053,137.814565 Z M13.759562,136.648615 C15.2831319,135.768982 17.2313132,136.290995 18.1109467,137.814565 C18.9905802,139.338135 18.4685666,141.286317 16.9449967,142.16595 C15.4214268,143.045583 13.4732455,142.52357 12.593612,141 C11.7139786,139.47643 12.2359922,137.528249 13.759562,136.648615 Z M23.0933995,132.745502 C24.1091127,132.15908 25.4079002,132.507089 25.9943226,133.522802 C26.5807449,134.538515 26.2327358,135.837303 25.2170226,136.423725 C24.2013093,137.010148 22.9025218,136.662139 22.3160995,135.646425 C21.7296771,134.630712 22.0776862,133.331925 23.0933995,132.745502 Z M163.008133,133.522802 C163.594555,132.507089 164.893343,132.15908 165.909056,132.745502 C166.924769,133.331925 167.272778,134.630712 166.686356,135.646425 C166.099934,136.662139 164.801146,137.010148 163.785433,136.423725 C162.76972,135.837303 162.421711,134.538515 163.008133,133.522802 Z M174.66304,128.239429 C175.35044,126.620015 177.220483,125.864469 178.839897,126.55187 C180.45931,127.23927 181.214857,129.109312 180.527456,130.728726 C179.840056,132.34814 177.970013,133.103686 176.3506,132.416286 C174.731186,131.728885 173.97564,129.858843 174.66304,128.239429 Z M8.60491642,125.066251 C10.2360804,124.407218 12.0926518,125.195286 12.7516848,126.82645 C13.4107178,128.457614 12.62265,130.314186 10.9914861,130.973219 C9.36032213,131.632252 7.50375068,130.844184 6.84471767,129.21302 C6.18568466,127.581856 6.97375249,125.725284 8.60491642,125.066251 Z M167.317728,124.879092 C167.775995,123.799483 169.02269,123.295786 170.102299,123.754053 C171.181908,124.21232 171.685605,125.459015 171.227338,126.538624 C170.769072,127.618233 169.522377,128.12193 168.442767,127.663663 C167.363158,127.205397 166.859461,125.958702 167.317728,124.879092 Z M18.3918735,122.430096 C19.4793161,121.990741 20.7170304,122.516119 21.1563858,123.603562 C21.5957411,124.691004 21.0703625,125.928719 19.9829199,126.368074 C18.8954773,126.807429 17.657763,126.282051 17.2184077,125.194608 C16.7790523,124.107166 17.3044309,122.869451 18.3918735,122.430096 Z M5.45541477,114.427645 C7.15473618,113.972314 8.90142771,114.980767 9.35675951,116.680088 C9.81209131,118.379409 8.80363848,120.126101 7.10431707,120.581433 C5.40499567,121.036764 3.65830413,120.028312 3.20297233,118.32899 C2.74764053,116.629669 3.75609336,114.882977 5.45541477,114.427645 Z M178.64324,116.680088 C179.098572,114.980767 180.845264,113.972314 182.544585,114.427645 C184.243907,114.882977 185.252359,116.629669 184.797028,118.32899 C184.341696,120.028312 182.595004,121.036764 180.895683,120.581433 C179.196362,120.126101 178.187909,118.379409 178.64324,116.680088 Z M15.4908071,112.942564 C16.6236881,112.63901 17.7881491,113.311311 18.0917036,114.444192 C18.3952581,115.577073 17.7229563,116.741534 16.5900753,117.045089 C15.4571944,117.348643 14.2927334,116.676341 13.9891788,115.543461 C13.6856243,114.41058 14.3579262,113.246119 15.4908071,112.942564 Z M170.910752,114.444192 C171.214307,113.311311 172.378768,112.63901 173.511649,112.942564 C174.644529,113.246119 175.316831,114.41058 175.013277,115.543461 C174.709722,116.676341 173.545261,117.348643 172.41238,117.045089 C171.279499,116.741534 170.607197,115.577073 170.910752,114.444192 Z M180.77633,106.195618 C181.021173,104.453472 182.631945,103.239668 184.374091,103.48451 C186.116237,103.729353 187.330041,105.340126 187.085198,107.082271 C186.840356,108.824417 185.229583,110.038222 183.487437,109.793379 C181.745292,109.548536 180.531487,107.937764 180.77633,106.195618 Z M3.47414582,101.905821 C5.22029948,101.69142 6.80964283,102.933151 7.02404354,104.679305 C7.23844425,106.425458 5.99671314,108.014802 4.25055947,108.229202 C2.50440581,108.443603 0.915062457,107.201872 0.700661746,105.455718 C0.486261034,103.709565 1.72799215,102.120221 3.47414582,101.905821 Z M172.836344,104.979605 C172.999573,103.818174 174.073421,103.008971 175.234851,103.1722 C176.396282,103.335428 177.205485,104.409276 177.042256,105.570707 C176.879028,106.732138 175.80518,107.54134 174.643749,107.378112 C173.482318,107.214884 172.673116,106.141035 172.836344,104.979605 Z M13.6193053,101.761802 C14.7834078,101.618868 15.84297,102.446689 15.9859038,103.610792 C16.1288376,104.774894 15.3010169,105.834456 14.1369145,105.97739 C12.972812,106.120324 11.9132498,105.292503 11.770316,104.128401 C11.6273822,102.964298 12.4552029,101.904736 13.6193053,101.761802 Z M3.18543465,90.8145654 C4.94470162,90.8145654 6.37086929,92.240733 6.37086929,94 C6.37086929,95.759267 4.94470162,97.1854346 3.18543465,97.1854346 C1.42616767,97.1854346 -8.8817842e-16,95.759267 -8.8817842e-16,94 C0,92.240733 1.42616767,90.8145654 3.18543465,90.8145654 Z M184.814565,90.8145654 C186.573832,90.8145654 188,92.240733 188,94 C188,95.759267 186.573832,97.1854346 184.814565,97.1854346 C183.055298,97.1854346 181.629131,95.759267 181.629131,94 C181.629131,92.240733 183.055298,90.8145654 184.814565,90.8145654 Z M13.2726444,91.8466989 C14.445489,91.8466989 15.3962675,92.7974774 15.3962675,93.970322 C15.3962675,95.1431667 14.445489,96.0939451 13.2726444,96.0939451 C12.0997997,96.0939451 11.1490213,95.1431667 11.1490213,93.970322 C11.1490213,92.7974774 12.0997997,91.8466989 13.2726444,91.8466989 Z M175.729811,91.8466989 C176.902656,91.8466989 177.853434,92.7974774 177.853434,93.970322 C177.853434,95.1431667 176.902656,96.0939451 175.729811,96.0939451 C174.556967,96.0939451 173.606188,95.1431667 173.606188,93.970322 C173.606188,92.7974774 174.556967,91.8466989 175.729811,91.8466989 Z M174.865541,81.963254 C176.029644,81.8203202 177.089206,82.6481409 177.23214,83.8122434 C177.375073,84.9763458 176.547253,86.035908 175.38315,86.1788418 C174.219048,86.3217756 173.159486,85.4939549 173.016552,84.3298525 C172.873618,83.16575 173.701439,82.1061878 174.865541,81.963254 Z M183.749441,79.7707977 C185.495594,79.5563969 187.084938,80.7981281 187.299338,82.5442817 C187.513739,84.2904354 186.272008,85.8797787 184.525854,86.0941794 C182.779701,86.3085802 181.190357,85.066849 180.975956,83.3206954 C180.761556,81.5745417 182.003287,79.9851984 183.749441,79.7707977 Z M11.9601992,82.369937 C12.1234276,81.2085064 13.197276,80.3993036 14.3587066,80.562532 C15.5201372,80.7257605 16.3293399,81.7996088 16.1661115,82.9610394 C16.0028831,84.12247 14.9290347,84.9316728 13.7676041,84.7684443 C12.6061735,84.6052159 11.7969708,83.5313676 11.9601992,82.369937 Z M0.914801538,80.9177285 C1.15964418,79.1755826 2.77041666,77.9617785 4.51256257,78.2066211 C6.25470848,78.4514638 7.46851261,80.0622362 7.22366997,81.8043821 C6.97882733,83.5465281 5.36805485,84.7603322 3.62590894,84.5154895 C1.88376302,84.2706469 0.669958898,82.6598744 0.914801538,80.9177285 Z M13.9891788,72.3971835 C14.2927334,71.2643026 15.4571944,70.5920007 16.5900753,70.8955552 C17.7229563,71.1991098 18.3952581,72.3635708 18.0917036,73.4964517 C17.7881491,74.6293327 16.6236881,75.3016346 15.4908071,74.99808 C14.3579262,74.6945255 13.6856243,73.5300645 13.9891788,72.3971835 Z M172.41238,70.8955552 C173.545261,70.5920007 174.709722,71.2643026 175.013277,72.3971835 C175.316831,73.5300645 174.644529,74.6945255 173.511649,74.99808 C172.378768,75.3016346 171.214307,74.6293327 170.910752,73.4964517 C170.607197,72.3635708 171.279499,71.1991098 172.41238,70.8955552 Z M180.895683,67.4185673 C182.595004,66.9632355 184.341696,67.9716884 184.797028,69.6710098 C185.252359,71.3703312 184.243907,73.1170227 182.544585,73.5723545 C180.845264,74.0276863 179.098572,73.0192335 178.64324,71.3199121 C178.187909,69.6205907 179.196362,67.8738991 180.895683,67.4185673 Z M3.20297233,69.6710098 C3.65830413,67.9716884 5.40499567,66.9632355 7.10431707,67.4185673 C8.80363848,67.8738991 9.81209131,69.6205907 9.35675951,71.3199121 C8.90142771,73.0192335 7.15473618,74.0276863 5.45541477,73.5723545 C3.75609336,73.1170227 2.74764053,71.3703312 3.20297233,69.6710098 Z M169.019536,61.5725701 C170.106978,61.1332147 171.344693,61.6585933 171.784048,62.7460359 C172.223403,63.8334785 171.698025,65.0711928 170.610582,65.5105481 C169.52314,65.9499035 168.285425,65.4245249 167.84607,64.3370823 C167.406715,63.2496397 167.932093,62.0119254 169.019536,61.5725701 Z M17.7751171,61.4020203 C18.233384,60.3224111 19.480079,59.8187137 20.5596882,60.2769806 C21.6392973,60.7352475 22.1429948,61.9819424 21.6847279,63.0615516 C21.226461,64.1411608 19.979766,64.6448582 18.9001569,64.1865913 C17.8205477,63.7283244 17.3168502,62.4816295 17.7751171,61.4020203 Z M177.008514,57.0267815 C178.639678,56.3677485 180.496249,57.1558163 181.155282,58.7869802 C181.814315,60.4181442 181.026248,62.2747156 179.395084,62.9337486 C177.76392,63.5927816 175.907348,62.8047138 175.248315,61.1735499 C174.589282,59.5423859 175.37735,57.6858145 177.008514,57.0267815 Z M7.47254378,57.2712739 C8.15994415,55.6518601 10.0299865,54.896314 11.6494003,55.5837143 C13.2688141,56.2711147 14.0243602,58.1411571 13.3369599,59.7605709 C12.6495595,61.3799847 10.7795171,62.1355308 9.16010335,61.4481304 C7.54068956,60.7607301 6.7851434,58.8906877 7.47254378,57.2712739 Z M22.3160995,52.2942188 C22.9025218,51.2785055 24.2013093,50.9304964 25.2170226,51.5169188 C26.2327358,52.1033411 26.5807449,53.4021286 25.9943226,54.4178419 C25.4079002,55.4335551 24.1091127,55.7815642 23.0933995,55.1951419 C22.0776862,54.6087195 21.7296771,53.309932 22.3160995,52.2942188 Z M163.785433,51.5169188 C164.801146,50.9304964 166.099934,51.2785055 166.686356,52.2942188 C167.272778,53.309932 166.924769,54.6087195 165.909056,55.1951419 C164.893343,55.7815642 163.594555,55.4335551 163.008133,54.4178419 C162.421711,53.4021286 162.76972,52.1033411 163.785433,51.5169188 Z M12.593612,47 C13.4732455,45.4764301 15.4214268,44.9544165 16.9449967,45.83405 C18.4685666,46.7136835 18.9905802,48.6618648 18.1109467,50.1854346 C17.2313132,51.7090045 15.2831319,52.2310181 13.759562,51.3513846 C12.2359922,50.4717512 11.7139786,48.5235699 12.593612,47 Z M171.055003,45.83405 C172.578573,44.9544165 174.526754,45.4764301 175.406388,47 C176.286021,48.5235699 175.764008,50.4717512 174.240438,51.3513846 C172.716868,52.2310181 170.768687,51.7090045 169.889053,50.1854346 C169.00942,48.6618648 169.531433,46.7136835 171.055003,45.83405 Z M158.095231,43.3897394 C159.031906,42.6839039 160.363424,42.8710365 161.06926,43.8077119 C161.775095,44.7443873 161.587963,46.0759055 160.651287,46.781741 C159.714612,47.4875765 158.383094,47.3004439 157.677258,46.3637685 C156.971423,45.4270931 157.158555,44.0955749 158.095231,43.3897394 Z M28.8187927,42.6535796 C29.540868,41.7293654 30.8754493,41.5654994 31.7996635,42.2875747 C32.7238777,43.0096499 32.8877437,44.3442312 32.1656684,45.2684454 C31.4435931,46.1926596 30.1090118,46.3565256 29.1847976,45.6344503 C28.2605834,44.9123751 28.0967174,43.5777938 28.8187927,42.6535796 Z M164.610694,36.802429 C166.015707,35.7436757 168.012985,36.0243747 169.071738,37.4293878 C170.130491,38.8344009 169.849792,40.8316782 168.444779,41.8904315 C167.039766,42.9491848 165.042489,42.6684858 163.983735,41.2634727 C162.924982,39.8584596 163.205681,37.8611823 164.610694,36.802429 Z M19.9269892,36.1278213 C21.0101021,34.7415 23.011974,34.4957011 24.3982953,35.578814 C25.7846166,36.6619269 26.0304156,38.6637988 24.9473027,40.0501201 C23.8641898,41.4364414 21.8623178,41.6822404 20.4759965,40.5991275 C19.0896752,39.5160146 18.8438763,37.5141426 19.9269892,36.1278213 Z M150.436882,35.0314116 C151.266208,34.2020852 152.610812,34.2020852 153.440138,35.0314116 C154.269465,35.860738 154.269465,37.2053417 153.440138,38.0346681 C152.610812,38.8639945 151.266208,38.8639945 150.436882,38.0346681 C149.607555,37.2053417 149.607555,35.860738 150.436882,35.0314116 Z M35.5623173,35.0314116 C36.3916437,34.2020852 37.7362475,34.2020852 38.5655739,35.0314116 C39.3949003,35.860738 39.3949003,37.2053417 38.5655739,38.0346681 C37.7362475,38.8639945 36.3916437,38.8639945 35.5623173,38.0346681 C34.7329909,37.2053417 34.7329909,35.860738 35.5623173,35.0314116 Z M27.5319626,27.5319626 C28.7759522,26.287973 30.7928578,26.287973 32.0368474,27.5319626 C33.2808371,28.7759522 33.2808371,30.7928578 32.0368474,32.0368474 C30.7928578,33.2808371 28.7759522,33.2808371 27.5319626,32.0368474 C26.287973,30.7928578 26.287973,28.7759522 27.5319626,27.5319626 Z M155.963153,27.5319626 C157.207142,26.287973 159.224048,26.287973 160.468037,27.5319626 C161.712027,28.7759522 161.712027,30.7928578 160.468037,32.0368474 C159.224048,33.2808371 157.207142,33.2808371 155.963153,32.0368474 C154.719163,30.7928578 154.719163,28.7759522 155.963153,27.5319626 Z M142.8371,28.6538918 C143.559175,27.7296776 144.893756,27.5658117 145.81797,28.2878869 C146.742184,29.0099622 146.90605,30.3445435 146.183975,31.2687577 C145.4619,32.1929719 144.127319,32.3568379 143.203104,31.6347626 C142.27889,30.9126873 142.115024,29.578106 142.8371,28.6538918 Z M44.3386177,27.40229 C45.2752931,26.6964545 46.6068113,26.8835872 47.3126468,27.8202626 C48.0184823,28.756938 47.8313496,30.0884561 46.8946743,30.7942917 C45.9579989,31.5001272 44.6264807,31.3129945 43.9206452,30.3763191 C43.2148096,29.4396438 43.4019423,28.1081256 44.3386177,27.40229 Z M133.276408,22.5624937 C133.86283,21.5467804 135.161618,21.1987714 136.177331,21.7851937 C137.193044,22.371616 137.541053,23.6704035 136.954631,24.6861168 C136.368209,25.7018301 135.069421,26.0498391 134.053708,25.4634168 C133.037995,24.8769945 132.689986,23.578207 133.276408,22.5624937 Z M52.8251245,21.7851937 C53.8408378,21.1987714 55.1396253,21.5467804 55.7260476,22.5624937 C56.31247,23.578207 55.9644609,24.8769945 54.9487476,25.4634168 C53.9330344,26.0498391 52.6342469,25.7018301 52.0478245,24.6861168 C51.4614022,23.6704035 51.8094113,22.371616 52.8251245,21.7851937 Z M147.400873,20.4759965 C148.483985,19.0896752 150.485857,18.8438763 151.872179,19.9269892 C153.2585,21.0101021 153.504299,23.011974 152.421186,24.3982953 C151.338073,25.7846166 149.336201,26.0304156 147.94988,24.9473027 C146.563559,23.8641898 146.31776,21.8623178 147.400873,20.4759965 Z M37.4293878,18.9282621 C38.8344009,17.8695088 40.8316782,18.1502078 41.8904315,19.5552209 C42.9491848,20.9602339 42.6684858,22.9575112 41.2634727,24.0162645 C39.8584596,25.0750178 37.8611823,24.7943188 36.802429,23.3893057 C35.7436757,21.9842926 36.0243747,19.9870154 37.4293878,18.9282621 Z M124.284959,18.3692511 C124.743225,17.2896419 125.98992,16.7859444 127.06953,17.2442114 C128.149139,17.7024783 128.652836,18.9491732 128.194569,20.0287824 C127.736302,21.1083916 126.489607,21.612089 125.409998,21.1538221 C124.330389,20.6955552 123.826692,19.4488603 124.284959,18.3692511 Z M63.2769417,16.6875019 C64.3643843,16.2481465 65.6020986,16.7735251 66.0414539,17.8609677 C66.4808093,18.9484103 65.9554307,20.1861246 64.8679881,20.62548 C63.7805455,21.0648353 62.5428312,20.5394568 62.1034758,19.4520141 C61.6641205,18.3645715 62.189499,17.1268572 63.2769417,16.6875019 Z M136.648615,13.759562 C137.528249,12.2359922 139.47643,11.7139786 141,12.593612 C142.52357,13.4732455 143.045583,15.4214268 142.16595,16.9449967 C141.286317,18.4685666 139.338135,18.9905802 137.814565,18.1109467 C136.290995,17.2313132 135.768982,15.2831319 136.648615,13.759562 Z M47,12.593612 C48.5235699,11.7139786 50.4717512,12.2359922 51.3513846,13.759562 C52.2310181,15.2831319 51.7090045,17.2313132 50.1854346,18.1109467 C48.6618648,18.9905802 46.7136835,18.4685666 45.83405,16.9449967 C44.9544165,15.4214268 45.4764301,13.4732455 47,12.593612 Z M72.9280893,13.458273 C74.0609702,13.1547185 75.2254313,13.8270204 75.5289858,14.9599013 C75.8325403,16.0927823 75.1602384,17.2572433 74.0273575,17.5607978 C72.8944766,17.8643524 71.7300155,17.1920505 71.426461,16.0591695 C71.1229065,14.9262886 71.7952084,13.7618276 72.9280893,13.458273 Z M113.47347,14.9599013 C113.777024,13.8270204 114.941485,13.1547185 116.074366,13.458273 C117.207247,13.7618276 117.879549,14.9262886 117.575995,16.0591695 C117.27244,17.1920505 116.107979,17.8643524 114.975098,17.5607978 C113.842217,17.2572433 113.169915,16.0927823 113.47347,14.9599013 Z M103.703106,13.2366984 C103.866334,12.0752678 104.940182,11.266065 106.101613,11.4292934 C107.263043,11.5925219 108.072246,12.6663702 107.909018,13.8278008 C107.745789,14.9892314 106.671941,15.7984341 105.51051,15.6352057 C104.34908,15.4719773 103.539877,14.398129 103.703106,13.2366984 Z M84.3431491,11.2394102 C85.5072516,11.0964764 86.5668138,11.9242971 86.7097476,13.0883996 C86.8526814,14.252502 86.0248607,15.3120642 84.8607582,15.4549981 C83.6966558,15.5979319 82.6370936,14.7701111 82.4941597,13.6060087 C82.3512259,12.4419062 83.1790467,11.382344 84.3431491,11.2394102 Z M94.5012278,10.6181155 C95.6740725,10.6181155 96.6248509,11.5688939 96.6248509,12.7417386 C96.6248509,13.9145832 95.6740725,14.8653617 94.5012278,14.8653617 C93.3283832,14.8653617 92.3776047,13.9145832 92.3776047,12.7417386 C92.3776047,11.5688939 93.3283832,10.6181155 94.5012278,10.6181155 Z M126.55187,9.16010335 C127.23927,7.54068956 129.109312,6.7851434 130.728726,7.47254378 C132.34814,8.15994415 133.103686,10.0299865 132.416286,11.6494003 C131.728885,13.2688141 129.858843,14.0243602 128.239429,13.3369599 C126.620015,12.6495595 125.864469,10.7795171 126.55187,9.16010335 Z M58.7869802,6.84471767 C60.4181442,6.18568466 62.2747156,6.97375249 62.9337486,8.60491642 C63.5927816,10.2360804 62.8047138,12.0926518 61.1735499,12.7516848 C59.5423859,13.4107178 57.6858145,12.62265 57.0267815,10.9914861 C56.3677485,9.36032213 57.1558163,7.50375068 58.7869802,6.84471767 Z M69.6710098,3.20297233 C71.3703312,2.74764053 73.1170227,3.75609336 73.5723545,5.45541477 C74.0276863,7.15473618 73.0192335,8.90142771 71.3199121,9.35675951 C69.6205907,9.81209131 67.8738991,8.80363848 67.4185673,7.10431707 C66.9632355,5.40499567 67.9716884,3.65830413 69.6710098,3.20297233 Z M114.427645,5.45541477 C114.882977,3.75609336 116.629669,2.74764053 118.32899,3.20297233 C120.028312,3.65830413 121.036764,5.40499567 120.581433,7.10431707 C120.126101,8.80363848 118.379409,9.81209131 116.680088,9.35675951 C114.980767,8.90142771 113.972314,7.15473618 114.427645,5.45541477 Z M103.48451,3.62590894 C103.729353,1.88376302 105.340126,0.669958898 107.082271,0.914801538 C108.824417,1.15964418 110.038222,2.77041666 109.793379,4.51256257 C109.548536,6.25470848 107.937764,7.46851261 106.195618,7.22366997 C104.453472,6.97882733 103.239668,5.36805485 103.48451,3.62590894 Z M82.5442817,0.700661746 C84.2904354,0.486261034 85.8797787,1.72799215 86.0941794,3.47414582 C86.3085802,5.22029948 85.066849,6.80964283 83.3206954,7.02404354 C81.5745417,7.23844425 79.9851984,5.99671314 79.7707977,4.25055947 C79.5563969,2.50440581 80.7981281,0.915062457 82.5442817,0.700661746 Z M94,0 C95.759267,0 97.1854346,1.42616767 97.1854346,3.18543465 C97.1854346,4.94470162 95.759267,6.37086929 94,6.37086929 C92.240733,6.37086929 90.8145654,4.94470162 90.8145654,3.18543465 C90.8145654,1.42616767 92.240733,0 94,0 Z" id="path-1"></path>
    </defs>
    <g id="页面-1" stroke="none" stroke-width="1" fill="none" fill-rule="evenodd">
        <g id="Crema-Pools-" transform="translate(-848.000000, -335.000000)">
            <g id="编组-48" transform="translate(810.000000, 297.000000)">
                <g id="矩形备份-21" style="mix-blend-mode: normal;" transform="translate(38.000000, 38.000000)">
                    <mask id="mask-2" fill="white">
                        <use xlink:href="#path-1"></use>
                    </mask>
                    <use id="蒙版" fill="#FFFFFF" xlink:href="#path-1"></use>
                </g>
            </g>
        </g>
    </g>
</svg>