<?xml version="1.0" encoding="UTF-8"?>
<svg width="20px" height="21px" viewBox="0 0 20 21" version="1.1" xmlns="http://www.w3.org/2000/svg" xmlns:xlink="http://www.w3.org/1999/xlink">
    <title>tanhao</title>
    <g id="页面-1" stroke="none" stroke-width="1" fill="none" fill-rule="evenodd">
        <g id="Crema-Pools-双侧资产交易限制" transform="translate(-494.000000, -783.000000)" fill-rule="nonzero">
            <g id="编组-27" transform="translate(474.000000, 585.000000)">
                <g id="编组-26" transform="translate(0.000000, 118.000000)">
                    <g id="编组-18备份-7" transform="translate(0.000000, 50.000000)">
                        <g id="tanhao" transform="translate(20.000000, 30.000000)">
                            <path d="M10,20.0855812 C4.47714844,20.0855812 0,15.6084328 0,10.0855812 C0,4.56272963 4.47714844,0.0855811938 10,0.0855811938 C15.5228516,0.0855811938 20,4.56272963 20,10.0855812 C20,15.6084328 15.5228516,20.0855812 10,20.0855812 Z" id="路径" fill="#AC2F2F"></path>
                            <path d="M11,4.54407253 C11,3.73824481 10.2341242,3.08558119 9.48899022,3.08558119 C8.74385626,3.08558119 8,3.73824481 8,4.54407253 L8.39219178,10.626056 C8.39219178,11.4315384 8.73460238,12.0855812 9.47941692,12.0855812 C10.2242315,12.0855812 10.6081257,11.4301572 10.6081257,10.626056 L11,4.54407253 Z" id="路径" fill="#FFFFFF"></path>
                            <path d="M9.4990589,13.0855812 L9.49905887,13.0855812 C8.67063103,13.0861016 7.99948073,13.7580963 8,14.5865223 C8.00052019,15.4149502 8.67251493,16.0861005 9.5009409,16.0855812 C10.3286324,16.0850615 10.9994799,15.4142138 11,14.5865223 L11,14.5865354 C11.0006999,13.7582814 10.329836,13.0862807 9.50158194,13.0855812 C9.50074512,13.0855812 9.4999083,13.0855812 9.49907149,13.0855812 L9.4990589,13.0855812 Z" id="路径" fill="#FFFFFF"></path>
                        </g>
                    </g>
                </g>
            </g>
        </g>
    </g>
</svg>