<?xml version="1.0" encoding="UTF-8"?>
<svg width="14px" height="14px" viewBox="0 0 14 14" version="1.1" xmlns="http://www.w3.org/2000/svg" xmlns:xlink="http://www.w3.org/1999/xlink">
    <title>tanhao</title>
    <g id="页面-1" stroke="none" stroke-width="1" fill="none" fill-rule="evenodd">
        <g id="Crema-Pools" transform="translate(-474.000000, -133.000000)" fill="#FFBB00" fill-rule="nonzero">
            <g id="tanhao" transform="translate(474.000000, 133.000000)">
                <path d="M7,2.66453526e-14 C10.8660087,2.66453526e-14 14.0000163,3.13400755 14.0000163,7 C14.0000163,10.8660087 10.8660087,14.0000163 7,14.0000163 C3.13400755,14.0000163 2.66453526e-14,10.8660087 2.66453526e-14,7 C2.66453526e-14,3.13400755 3.13400755,2.66453526e-14 7,2.66453526e-14 Z M7.01860462,9.13081298 L7.01675892,9.13081298 C6.41074005,9.13119367 5.91977425,9.62277721 5.92015411,10.2287947 C5.92053464,10.8348136 6.41211818,11.3257794 7.01813568,11.3253995 C7.58325053,11.3250447 8.04841769,10.8975281 8.10823769,10.3482496 L8.11474067,10.2288043 C8.11525269,9.62291258 7.62449634,9.1313247 7.01860462,9.13081298 Z M6.98417473,2.61932922 C6.44837743,2.61932922 5.91349887,3.05347328 5.91349887,3.58950027 L6.19550897,7.63516318 C6.19550897,8.17096048 6.44172332,8.60602193 6.97729093,8.60602193 C7.51285855,8.60602193 7.78890223,8.17004173 7.78890223,7.63516318 L8.070684,3.58950027 C8.070684,3.05347328 7.51997203,2.61932922 6.98417473,2.61932922 Z" id="路径-3"></path>
            </g>
        </g>
    </g>
</svg>